# MagicaVoxel @ Ephtracy

# material
mtllib badroom.mtl
usemtl palette

# normals
vn -1 0 0
vn 1 0 0
vn 0 0 1
vn 0 0 -1
vn 0 -1 0
vn 0 1 0

# texcoords
vt 0.0605469 0.5
vt 0.841797 0.5
vt 0.958984 0.5
vt 0.994141 0.5

# verts
v -15 0 20
v -15 0 -2
v -15 39 20
v -15 39 -2
v -11 21 3
v -11 21 -0
v -11 22 3
v -11 22 -0
v -9 10 12
v -9 10 9
v -9 14 13
v -9 14 12
v -9 15 13
v -9 15 9
v -6 23 -0
v -6 23 -2
v -6 27 -0
v -6 27 -2
v -6 28 -1
v -6 28 -2
v -6 29 -0
v -6 29 -1
v -6 33 -0
v -6 33 -2
v -1 2 7
v -1 2 -0
v -1 7 7
v -1 7 -0
v 1 23 -0
v 1 23 -2
v 1 27 -0
v 1 27 -2
v 1 28 -1
v 1 28 -2
v 1 29 -0
v 1 29 -1
v 1 33 -0
v 1 33 -2
v 12 27 17
v 12 27 -0
v 12 28 17
v 12 28 -0
v 12 29 5
v 12 29 2
v 12 30 5
v 12 30 2
v 13 28 15
v 13 28 14
v 13 28 13
v 13 28 12
v 13 28 11
v 13 28 10
v 13 28 5
v 13 28 2
v 13 29 6
v 13 29 5
v 13 29 2
v 13 30 6
v 13 30 5
v 13 32 15
v 13 32 14
v 13 32 13
v 13 32 12
v 13 32 11
v 13 32 10
v 14 28 16
v 14 28 15
v 14 28 14
v 14 28 13
v 14 28 12
v 14 28 11
v 14 29 16
v 14 29 15
v 14 29 14
v 14 29 13
v 14 29 12
v 14 29 11
v 15 7 7
v 15 7 -0
v 15 9 7
v 15 9 -0
v 15 29 16
v 15 29 15
v 15 29 14
v 15 29 13
v 15 29 12
v 15 29 11
v 15 29 5
v 15 29 4
v 15 30 16
v 15 30 15
v 15 30 14
v 15 30 13
v 15 30 5
v 15 30 4
v 15 31 12
v 15 31 11
v 16 29 4
v 16 29 3
v 16 30 16
v 16 30 15
v 16 30 14
v 16 30 13
v 16 30 4
v 16 30 3
v 16 31 16
v 16 31 15
v 16 31 14
v 16 31 13
v 18 2 20
v 18 2 7
v 18 9 7
v 18 9 -0
v 18 27 17
v 18 27 -0
v 18 28 17
v 18 28 -0
v 18 39 20
v 18 39 -0
v -13 2 20
v -13 2 18
v -13 5 19
v -13 5 18
v -13 7 19
v -13 7 18
v -13 10 18
v -13 10 -0
v -13 15 17
v -13 15 4
v -13 17 13
v -13 17 8
v -13 18 14
v -13 18 13
v -13 18 12
v -13 18 10
v -13 18 9
v -13 18 8
v -13 18 7
v -13 19 15
v -13 19 14
v -13 19 13
v -13 19 10
v -13 19 9
v -13 19 8
v -13 19 7
v -13 19 6
v -13 20 16
v -13 20 15
v -13 20 14
v -13 20 12
v -13 20 11
v -13 20 9
v -13 20 8
v -13 20 7
v -13 20 6
v -13 20 5
v -13 21 15
v -13 21 14
v -13 21 10
v -13 21 8
v -13 21 7
v -13 22 12
v -13 22 11
v -13 22 10
v -13 22 8
v -13 23 13
v -13 23 11
v -13 23 7
v -13 23 6
v -13 24 14
v -13 24 13
v -13 24 10
v -13 24 9
v -13 24 8
v -13 24 7
v -13 24 6
v -13 25 16
v -13 25 15
v -13 25 14
v -13 25 13
v -13 25 12
v -13 25 9
v -13 25 8
v -13 25 7
v -13 25 6
v -13 25 5
v -13 26 15
v -13 26 14
v -13 26 13
v -13 26 12
v -13 26 11
v -13 26 10
v -13 26 8
v -13 26 7
v -13 26 6
v -13 27 14
v -13 27 13
v -13 27 12
v -13 27 11
v -13 27 8
v -13 27 7
v -13 28 13
v -13 28 8
v -13 31 17
v -13 31 4
v -13 39 20
v -13 39 -0
v -11 23 -0
v -11 23 -2
v -11 27 -0
v -11 27 -2
v -11 28 -1
v -11 28 -2
v -11 29 -0
v -11 29 -1
v -11 33 -0
v -11 33 -2
v -7 10 12
v -7 10 9
v -7 14 13
v -7 14 12
v -7 15 13
v -7 15 9
v -4 23 -0
v -4 23 -2
v -4 27 -0
v -4 27 -2
v -4 28 -1
v -4 28 -2
v -4 29 -0
v -4 29 -1
v -4 33 -0
v -4 33 -2
v -2 2 18
v -2 2 -0
v -2 4 18
v -2 4 8
v -2 9 18
v -2 9 8
v -2 10 18
v -2 10 -0
v -1 4 18
v -1 4 8
v -1 5 18
v -1 5 9
v -1 7 18
v -1 7 9
v -1 9 18
v -1 9 8
v 0 5 19
v 0 5 9
v 0 7 19
v 0 7 9
v 1 21 3
v 1 21 -0
v 1 22 3
v 1 22 -0
v 13 29 4
v 13 29 3
v 13 30 4
v 13 30 3
v 14 29 5
v 14 29 4
v 14 30 5
v 14 30 4
v 16 28 5
v 16 28 3
v 16 29 6
v 16 29 5
v 16 29 3
v 16 30 6
v 16 30 5
v 17 28 16
v 17 28 10
v 17 28 3
v 17 28 2
v 17 29 5
v 17 29 3
v 17 30 5
v 17 30 2
v 17 31 16
v 17 31 15
v 17 31 14
v 17 31 13
v 17 31 12
v 17 31 11
v 17 32 15
v 17 32 14
v 17 32 13
v 17 32 12
v 17 32 11
v 17 32 10
v 20 0 20
v 20 0 -2
v 20 39 20
v 20 39 -2
v -15 0 20
v -15 39 20
v -13 2 20
v -13 39 20
v 18 2 20
v 18 39 20
v 20 0 20
v 20 39 20
v -13 5 19
v -13 7 19
v 0 5 19
v 0 7 19
v -13 2 18
v -13 5 18
v -13 7 18
v -13 10 18
v -2 2 18
v -2 4 18
v -2 9 18
v -2 10 18
v -1 4 18
v -1 5 18
v -1 7 18
v -1 9 18
v 12 27 17
v 12 28 17
v 18 27 17
v 18 28 17
v 14 28 16
v 14 29 16
v 15 29 16
v 15 30 16
v 16 30 16
v 16 31 16
v 17 28 16
v 17 31 16
v 13 28 15
v 13 32 15
v 14 28 15
v 14 29 15
v 15 29 15
v 15 30 15
v 16 30 15
v 16 31 15
v 17 31 15
v 17 32 15
v -9 14 13
v -9 15 13
v -7 14 13
v -7 15 13
v 13 28 13
v 13 32 13
v 14 28 13
v 14 29 13
v 15 29 13
v 15 30 13
v 16 30 13
v 16 31 13
v 17 31 13
v 17 32 13
v -9 10 12
v -9 14 12
v -7 10 12
v -7 14 12
v 13 28 11
v 13 32 11
v 14 28 11
v 14 29 11
v 15 29 11
v 15 31 11
v 17 31 11
v 17 32 11
v -1 2 7
v -1 7 7
v 15 7 7
v 15 9 7
v 18 2 7
v 18 9 7
v 13 29 6
v 13 30 6
v 16 29 6
v 16 30 6
v 12 29 5
v 12 30 5
v 13 28 5
v 13 29 5
v 13 30 5
v 16 28 5
v 16 29 5
v 16 30 5
v 17 29 5
v 17 30 5
v -11 21 3
v -11 22 3
v 1 21 3
v 1 22 3
v 13 29 3
v 13 30 3
v 16 28 3
v 16 29 3
v 16 30 3
v 17 28 3
v 17 29 3
v -13 10 -0
v -13 39 -0
v -11 21 -0
v -11 22 -0
v -11 23 -0
v -11 27 -0
v -11 29 -0
v -11 33 -0
v -6 23 -0
v -6 27 -0
v -6 29 -0
v -6 33 -0
v -4 23 -0
v -4 27 -0
v -4 29 -0
v -4 33 -0
v -2 2 -0
v -2 10 -0
v -1 2 -0
v -1 7 -0
v 1 21 -0
v 1 22 -0
v 1 23 -0
v 1 27 -0
v 1 29 -0
v 1 33 -0
v 12 27 -0
v 12 28 -0
v 15 7 -0
v 15 9 -0
v 18 9 -0
v 18 27 -0
v 18 28 -0
v 18 39 -0
v 13 28 14
v 13 32 14
v 14 28 14
v 14 29 14
v 15 29 14
v 15 30 14
v 16 30 14
v 16 31 14
v 17 31 14
v 17 32 14
v 13 28 12
v 13 32 12
v 14 28 12
v 14 29 12
v 15 29 12
v 15 31 12
v 17 31 12
v 17 32 12
v 13 28 10
v 13 32 10
v 17 28 10
v 17 32 10
v -9 10 9
v -9 15 9
v -7 10 9
v -7 15 9
v -1 5 9
v -1 7 9
v 0 5 9
v 0 7 9
v -2 4 8
v -2 9 8
v -1 4 8
v -1 9 8
v 14 29 5
v 14 30 5
v 15 29 5
v 15 30 5
v 13 29 4
v 13 30 4
v 14 29 4
v 14 30 4
v 15 29 4
v 15 30 4
v 16 29 4
v 16 30 4
v 12 29 2
v 12 30 2
v 13 28 2
v 13 29 2
v 17 28 2
v 17 30 2
v -11 28 -1
v -11 29 -1
v -6 28 -1
v -6 29 -1
v -4 28 -1
v -4 29 -1
v 1 28 -1
v 1 29 -1
v -15 0 -2
v -15 39 -2
v -11 23 -2
v -11 27 -2
v -11 28 -2
v -11 33 -2
v -6 23 -2
v -6 27 -2
v -6 28 -2
v -6 33 -2
v -4 23 -2
v -4 27 -2
v -4 28 -2
v -4 33 -2
v 1 23 -2
v 1 27 -2
v 1 28 -2
v 1 33 -2
v 20 0 -2
v 20 39 -2
v -15 0 20
v 20 0 20
v -15 0 -2
v 20 0 -2
v -2 4 18
v -1 4 18
v -2 4 8
v -1 4 8
v -13 5 19
v 0 5 19
v -13 5 18
v -1 5 18
v -1 5 9
v 0 5 9
v -9 14 13
v -7 14 13
v -9 14 12
v -7 14 12
v -11 21 3
v 1 21 3
v -11 21 -0
v 1 21 -0
v 12 27 17
v 18 27 17
v -11 27 -0
v -6 27 -0
v -4 27 -0
v 1 27 -0
v 12 27 -0
v 18 27 -0
v -11 27 -2
v -6 27 -2
v -4 27 -2
v 1 27 -2
v 13 29 6
v 16 29 6
v 12 29 5
v 13 29 5
v 16 29 5
v 17 29 5
v 16 29 3
v 17 29 3
v 12 29 2
v 13 29 2
v -11 33 -0
v -6 33 -0
v -4 33 -0
v 1 33 -0
v -11 33 -2
v -6 33 -2
v -4 33 -2
v 1 33 -2
v -13 2 20
v 18 2 20
v -13 2 18
v -2 2 18
v -1 2 7
v 18 2 7
v -2 2 -0
v -1 2 -0
v -13 7 19
v 0 7 19
v -13 7 18
v -1 7 18
v -1 7 9
v 0 7 9
v -1 7 7
v 15 7 7
v -1 7 -0
v 15 7 -0
v -2 9 18
v -1 9 18
v -2 9 8
v -1 9 8
v 15 9 7
v 18 9 7
v 15 9 -0
v 18 9 -0
v -13 10 18
v -2 10 18
v -9 10 12
v -7 10 12
v -9 10 9
v -7 10 9
v -13 10 -0
v -2 10 -0
v -9 15 13
v -7 15 13
v -9 15 9
v -7 15 9
v -11 22 3
v 1 22 3
v -11 22 -0
v 1 22 -0
v -11 23 -0
v -6 23 -0
v -4 23 -0
v 1 23 -0
v -11 23 -2
v -6 23 -2
v -4 23 -2
v 1 23 -2
v 12 28 17
v 18 28 17
v 14 28 16
v 17 28 16
v 13 28 15
v 14 28 15
v 13 28 14
v 14 28 14
v 13 28 13
v 14 28 13
v 13 28 12
v 14 28 12
v 13 28 11
v 14 28 11
v 13 28 10
v 17 28 10
v 13 28 5
v 16 28 5
v 16 28 3
v 17 28 3
v 13 28 2
v 17 28 2
v 12 28 -0
v 18 28 -0
v -11 28 -1
v -6 28 -1
v -4 28 -1
v 1 28 -1
v -11 28 -2
v -6 28 -2
v -4 28 -2
v 1 28 -2
v 14 29 16
v 15 29 16
v 14 29 15
v 15 29 15
v 14 29 14
v 15 29 14
v 14 29 13
v 15 29 13
v 14 29 12
v 15 29 12
v 14 29 11
v 15 29 11
v 14 29 5
v 15 29 5
v 13 29 4
v 14 29 4
v 15 29 4
v 16 29 4
v 13 29 3
v 16 29 3
v -11 29 -0
v -6 29 -0
v -4 29 -0
v 1 29 -0
v -11 29 -1
v -6 29 -1
v -4 29 -1
v 1 29 -1
v 15 30 16
v 16 30 16
v 15 30 15
v 16 30 15
v 15 30 14
v 16 30 14
v 15 30 13
v 16 30 13
v 13 30 6
v 16 30 6
v 12 30 5
v 13 30 5
v 14 30 5
v 15 30 5
v 16 30 5
v 17 30 5
v 13 30 4
v 14 30 4
v 15 30 4
v 16 30 4
v 13 30 3
v 16 30 3
v 12 30 2
v 17 30 2
v 16 31 16
v 17 31 16
v 16 31 15
v 17 31 15
v 16 31 14
v 17 31 14
v 16 31 13
v 17 31 13
v 15 31 12
v 17 31 12
v 15 31 11
v 17 31 11
v 13 32 15
v 17 32 15
v 13 32 14
v 17 32 14
v 13 32 13
v 17 32 13
v 13 32 12
v 17 32 12
v 13 32 11
v 17 32 11
v 13 32 10
v 17 32 10
v -15 39 20
v -13 39 20
v 18 39 20
v 20 39 20
v -13 39 -0
v 18 39 -0
v -15 39 -2
v 20 39 -2

# faces
f 3/1/1 2/1/1 1/1/1
f 4/1/1 2/1/1 3/1/1
f 7/1/1 6/1/1 5/1/1
f 8/1/1 6/1/1 7/1/1
f 12/1/1 10/1/1 9/1/1
f 13/1/1 12/1/1 11/1/1
f 14/1/1 10/1/1 12/1/1
f 14/1/1 12/1/1 13/1/1
f 17/1/1 16/1/1 15/1/1
f 18/1/1 16/1/1 17/1/1
f 22/1/1 20/1/1 19/1/1
f 23/1/1 22/1/1 21/1/1
f 24/1/1 20/1/1 22/1/1
f 24/1/1 22/1/1 23/1/1
f 27/1/1 26/1/1 25/1/1
f 28/1/1 26/1/1 27/1/1
f 31/1/1 30/1/1 29/1/1
f 32/1/1 30/1/1 31/1/1
f 36/1/1 34/1/1 33/1/1
f 37/1/1 36/1/1 35/1/1
f 38/1/1 34/1/1 36/1/1
f 38/1/1 36/1/1 37/1/1
f 41/1/1 40/1/1 39/1/1
f 42/1/1 40/1/1 41/1/1
f 45/1/1 44/1/1 43/1/1
f 46/1/1 44/1/1 45/1/1
f 56/1/1 54/1/1 53/1/1
f 57/1/1 54/1/1 56/1/1
f 58/1/1 56/1/1 55/1/1
f 59/1/1 56/1/1 58/1/1
f 60/1/1 48/1/1 47/1/1
f 61/1/1 48/1/1 60/1/1
f 62/1/1 50/1/1 49/1/1
f 63/1/1 50/1/1 62/1/1
f 64/1/1 52/1/1 51/1/1
f 65/1/1 52/1/1 64/1/1
f 72/1/1 67/1/1 66/1/1
f 73/1/1 67/1/1 72/1/1
f 74/1/1 69/1/1 68/1/1
f 75/1/1 69/1/1 74/1/1
f 76/1/1 71/1/1 70/1/1
f 77/1/1 71/1/1 76/1/1
f 80/1/1 79/1/1 78/1/1
f 81/1/1 79/1/1 80/1/1
f 90/1/1 83/1/1 82/1/1
f 91/1/1 83/1/1 90/1/1
f 92/1/1 85/1/1 84/1/1
f 93/1/1 85/1/1 92/1/1
f 94/1/1 89/1/1 88/1/1
f 95/1/1 89/1/1 94/1/1
f 96/1/1 87/1/1 86/1/1
f 97/1/1 87/1/1 96/1/1
f 104/1/1 99/1/1 98/1/1
f 105/1/1 99/1/1 104/1/1
f 106/1/1 101/1/1 100/1/1
f 107/1/1 101/1/1 106/1/1
f 108/1/1 103/1/1 102/1/1
f 109/1/1 103/1/1 108/1/1
f 112/1/1 111/1/1 110/1/1
f 114/1/1 112/1/1 110/1/1
f 114/1/1 113/1/1 112/1/1
f 115/1/1 113/1/1 114/1/1
f 116/1/1 114/1/1 110/1/1
f 118/1/1 116/1/1 110/1/1
f 118/1/1 117/1/1 116/1/1
f 119/1/1 117/1/1 118/1/1
f 120/1/2 121/1/2 122/1/2
f 122/1/2 121/1/2 123/1/2
f 120/1/2 122/1/2 124/1/2
f 124/1/2 125/1/2 126/1/2
f 126/1/2 127/1/2 128/1/2
f 128/1/2 127/1/2 129/1/2
f 128/2/2 129/2/2 130/2/2
f 130/2/2 129/2/2 131/2/2
f 128/2/2 130/2/2 132/2/2
f 130/3/2 131/3/2 133/3/2
f 132/2/2 130/2/2 133/2/2
f 133/3/2 131/3/2 134/3/2
f 134/3/2 131/3/2 135/3/2
f 135/3/2 131/3/2 136/3/2
f 131/2/2 129/2/2 137/2/2
f 136/3/2 131/3/2 137/3/2
f 137/2/2 129/2/2 138/2/2
f 128/2/2 132/2/2 139/2/2
f 132/3/2 133/3/2 140/3/2
f 139/2/2 132/2/2 140/2/2
f 133/4/2 134/4/2 141/4/2
f 140/3/2 133/3/2 141/3/2
f 135/4/2 136/4/2 142/4/2
f 134/3/2 135/3/2 142/3/2
f 136/3/2 137/3/2 143/3/2
f 142/4/2 136/4/2 143/4/2
f 137/3/2 138/3/2 143/3/2
f 143/3/2 138/3/2 144/3/2
f 138/2/2 129/2/2 145/2/2
f 144/3/2 138/3/2 145/3/2
f 145/2/2 129/2/2 146/2/2
f 128/2/2 139/2/2 147/2/2
f 139/3/2 140/3/2 148/3/2
f 147/2/2 139/2/2 148/2/2
f 140/4/2 141/4/2 149/4/2
f 148/3/2 140/3/2 149/3/2
f 141/4/2 134/4/2 150/4/2
f 149/4/2 141/4/2 150/4/2
f 134/3/2 142/3/2 150/3/2
f 142/3/2 143/3/2 150/3/2
f 150/3/2 143/3/2 151/3/2
f 143/4/2 144/4/2 152/4/2
f 151/3/2 143/3/2 152/3/2
f 145/3/2 146/3/2 153/3/2
f 152/4/2 144/4/2 153/4/2
f 144/3/2 145/3/2 153/3/2
f 153/3/2 146/3/2 154/3/2
f 146/2/2 129/2/2 155/2/2
f 154/3/2 146/3/2 155/3/2
f 155/2/2 129/2/2 156/2/2
f 148/4/2 149/4/2 157/4/2
f 147/3/2 148/3/2 157/3/2
f 149/3/2 150/3/2 158/3/2
f 157/4/2 149/4/2 158/4/2
f 151/3/2 152/3/2 159/3/2
f 152/3/2 153/3/2 159/3/2
f 153/4/2 154/4/2 160/4/2
f 159/3/2 153/3/2 160/3/2
f 155/3/2 156/3/2 161/3/2
f 160/4/2 154/4/2 161/4/2
f 154/3/2 155/3/2 161/3/2
f 150/4/2 151/4/2 162/4/2
f 158/3/2 150/3/2 162/3/2
f 157/3/2 158/3/2 162/3/2
f 151/3/2 159/3/2 163/3/2
f 162/4/2 151/4/2 163/4/2
f 159/4/2 160/4/2 164/4/2
f 163/3/2 159/3/2 164/3/2
f 160/3/2 161/3/2 165/3/2
f 164/4/2 160/4/2 165/4/2
f 157/3/2 162/3/2 166/3/2
f 162/3/2 163/3/2 166/3/2
f 163/4/2 164/4/2 167/4/2
f 166/3/2 163/3/2 167/3/2
f 161/3/2 156/3/2 168/3/2
f 165/3/2 161/3/2 168/3/2
f 164/3/2 165/3/2 168/3/2
f 168/3/2 156/3/2 169/3/2
f 157/3/2 166/3/2 170/3/2
f 166/4/2 167/4/2 171/4/2
f 170/3/2 166/3/2 171/3/2
f 167/4/2 164/4/2 172/4/2
f 171/4/2 167/4/2 172/4/2
f 164/3/2 168/3/2 172/3/2
f 172/3/2 168/3/2 173/3/2
f 173/3/2 168/3/2 174/3/2
f 168/4/2 169/4/2 175/4/2
f 174/3/2 168/3/2 175/3/2
f 169/3/2 156/3/2 176/3/2
f 175/4/2 169/4/2 176/4/2
f 157/3/2 170/3/2 177/3/2
f 128/2/2 147/2/2 177/2/2
f 147/3/2 157/3/2 177/3/2
f 177/3/2 170/3/2 178/3/2
f 170/4/2 171/4/2 179/4/2
f 178/3/2 170/3/2 179/3/2
f 171/3/2 172/3/2 180/3/2
f 179/4/2 171/4/2 180/4/2
f 180/3/2 172/3/2 181/3/2
f 172/4/2 173/4/2 182/4/2
f 173/3/2 174/3/2 182/3/2
f 174/4/2 175/4/2 183/4/2
f 182/3/2 174/3/2 183/3/2
f 175/3/2 176/3/2 184/3/2
f 183/4/2 175/4/2 184/4/2
f 176/3/2 156/3/2 185/3/2
f 184/3/2 176/3/2 185/3/2
f 156/2/2 129/2/2 186/2/2
f 185/3/2 156/3/2 186/3/2
f 177/2/2 178/2/2 187/2/2
f 178/3/2 179/3/2 187/3/2
f 179/3/2 180/3/2 187/3/2
f 187/3/2 180/3/2 188/3/2
f 180/4/2 181/4/2 189/4/2
f 188/3/2 180/3/2 189/3/2
f 181/3/2 172/3/2 190/3/2
f 189/4/2 181/4/2 190/4/2
f 190/3/2 172/3/2 191/3/2
f 182/4/2 183/4/2 192/4/2
f 191/3/2 172/3/2 192/3/2
f 172/4/2 182/4/2 192/4/2
f 184/3/2 185/3/2 193/3/2
f 192/4/2 183/4/2 193/4/2
f 183/3/2 184/3/2 193/3/2
f 193/3/2 185/3/2 194/3/2
f 185/2/2 186/2/2 195/2/2
f 194/3/2 185/3/2 195/3/2
f 188/3/2 189/3/2 196/3/2
f 189/3/2 190/3/2 196/3/2
f 187/2/2 188/2/2 196/2/2
f 196/3/2 190/3/2 197/3/2
f 190/4/2 191/4/2 198/4/2
f 197/3/2 190/3/2 198/3/2
f 191/3/2 192/3/2 199/3/2
f 198/4/2 191/4/2 199/4/2
f 192/3/2 193/3/2 199/3/2
f 193/3/2 194/3/2 199/3/2
f 199/3/2 194/3/2 200/3/2
f 194/2/2 195/2/2 201/2/2
f 200/3/2 194/3/2 201/3/2
f 197/3/2 198/3/2 202/3/2
f 196/2/2 197/2/2 202/2/2
f 199/3/2 200/3/2 202/3/2
f 198/3/2 199/3/2 202/3/2
f 200/2/2 201/2/2 203/2/2
f 202/3/2 200/3/2 203/3/2
f 126/1/2 128/1/2 204/1/2
f 177/2/2 187/2/2 204/2/2
f 202/2/2 203/2/2 204/2/2
f 187/2/2 196/2/2 204/2/2
f 128/2/2 177/2/2 204/2/2
f 196/2/2 202/2/2 204/2/2
f 203/2/2 201/2/2 205/2/2
f 204/2/2 203/2/2 205/2/2
f 129/1/2 127/1/2 205/1/2
f 195/2/2 186/2/2 205/2/2
f 186/2/2 129/2/2 205/2/2
f 201/2/2 195/2/2 205/2/2
f 124/1/2 126/1/2 206/1/2
f 120/1/2 124/1/2 206/1/2
f 204/1/2 205/1/2 206/1/2
f 126/1/2 204/1/2 206/1/2
f 205/1/2 127/1/2 207/1/2
f 206/1/2 205/1/2 207/1/2
f 208/1/2 209/1/2 210/1/2
f 210/1/2 209/1/2 211/1/2
f 212/1/2 213/1/2 215/1/2
f 214/1/2 215/1/2 216/1/2
f 215/1/2 213/1/2 217/1/2
f 216/1/2 215/1/2 217/1/2
f 218/1/2 219/1/2 221/1/2
f 220/1/2 221/1/2 222/1/2
f 221/1/2 219/1/2 223/1/2
f 222/1/2 221/1/2 223/1/2
f 224/1/2 225/1/2 226/1/2
f 226/1/2 225/1/2 227/1/2
f 228/1/2 229/1/2 231/1/2
f 230/1/2 231/1/2 232/1/2
f 231/1/2 229/1/2 233/1/2
f 232/1/2 231/1/2 233/1/2
f 234/1/2 235/1/2 236/1/2
f 236/1/2 235/1/2 237/1/2
f 237/1/2 235/1/2 239/1/2
f 238/1/2 239/1/2 240/1/2
f 239/1/2 235/1/2 241/1/2
f 240/1/2 239/1/2 241/1/2
f 242/1/2 243/1/2 244/1/2
f 244/1/2 243/1/2 245/1/2
f 245/1/2 243/1/2 247/1/2
f 246/1/2 247/1/2 248/1/2
f 247/1/2 243/1/2 249/1/2
f 248/1/2 247/1/2 249/1/2
f 250/1/2 251/1/2 252/1/2
f 252/1/2 251/1/2 253/1/2
f 254/1/2 255/1/2 256/1/2
f 256/1/2 255/1/2 257/1/2
f 258/1/2 259/1/2 260/1/2
f 260/1/2 259/1/2 261/1/2
f 262/1/2 263/1/2 264/1/2
f 264/1/2 263/1/2 265/1/2
f 266/1/2 267/1/2 269/1/2
f 269/1/2 267/1/2 270/1/2
f 268/1/2 269/1/2 271/1/2
f 271/1/2 269/1/2 272/1/2
f 275/1/2 276/1/2 278/1/2
f 277/1/2 278/1/2 279/1/2
f 278/1/2 276/1/2 280/1/2
f 279/1/2 278/1/2 280/1/2
f 273/1/2 274/1/2 281/1/2
f 281/1/2 274/1/2 282/1/2
f 282/1/2 274/1/2 283/1/2
f 283/1/2 274/1/2 284/1/2
f 284/1/2 274/1/2 285/1/2
f 285/1/2 274/1/2 286/1/2
f 282/1/2 283/1/2 287/1/2
f 287/1/2 283/1/2 288/1/2
f 284/1/2 285/1/2 289/1/2
f 289/1/2 285/1/2 290/1/2
f 286/1/2 274/1/2 291/1/2
f 291/1/2 274/1/2 292/1/2
f 293/1/2 294/1/2 295/1/2
f 295/1/2 294/1/2 296/1/2
f 299/1/3 298/1/3 297/1/3
f 300/1/3 298/1/3 299/1/3
f 301/1/3 299/1/3 297/1/3
f 303/1/3 301/1/3 297/1/3
f 303/1/3 302/1/3 301/1/3
f 304/1/3 302/1/3 303/1/3
f 307/1/3 306/1/3 305/1/3
f 308/1/3 306/1/3 307/1/3
f 313/1/3 310/1/3 309/1/3
f 314/1/3 310/1/3 313/1/3
f 315/1/3 312/1/3 311/1/3
f 316/1/3 312/1/3 315/1/3
f 317/1/3 310/1/3 314/1/3
f 318/1/3 310/1/3 317/1/3
f 319/1/3 315/1/3 311/1/3
f 320/1/3 315/1/3 319/1/3
f 323/1/3 322/1/3 321/1/3
f 324/1/3 322/1/3 323/1/3
f 327/1/3 326/1/3 325/1/3
f 329/1/3 328/1/3 327/1/3
f 331/1/3 327/1/3 325/1/3
f 331/1/3 330/1/3 329/1/3
f 331/1/3 329/1/3 327/1/3
f 332/1/3 330/1/3 331/1/3
f 335/1/3 334/1/3 333/1/3
f 336/1/3 334/1/3 335/1/3
f 337/1/3 334/1/3 336/1/3
f 338/1/3 334/1/3 337/1/3
f 339/1/3 334/1/3 338/1/3
f 340/1/3 334/1/3 339/1/3
f 341/1/3 334/1/3 340/1/3
f 342/1/3 334/1/3 341/1/3
f 345/1/3 344/1/3 343/1/3
f 346/1/3 344/1/3 345/1/3
f 349/1/3 348/1/3 347/1/3
f 350/1/3 348/1/3 349/1/3
f 351/1/3 348/1/3 350/1/3
f 352/1/3 348/1/3 351/1/3
f 353/1/3 348/1/3 352/1/3
f 354/1/3 348/1/3 353/1/3
f 355/1/3 348/1/3 354/1/3
f 356/1/3 348/1/3 355/1/3
f 359/1/3 358/1/3 357/1/3
f 360/1/3 358/1/3 359/1/3
f 363/1/3 362/1/3 361/1/3
f 364/1/3 362/1/3 363/1/3
f 365/1/3 362/1/3 364/1/3
f 366/1/3 362/1/3 365/1/3
f 367/1/3 362/1/3 366/1/3
f 368/1/3 362/1/3 367/1/3
f 371/1/3 370/1/3 369/1/3
f 373/1/3 371/1/3 369/1/3
f 373/1/3 372/1/3 371/1/3
f 374/1/3 372/1/3 373/1/3
f 377/1/3 376/1/3 375/1/3
f 378/1/3 376/1/3 377/1/3
f 382/1/3 380/1/3 379/1/3
f 383/1/3 380/1/3 382/1/3
f 384/1/3 382/1/3 381/1/3
f 385/1/3 382/1/3 384/1/3
f 387/1/3 386/1/3 385/1/3
f 388/1/3 386/1/3 387/1/3
f 391/1/3 390/1/3 389/1/3
f 392/1/3 390/1/3 391/1/3
f 396/1/3 394/1/3 393/1/3
f 397/1/3 394/1/3 396/1/3
f 398/1/3 396/1/3 395/1/3
f 399/1/3 396/1/3 398/1/3
f 402/1/3 401/1/3 400/1/3
f 403/1/3 401/1/3 402/1/3
f 404/1/3 401/1/3 403/1/3
f 405/1/3 401/1/3 404/1/3
f 406/1/3 401/1/3 405/1/3
f 407/1/3 401/1/3 406/1/3
f 408/1/3 404/1/3 403/1/3
f 409/1/3 406/1/3 405/1/3
f 410/1/3 406/1/3 409/1/3
f 411/1/3 401/1/3 407/1/3
f 412/1/3 410/1/3 409/1/3
f 412/1/3 411/1/3 410/1/3
f 412/1/3 408/1/3 403/1/3
f 412/1/3 409/1/3 408/1/3
f 413/1/3 411/1/3 412/1/3
f 414/1/3 411/1/3 413/1/3
f 415/1/3 401/1/3 411/1/3
f 415/1/3 411/1/3 414/1/3
f 417/1/3 402/1/3 400/1/3
f 418/1/3 417/1/3 416/1/3
f 419/1/3 417/1/3 418/1/3
f 420/1/3 402/1/3 417/1/3
f 420/1/3 417/1/3 419/1/3
f 421/1/3 412/1/3 403/1/3
f 422/1/3 412/1/3 421/1/3
f 423/1/3 414/1/3 413/1/3
f 424/1/3 414/1/3 423/1/3
f 425/1/3 401/1/3 415/1/3
f 426/1/3 424/1/3 423/1/3
f 426/1/3 425/1/3 424/1/3
f 426/1/3 422/1/3 421/1/3
f 426/1/3 421/1/3 420/1/3
f 426/1/3 423/1/3 422/1/3
f 427/1/3 425/1/3 426/1/3
f 428/1/3 420/1/3 419/1/3
f 428/1/3 426/1/3 420/1/3
f 429/1/3 426/1/3 428/1/3
f 430/1/3 426/1/3 429/1/3
f 431/1/3 426/1/3 430/1/3
f 432/1/3 425/1/3 427/1/3
f 433/1/3 401/1/3 425/1/3
f 433/1/3 425/1/3 432/1/3
f 434/1/4 435/1/4 436/1/4
f 436/1/4 435/1/4 437/1/4
f 437/1/4 435/1/4 438/1/4
f 438/1/4 435/1/4 439/1/4
f 439/1/4 435/1/4 440/1/4
f 440/1/4 435/1/4 441/1/4
f 441/1/4 435/1/4 442/1/4
f 442/1/4 435/1/4 443/1/4
f 444/1/4 445/1/4 446/1/4
f 446/1/4 445/1/4 447/1/4
f 447/1/4 445/1/4 448/1/4
f 448/1/4 445/1/4 449/1/4
f 449/1/4 445/1/4 450/1/4
f 450/1/4 445/1/4 451/1/4
f 452/1/4 453/1/4 454/1/4
f 454/1/4 453/1/4 455/1/4
f 456/1/4 457/1/4 458/1/4
f 458/1/4 457/1/4 459/1/4
f 460/1/4 461/1/4 462/1/4
f 462/1/4 461/1/4 463/1/4
f 464/1/4 465/1/4 466/1/4
f 466/1/4 465/1/4 467/1/4
f 468/1/4 469/1/4 470/1/4
f 470/1/4 469/1/4 471/1/4
f 472/1/4 473/1/4 474/1/4
f 474/1/4 473/1/4 475/1/4
f 476/1/4 477/1/4 478/1/4
f 478/1/4 477/1/4 479/1/4
f 480/1/4 481/1/4 483/1/4
f 482/1/4 483/1/4 484/1/4
f 483/1/4 481/1/4 485/1/4
f 484/1/4 483/1/4 485/1/4
f 486/1/4 487/1/4 488/1/4
f 488/1/4 487/1/4 489/1/4
f 490/1/4 491/1/4 492/1/4
f 492/1/4 491/1/4 493/1/4
f 494/1/4 495/1/4 496/1/4
f 496/1/4 495/1/4 497/1/4
f 497/1/4 495/1/4 498/1/4
f 498/1/4 495/1/4 499/1/4
f 494/1/4 496/1/4 500/1/4
f 497/1/4 498/1/4 501/1/4
f 501/1/4 498/1/4 502/1/4
f 499/1/4 495/1/4 503/1/4
f 501/1/4 502/1/4 504/1/4
f 502/1/4 503/1/4 504/1/4
f 494/1/4 500/1/4 504/1/4
f 500/1/4 501/1/4 504/1/4
f 504/1/4 503/1/4 505/1/4
f 505/1/4 503/1/4 506/1/4
f 503/1/4 495/1/4 507/1/4
f 506/1/4 503/1/4 507/1/4
f 494/1/4 504/1/4 508/1/4
f 505/1/4 506/1/4 509/1/4
f 509/1/4 506/1/4 510/1/4
f 507/1/4 495/1/4 511/1/4
f 494/1/4 508/1/4 512/1/4
f 510/1/4 511/1/4 512/1/4
f 509/1/4 510/1/4 512/1/4
f 508/1/4 509/1/4 512/1/4
f 511/1/4 495/1/4 513/1/4
f 512/1/4 511/1/4 513/1/4
f 516/1/5 515/1/5 514/1/5
f 517/1/5 515/1/5 516/1/5
f 520/1/5 519/1/5 518/1/5
f 521/1/5 519/1/5 520/1/5
f 524/1/5 523/1/5 522/1/5
f 525/1/5 523/1/5 524/1/5
f 526/1/5 523/1/5 525/1/5
f 527/1/5 523/1/5 526/1/5
f 530/1/5 529/1/5 528/1/5
f 531/1/5 529/1/5 530/1/5
f 534/1/5 533/1/5 532/1/5
f 535/1/5 533/1/5 534/1/5
f 542/1/5 537/1/5 536/1/5
f 543/1/5 537/1/5 542/1/5
f 544/1/5 539/1/5 538/1/5
f 545/1/5 539/1/5 544/1/5
f 546/1/5 541/1/5 540/1/5
f 547/1/5 541/1/5 546/1/5
f 551/1/5 549/1/5 548/1/5
f 552/1/5 549/1/5 551/1/5
f 554/1/5 553/1/5 552/1/5
f 555/1/5 553/1/5 554/1/5
f 556/1/5 551/1/5 550/1/5
f 557/1/5 551/1/5 556/1/5
f 562/1/5 559/1/5 558/1/5
f 563/1/5 559/1/5 562/1/5
f 564/1/5 561/1/5 560/1/5
f 565/1/5 561/1/5 564/1/5
f 566/1/6 567/1/6 568/1/6
f 568/1/6 567/1/6 569/1/6
f 569/1/6 567/1/6 570/1/6
f 570/1/6 567/1/6 571/1/6
f 569/1/6 570/1/6 572/1/6
f 572/1/6 570/1/6 573/1/6
f 574/1/6 575/1/6 576/1/6
f 576/1/6 575/1/6 577/1/6
f 577/1/6 575/1/6 578/1/6
f 578/1/6 575/1/6 579/1/6
f 580/1/6 581/1/6 582/1/6
f 582/1/6 581/1/6 583/1/6
f 584/1/6 585/1/6 586/1/6
f 586/1/6 585/1/6 587/1/6
f 588/1/6 589/1/6 590/1/6
f 590/1/6 589/1/6 591/1/6
f 592/1/6 593/1/6 594/1/6
f 594/1/6 593/1/6 595/1/6
f 592/1/6 594/1/6 596/1/6
f 595/1/6 593/1/6 597/1/6
f 592/1/6 596/1/6 598/1/6
f 596/1/6 597/1/6 598/1/6
f 597/1/6 593/1/6 599/1/6
f 598/1/6 597/1/6 599/1/6
f 600/1/6 601/1/6 602/1/6
f 602/1/6 601/1/6 603/1/6
f 604/1/6 605/1/6 606/1/6
f 606/1/6 605/1/6 607/1/6
f 608/1/6 609/1/6 612/1/6
f 612/1/6 609/1/6 613/1/6
f 610/1/6 611/1/6 614/1/6
f 614/1/6 611/1/6 615/1/6
f 616/1/6 617/1/6 618/1/6
f 618/1/6 617/1/6 619/1/6
f 616/1/6 618/1/6 620/1/6
f 620/1/6 618/1/6 621/1/6
f 616/1/6 620/1/6 622/1/6
f 616/1/6 622/1/6 624/1/6
f 622/1/6 623/1/6 624/1/6
f 624/1/6 623/1/6 625/1/6
f 616/1/6 624/1/6 626/1/6
f 616/1/6 626/1/6 628/1/6
f 626/1/6 627/1/6 628/1/6
f 628/1/6 627/1/6 629/1/6
f 616/1/6 628/1/6 630/1/6
f 619/1/6 617/1/6 631/1/6
f 616/1/6 630/1/6 632/1/6
f 630/1/6 631/1/6 632/1/6
f 632/1/6 631/1/6 633/1/6
f 633/1/6 631/1/6 634/1/6
f 631/1/6 617/1/6 635/1/6
f 634/1/6 631/1/6 635/1/6
f 616/1/6 632/1/6 636/1/6
f 635/1/6 617/1/6 637/1/6
f 616/1/6 636/1/6 638/1/6
f 636/1/6 637/1/6 638/1/6
f 637/1/6 617/1/6 639/1/6
f 638/1/6 637/1/6 639/1/6
f 640/1/6 641/1/6 644/1/6
f 644/1/6 641/1/6 645/1/6
f 642/1/6 643/1/6 646/1/6
f 646/1/6 643/1/6 647/1/6
f 648/1/6 649/1/6 650/1/6
f 650/1/6 649/1/6 651/1/6
f 652/1/6 653/1/6 654/1/6
f 654/1/6 653/1/6 655/1/6
f 656/1/6 657/1/6 658/1/6
f 658/1/6 657/1/6 659/1/6
f 660/1/6 661/1/6 663/1/6
f 663/1/6 661/1/6 664/1/6
f 663/1/6 664/1/6 666/1/6
f 664/1/6 665/1/6 666/1/6
f 662/1/6 663/1/6 666/1/6
f 666/1/6 665/1/6 667/1/6
f 668/1/6 669/1/6 672/1/6
f 672/1/6 669/1/6 673/1/6
f 670/1/6 671/1/6 674/1/6
f 674/1/6 671/1/6 675/1/6
f 676/1/6 677/1/6 678/1/6
f 678/1/6 677/1/6 679/1/6
f 680/1/6 681/1/6 682/1/6
f 682/1/6 681/1/6 683/1/6
f 684/1/6 685/1/6 687/1/6
f 687/1/6 685/1/6 688/1/6
f 688/1/6 685/1/6 689/1/6
f 689/1/6 685/1/6 690/1/6
f 686/1/6 687/1/6 692/1/6
f 687/1/6 688/1/6 692/1/6
f 692/1/6 688/1/6 693/1/6
f 689/1/6 690/1/6 694/1/6
f 690/1/6 691/1/6 694/1/6
f 694/1/6 691/1/6 695/1/6
f 686/1/6 692/1/6 696/1/6
f 695/1/6 691/1/6 697/1/6
f 686/1/6 696/1/6 698/1/6
f 696/1/6 697/1/6 698/1/6
f 697/1/6 691/1/6 699/1/6
f 698/1/6 697/1/6 699/1/6
f 700/1/6 701/1/6 702/1/6
f 702/1/6 701/1/6 703/1/6
f 704/1/6 705/1/6 706/1/6
f 706/1/6 705/1/6 707/1/6
f 708/1/6 709/1/6 710/1/6
f 710/1/6 709/1/6 711/1/6
f 712/1/6 713/1/6 714/1/6
f 714/1/6 713/1/6 715/1/6
f 716/1/6 717/1/6 718/1/6
f 718/1/6 717/1/6 719/1/6
f 720/1/6 721/1/6 722/1/6
f 722/1/6 721/1/6 723/1/6
f 724/1/6 725/1/6 728/1/6
f 726/1/6 727/1/6 729/1/6
f 724/1/6 728/1/6 730/1/6
f 728/1/6 729/1/6 730/1/6
f 729/1/6 727/1/6 731/1/6
f 730/1/6 729/1/6 731/1/6
