# MagicaVoxel @ Ephtracy

# material
mtllib box.mtl
usemtl palette

# normals
vn -1 0 0
vn 1 0 0
vn 0 0 1
vn 0 0 -1
vn 0 -1 0
vn 0 1 0

# texcoords
vt 0.0566406 0.5
vt 0.0605469 0.5

# verts
v -21.5 0 21.5
v -21.5 0 17.5
v -21.5 0 -17.5
v -21.5 0 -21.5
v -21.5 4 17.5
v -21.5 4 -17.5
v -21.5 39 17.5
v -21.5 39 -17.5
v -21.5 43 21.5
v -21.5 43 17.5
v -21.5 43 -17.5
v -21.5 43 -21.5
v -20.5 4 17.5
v -20.5 4 10.5
v -20.5 4 3.5
v -20.5 4 -3.5
v -20.5 4 -10.5
v -20.5 4 -17.5
v -20.5 39 17.5
v -20.5 39 10.5
v -20.5 39 3.5
v -20.5 39 -3.5
v -20.5 39 -10.5
v -20.5 39 -17.5
v 17.5 4 -20.5
v 17.5 4 -21.5
v 17.5 5 21.5
v 17.5 5 20.5
v 17.5 39 21.5
v 17.5 39 20.5
v 17.5 39 -20.5
v 17.5 39 -21.5
v 17.5 42 17.5
v 17.5 42 -17.5
v 17.5 43 17.5
v 17.5 43 -17.5
v -17.5 4 -20.5
v -17.5 4 -21.5
v -17.5 5 21.5
v -17.5 5 20.5
v -17.5 39 21.5
v -17.5 39 20.5
v -17.5 39 -20.5
v -17.5 39 -21.5
v -17.5 42 17.5
v -17.5 42 -17.5
v -17.5 43 17.5
v -17.5 43 -17.5
v 20.5 4 17.5
v 20.5 4 10.5
v 20.5 4 3.5
v 20.5 4 -3.5
v 20.5 4 -10.5
v 20.5 4 -17.5
v 20.5 39 17.5
v 20.5 39 10.5
v 20.5 39 3.5
v 20.5 39 -3.5
v 20.5 39 -10.5
v 20.5 39 -17.5
v 21.5 0 21.5
v 21.5 0 -21.5
v 21.5 4 17.5
v 21.5 4 -17.5
v 21.5 39 17.5
v 21.5 39 -17.5
v 21.5 43 21.5
v 21.5 43 17.5
v 21.5 43 -17.5
v 21.5 43 -21.5
v -21.5 0 21.5
v -21.5 43 21.5
v -17.5 0 21.5
v -17.5 5 21.5
v -17.5 39 21.5
v -17.5 43 21.5
v 17.5 0 21.5
v 17.5 5 21.5
v 17.5 39 21.5
v 17.5 43 21.5
v 21.5 0 21.5
v 21.5 43 21.5
v -17.5 5 20.5
v -17.5 39 20.5
v -10.5 5 20.5
v -10.5 39 20.5
v -3.5 5 20.5
v -3.5 39 20.5
v 3.5 5 20.5
v 3.5 39 20.5
v 10.5 5 20.5
v 10.5 39 20.5
v 17.5 5 20.5
v 17.5 39 20.5
v -21.5 4 -17.5
v -21.5 39 -17.5
v -20.5 4 -17.5
v -20.5 39 -17.5
v -17.5 42 -17.5
v -17.5 43 -17.5
v -10.5 42 -17.5
v -3.5 42 -17.5
v 3.5 42 -17.5
v 10.5 42 -17.5
v 17.5 42 -17.5
v 17.5 43 -17.5
v 20.5 4 -17.5
v 20.5 39 -17.5
v 21.5 4 -17.5
v 21.5 39 -17.5
v -21.5 4 17.5
v -21.5 39 17.5
v -20.5 4 17.5
v -20.5 39 17.5
v -17.5 42 17.5
v -17.5 43 17.5
v -10.5 42 17.5
v -3.5 42 17.5
v 3.5 42 17.5
v 10.5 42 17.5
v 17.5 42 17.5
v 17.5 43 17.5
v 20.5 4 17.5
v 20.5 39 17.5
v 21.5 4 17.5
v 21.5 39 17.5
v -17.5 4 -20.5
v -17.5 39 -20.5
v -10.5 4 -20.5
v -10.5 39 -20.5
v -3.5 4 -20.5
v -3.5 39 -20.5
v 3.5 4 -20.5
v 3.5 39 -20.5
v 10.5 4 -20.5
v 10.5 39 -20.5
v 17.5 4 -20.5
v 17.5 39 -20.5
v -21.5 0 -21.5
v -21.5 43 -21.5
v -17.5 0 -21.5
v -17.5 4 -21.5
v -17.5 39 -21.5
v -17.5 43 -21.5
v 17.5 0 -21.5
v 17.5 4 -21.5
v 17.5 39 -21.5
v 17.5 43 -21.5
v 21.5 0 -21.5
v 21.5 43 -21.5
v -21.5 0 21.5
v -17.5 0 21.5
v 17.5 0 21.5
v 21.5 0 21.5
v -17.5 0 20.5
v 17.5 0 20.5
v -21.5 0 17.5
v -20.5 0 17.5
v -21.5 0 -17.5
v -20.5 0 -17.5
v -17.5 0 -20.5
v 17.5 0 -20.5
v -21.5 0 -21.5
v -17.5 0 -21.5
v 17.5 0 -21.5
v 21.5 0 -21.5
v -17.5 39 21.5
v 17.5 39 21.5
v -17.5 39 20.5
v -10.5 39 20.5
v -3.5 39 20.5
v 3.5 39 20.5
v 10.5 39 20.5
v 17.5 39 20.5
v -21.5 39 17.5
v -20.5 39 17.5
v 20.5 39 17.5
v 21.5 39 17.5
v -20.5 39 10.5
v 20.5 39 10.5
v -20.5 39 3.5
v 20.5 39 3.5
v -20.5 39 -3.5
v 20.5 39 -3.5
v -20.5 39 -10.5
v 20.5 39 -10.5
v -21.5 39 -17.5
v -20.5 39 -17.5
v 20.5 39 -17.5
v 21.5 39 -17.5
v -17.5 39 -20.5
v -10.5 39 -20.5
v -3.5 39 -20.5
v 3.5 39 -20.5
v 10.5 39 -20.5
v 17.5 39 -20.5
v -17.5 39 -21.5
v 17.5 39 -21.5
v -21.5 4 17.5
v -20.5 4 17.5
v 20.5 4 17.5
v 21.5 4 17.5
v -20.5 4 10.5
v 20.5 4 10.5
v -20.5 4 3.5
v 20.5 4 3.5
v -20.5 4 -3.5
v 20.5 4 -3.5
v -20.5 4 -10.5
v 20.5 4 -10.5
v -21.5 4 -17.5
v -20.5 4 -17.5
v 20.5 4 -17.5
v 21.5 4 -17.5
v -17.5 4 -20.5
v -10.5 4 -20.5
v -3.5 4 -20.5
v 3.5 4 -20.5
v 10.5 4 -20.5
v 17.5 4 -20.5
v -17.5 4 -21.5
v 17.5 4 -21.5
v -17.5 5 21.5
v 17.5 5 21.5
v -17.5 5 20.5
v -10.5 5 20.5
v -3.5 5 20.5
v 3.5 5 20.5
v 10.5 5 20.5
v 17.5 5 20.5
v -17.5 42 17.5
v -10.5 42 17.5
v -3.5 42 17.5
v 3.5 42 17.5
v 10.5 42 17.5
v 17.5 42 17.5
v -17.5 42 -17.5
v -10.5 42 -17.5
v -3.5 42 -17.5
v 3.5 42 -17.5
v 10.5 42 -17.5
v 17.5 42 -17.5
v -21.5 43 21.5
v -17.5 43 21.5
v 17.5 43 21.5
v 21.5 43 21.5
v -21.5 43 17.5
v -17.5 43 17.5
v 17.5 43 17.5
v 21.5 43 17.5
v -21.5 43 -17.5
v -17.5 43 -17.5
v 17.5 43 -17.5
v 21.5 43 -17.5
v -21.5 43 -21.5
v -17.5 43 -21.5
v 17.5 43 -21.5
v 21.5 43 -21.5

# faces
f 5/1/1 2/1/1 1/1/1
f 5/2/1 3/2/1 2/2/1
f 6/1/1 4/1/1 3/1/1
f 6/2/1 3/2/1 5/2/1
f 7/1/1 5/1/1 1/1/1
f 8/1/1 4/1/1 6/1/1
f 9/1/1 7/1/1 1/1/1
f 10/2/1 8/2/1 7/2/1
f 10/1/1 7/1/1 9/1/1
f 11/1/1 4/1/1 8/1/1
f 11/2/1 8/2/1 10/2/1
f 12/1/1 4/1/1 11/1/1
f 19/2/1 14/2/1 13/2/1
f 20/1/1 15/1/1 14/1/1
f 20/2/1 14/2/1 19/2/1
f 21/2/1 16/2/1 15/2/1
f 21/1/1 15/1/1 20/1/1
f 22/1/1 17/1/1 16/1/1
f 22/2/1 16/2/1 21/2/1
f 23/2/1 18/2/1 17/2/1
f 23/1/1 17/1/1 22/1/1
f 24/2/1 18/2/1 23/2/1
f 29/1/1 28/1/1 27/1/1
f 30/1/1 28/1/1 29/1/1
f 31/1/1 26/1/1 25/1/1
f 32/1/1 26/1/1 31/1/1
f 35/2/1 34/2/1 33/2/1
f 36/2/1 34/2/1 35/2/1
f 39/1/2 40/1/2 41/1/2
f 41/1/2 40/1/2 42/1/2
f 37/1/2 38/1/2 43/1/2
f 43/1/2 38/1/2 44/1/2
f 45/2/2 46/2/2 47/2/2
f 47/2/2 46/2/2 48/2/2
f 49/2/2 50/2/2 55/2/2
f 50/1/2 51/1/2 56/1/2
f 55/2/2 50/2/2 56/2/2
f 51/2/2 52/2/2 57/2/2
f 56/1/2 51/1/2 57/1/2
f 52/1/2 53/1/2 58/1/2
f 57/2/2 52/2/2 58/2/2
f 53/2/2 54/2/2 59/2/2
f 58/1/2 53/1/2 59/1/2
f 59/2/2 54/2/2 60/2/2
f 61/1/2 62/1/2 63/1/2
f 63/1/2 62/1/2 64/1/2
f 61/1/2 63/1/2 65/1/2
f 64/1/2 62/1/2 66/1/2
f 61/1/2 65/1/2 67/1/2
f 65/2/2 66/2/2 68/2/2
f 67/1/2 65/1/2 68/1/2
f 66/1/2 62/1/2 69/1/2
f 68/2/2 66/2/2 69/2/2
f 69/1/2 62/1/2 70/1/2
f 73/1/3 72/1/3 71/1/3
f 74/1/3 72/1/3 73/1/3
f 75/1/3 72/1/3 74/1/3
f 76/1/3 72/1/3 75/1/3
f 77/2/3 74/2/3 73/2/3
f 78/2/3 74/2/3 77/2/3
f 79/2/3 76/2/3 75/2/3
f 80/2/3 76/2/3 79/2/3
f 81/1/3 78/1/3 77/1/3
f 81/1/3 79/1/3 78/1/3
f 81/1/3 80/1/3 79/1/3
f 82/1/3 80/1/3 81/1/3
f 85/2/3 84/2/3 83/2/3
f 86/2/3 84/2/3 85/2/3
f 87/1/3 86/1/3 85/1/3
f 88/1/3 86/1/3 87/1/3
f 89/2/3 88/2/3 87/2/3
f 90/2/3 88/2/3 89/2/3
f 91/1/3 90/1/3 89/1/3
f 92/1/3 90/1/3 91/1/3
f 93/2/3 92/2/3 91/2/3
f 94/2/3 92/2/3 93/2/3
f 97/1/3 96/1/3 95/1/3
f 98/1/3 96/1/3 97/1/3
f 101/2/3 100/2/3 99/2/3
f 102/2/3 100/2/3 101/2/3
f 103/2/3 100/2/3 102/2/3
f 104/2/3 100/2/3 103/2/3
f 105/2/3 100/2/3 104/2/3
f 106/2/3 100/2/3 105/2/3
f 109/1/3 108/1/3 107/1/3
f 110/1/3 108/1/3 109/1/3
f 111/1/4 112/1/4 113/1/4
f 113/1/4 112/1/4 114/1/4
f 115/2/4 116/2/4 117/2/4
f 117/2/4 116/2/4 118/2/4
f 118/2/4 116/2/4 119/2/4
f 119/2/4 116/2/4 120/2/4
f 120/2/4 116/2/4 121/2/4
f 121/2/4 116/2/4 122/2/4
f 123/1/4 124/1/4 125/1/4
f 125/1/4 124/1/4 126/1/4
f 127/2/4 128/2/4 129/2/4
f 129/2/4 128/2/4 130/2/4
f 129/1/4 130/1/4 131/1/4
f 131/1/4 130/1/4 132/1/4
f 131/2/4 132/2/4 133/2/4
f 133/2/4 132/2/4 134/2/4
f 133/1/4 134/1/4 135/1/4
f 135/1/4 134/1/4 136/1/4
f 135/2/4 136/2/4 137/2/4
f 137/2/4 136/2/4 138/2/4
f 139/1/4 140/1/4 141/1/4
f 141/1/4 140/1/4 142/1/4
f 142/1/4 140/1/4 143/1/4
f 143/1/4 140/1/4 144/1/4
f 141/2/4 142/2/4 145/2/4
f 145/2/4 142/2/4 146/2/4
f 143/2/4 144/2/4 147/2/4
f 147/2/4 144/2/4 148/2/4
f 145/1/4 146/1/4 149/1/4
f 146/1/4 147/1/4 149/1/4
f 147/1/4 148/1/4 149/1/4
f 149/1/4 148/1/4 150/1/4
f 155/1/5 152/1/5 151/1/5
f 155/2/5 153/2/5 152/2/5
f 156/1/5 154/1/5 153/1/5
f 156/2/5 153/2/5 155/2/5
f 157/1/5 155/1/5 151/1/5
f 157/1/5 156/1/5 155/1/5
f 158/1/5 156/1/5 157/1/5
f 159/2/5 158/2/5 157/2/5
f 160/1/5 156/1/5 158/1/5
f 160/2/5 158/2/5 159/2/5
f 161/1/5 160/1/5 159/1/5
f 161/1/5 156/1/5 160/1/5
f 162/1/5 154/1/5 156/1/5
f 162/1/5 156/1/5 161/1/5
f 163/1/5 161/1/5 159/1/5
f 164/2/5 162/2/5 161/2/5
f 164/1/5 161/1/5 163/1/5
f 165/1/5 154/1/5 162/1/5
f 165/2/5 162/2/5 164/2/5
f 166/1/5 154/1/5 165/1/5
f 169/2/5 168/2/5 167/2/5
f 170/2/5 168/2/5 169/2/5
f 171/2/5 168/2/5 170/2/5
f 172/2/5 168/2/5 171/2/5
f 173/2/5 168/2/5 172/2/5
f 174/2/5 168/2/5 173/2/5
f 179/2/5 176/2/5 175/2/5
f 180/2/5 178/2/5 177/2/5
f 181/2/5 179/2/5 175/2/5
f 182/2/5 178/2/5 180/2/5
f 183/2/5 181/2/5 175/2/5
f 184/2/5 178/2/5 182/2/5
f 185/2/5 183/2/5 175/2/5
f 186/2/5 178/2/5 184/2/5
f 187/2/5 185/2/5 175/2/5
f 188/2/5 185/2/5 187/2/5
f 189/2/5 178/2/5 186/2/5
f 190/2/5 178/2/5 189/2/5
f 197/2/5 192/2/5 191/2/5
f 197/2/5 196/2/5 195/2/5
f 197/2/5 195/2/5 194/2/5
f 197/2/5 194/2/5 193/2/5
f 197/2/5 193/2/5 192/2/5
f 198/2/5 196/2/5 197/2/5
f 199/2/6 200/2/6 203/2/6
f 201/1/6 202/1/6 204/1/6
f 199/2/6 203/2/6 205/2/6
f 204/1/6 202/1/6 206/1/6
f 199/2/6 205/2/6 207/2/6
f 206/1/6 202/1/6 208/1/6
f 199/2/6 207/2/6 209/2/6
f 208/1/6 202/1/6 210/1/6
f 199/2/6 209/2/6 211/2/6
f 211/2/6 209/2/6 212/2/6
f 210/1/6 202/1/6 213/1/6
f 213/1/6 202/1/6 214/1/6
f 215/2/6 216/2/6 221/2/6
f 219/2/6 220/2/6 221/2/6
f 218/2/6 219/2/6 221/2/6
f 217/2/6 218/2/6 221/2/6
f 216/2/6 217/2/6 221/2/6
f 221/2/6 220/2/6 222/2/6
f 223/2/6 224/2/6 225/2/6
f 225/2/6 224/2/6 226/2/6
f 226/2/6 224/2/6 227/2/6
f 227/2/6 224/2/6 228/2/6
f 228/2/6 224/2/6 229/2/6
f 229/2/6 224/2/6 230/2/6
f 231/2/6 232/2/6 237/2/6
f 232/1/6 233/1/6 238/1/6
f 237/2/6 232/2/6 238/2/6
f 233/2/6 234/2/6 239/2/6
f 238/1/6 233/1/6 239/1/6
f 234/1/6 235/1/6 240/1/6
f 239/2/6 234/2/6 240/2/6
f 235/2/6 236/2/6 241/2/6
f 240/1/6 235/1/6 241/1/6
f 241/2/6 236/2/6 242/2/6
f 243/1/6 244/1/6 247/1/6
f 244/2/6 245/2/6 248/2/6
f 247/1/6 244/1/6 248/1/6
f 245/1/6 246/1/6 249/1/6
f 248/2/6 245/2/6 249/2/6
f 249/1/6 246/1/6 250/1/6
f 247/2/6 248/2/6 251/2/6
f 251/2/6 248/2/6 252/2/6
f 249/2/6 250/2/6 253/2/6
f 253/2/6 250/2/6 254/2/6
f 251/1/6 252/1/6 255/1/6
f 252/2/6 253/2/6 256/2/6
f 255/1/6 252/1/6 256/1/6
f 253/1/6 254/1/6 257/1/6
f 256/2/6 253/2/6 257/2/6
f 257/1/6 254/1/6 258/1/6
