# MagicaVoxel @ Ephtracy

# material
mtllib crocodile-01.mtl
usemtl palette

# normals
vn -1 0 0
vn 1 0 0
vn 0 0 1
vn 0 0 -1
vn 0 -1 0
vn 0 1 0

# texcoords
vt 0.00195313 0.5
vt 0.0136719 0.5
vt 0.0800781 0.5
vt 0.462891 0.5
vt 0.908203 0.5

# verts
v -40 0 4
v -40 0 -6
v -40 2 4
v -40 2 -6
v -40 5 4
v -40 5 -6
v -30 5 4
v -30 5 -6
v -30 9 4
v -30 9 -6
v -20 0 10
v -20 0 4
v -20 0 -6
v -20 0 -12
v -20 2 10
v -20 2 4
v -20 2 -6
v -20 2 -12
v -20 9 4
v -20 9 -6
v -20 13 10
v -20 13 -12
v -16 0 14
v -16 0 10
v -16 0 -12
v -16 0 -16
v -16 2 10
v -16 2 -12
v -16 5 14
v -16 5 10
v -16 5 -12
v -16 5 -16
v -14 13 10
v -14 13 7
v -14 13 -9
v -14 13 -12
v -14 17 10
v -14 17 7
v -14 17 -9
v -14 17 -12
v 1 13 10
v 1 13 7
v 1 13 -9
v 1 13 -12
v 1 17 10
v 1 17 7
v 1 17 -9
v 1 17 -12
v 10 0 14
v 10 0 10
v 10 0 -12
v 10 0 -16
v 10 2 10
v 10 2 -12
v 10 5 14
v 10 5 10
v 10 5 -12
v 10 5 -16
v 15 13 10
v 15 13 7
v 15 13 -9
v 15 13 -12
v 15 17 10
v 15 17 7
v 15 17 -9
v 15 17 -12
v 23 13 7
v 23 13 -9
v 23 17 10
v 23 17 7
v 23 17 -9
v 23 17 -12
v 23 23 10
v 23 23 -12
v 27 2 8
v 27 2 5
v 27 2 -7
v 27 2 -10
v 27 3 8
v 27 3 5
v 27 3 -7
v 27 3 -10
v 31 2 8
v 31 2 5
v 31 2 -7
v 31 2 -10
v 31 5 8
v 31 5 5
v 31 5 -7
v 31 5 -10
v 35 2 8
v 35 2 5
v 35 2 -7
v 35 2 -10
v 35 5 8
v 35 5 5
v 35 5 -7
v 35 5 -10
v -9 0 14
v -9 0 10
v -9 0 -12
v -9 0 -16
v -9 2 10
v -9 2 -12
v -9 5 14
v -9 5 10
v -9 5 -12
v -9 5 -16
v -4 13 10
v -4 13 7
v -4 13 -9
v -4 13 -12
v -4 17 10
v -4 17 7
v -4 17 -9
v -4 17 -12
v 11 13 10
v 11 13 7
v 11 13 -9
v 11 13 -12
v 11 17 10
v 11 17 7
v 11 17 -9
v 11 17 -12
v 17 0 14
v 17 0 10
v 17 0 -12
v 17 0 -16
v 17 5 14
v 17 5 10
v 17 5 -12
v 17 5 -16
v 23 2 8
v 23 2 -10
v 23 3 8
v 23 3 -10
v 25 6 5
v 25 6 -7
v 25 16 5
v 25 16 -7
v 27 2 10
v 27 2 8
v 27 2 -10
v 27 2 -12
v 27 5 10
v 27 5 8
v 27 5 5
v 27 5 -7
v 27 5 -10
v 27 5 -12
v 27 6 5
v 27 6 -7
v 27 16 5
v 27 16 -7
v 27 18 7
v 27 18 3
v 27 18 -5
v 27 18 -9
v 27 22 7
v 27 22 3
v 27 22 -5
v 27 22 -9
v 27 23 10
v 27 23 -12
v 29 2 8
v 29 2 5
v 29 2 -7
v 29 2 -10
v 29 5 8
v 29 5 5
v 29 5 -7
v 29 5 -10
v 29 18 7
v 29 18 3
v 29 18 -5
v 29 18 -9
v 29 22 7
v 29 22 3
v 29 22 -5
v 29 22 -9
v 33 2 8
v 33 2 5
v 33 2 -7
v 33 2 -10
v 33 5 8
v 33 5 5
v 33 5 -7
v 33 5 -10
v 36 2 5
v 36 2 -7
v 36 5 5
v 36 5 -7
v 36 6 5
v 36 6 -7
v 37 2 8
v 37 2 5
v 37 2 -7
v 37 2 -10
v 37 5 8
v 37 5 5
v 37 5 -7
v 37 5 -10
v 38 0 10
v 38 0 -12
v 38 2 10
v 38 2 -12
v -16 0 14
v -16 5 14
v -9 0 14
v -9 5 14
v 10 0 14
v 10 5 14
v 17 0 14
v 17 5 14
v -20 0 10
v -20 2 10
v -20 13 10
v -16 0 10
v -16 2 10
v -16 5 10
v -14 13 10
v -14 17 10
v -9 0 10
v -9 2 10
v -9 5 10
v -4 13 10
v -4 17 10
v 1 13 10
v 1 17 10
v 10 0 10
v 10 2 10
v 10 5 10
v 11 13 10
v 11 17 10
v 15 13 10
v 15 17 10
v 17 0 10
v 17 5 10
v 18 10 10
v 18 14 10
v 22 10 10
v 22 14 10
v 23 17 10
v 23 23 10
v 27 2 10
v 27 5 10
v 27 23 10
v 38 0 10
v 38 2 10
v 27 2 8
v 27 5 8
v 29 2 8
v 29 5 8
v 31 2 8
v 31 5 8
v 33 2 8
v 33 5 8
v 35 2 8
v 35 5 8
v 37 2 8
v 37 5 8
v 27 18 7
v 27 22 7
v 29 18 7
v 29 22 7
v 27 5 5
v 27 6 5
v 29 2 5
v 29 5 5
v 31 2 5
v 31 5 5
v 33 2 5
v 33 5 5
v 35 2 5
v 35 5 5
v 36 5 5
v 36 6 5
v -40 0 4
v -40 2 4
v -40 5 4
v -30 5 4
v -30 9 4
v -20 0 4
v -20 2 4
v -20 9 4
v 27 18 -5
v 27 22 -5
v 29 18 -5
v 29 22 -5
v 25 6 -7
v 25 16 -7
v 26 6 -7
v 26 16 -7
v 27 6 -7
v 27 16 -7
v 36 2 -7
v 36 5 -7
v 37 2 -7
v 37 5 -7
v -14 13 -9
v -14 17 -9
v -4 13 -9
v -4 17 -9
v 1 13 -9
v 1 17 -9
v 11 13 -9
v 11 17 -9
v 15 13 -9
v 15 17 -9
v 23 13 -9
v 23 17 -9
v 23 2 -10
v 23 3 -10
v 26 3 -10
v 27 2 -10
v 27 3 -10
v 23 2 8
v 23 3 8
v 26 3 8
v 27 2 8
v 27 3 8
v -14 13 7
v -14 17 7
v -4 13 7
v -4 17 7
v 1 13 7
v 1 17 7
v 11 13 7
v 11 17 7
v 15 13 7
v 15 17 7
v 23 13 7
v 23 17 7
v 25 6 5
v 25 16 5
v 26 6 5
v 26 16 5
v 27 6 5
v 27 16 5
v 36 2 5
v 36 5 5
v 37 2 5
v 37 5 5
v 27 18 3
v 27 22 3
v 29 18 3
v 29 22 3
v -40 0 -6
v -40 2 -6
v -40 5 -6
v -30 5 -6
v -30 9 -6
v -20 0 -6
v -20 2 -6
v -20 9 -6
v 27 5 -7
v 27 6 -7
v 29 2 -7
v 29 5 -7
v 31 2 -7
v 31 5 -7
v 33 2 -7
v 33 5 -7
v 35 2 -7
v 35 5 -7
v 36 5 -7
v 36 6 -7
v 27 18 -9
v 27 22 -9
v 29 18 -9
v 29 22 -9
v 27 2 -10
v 27 5 -10
v 29 2 -10
v 29 5 -10
v 31 2 -10
v 31 5 -10
v 33 2 -10
v 33 5 -10
v 35 2 -10
v 35 5 -10
v 37 2 -10
v 37 5 -10
v -20 0 -12
v -20 2 -12
v -20 13 -12
v -16 0 -12
v -16 2 -12
v -16 5 -12
v -14 13 -12
v -14 17 -12
v -9 0 -12
v -9 2 -12
v -9 5 -12
v -4 13 -12
v -4 17 -12
v 1 13 -12
v 1 17 -12
v 10 0 -12
v 10 2 -12
v 10 5 -12
v 11 13 -12
v 11 17 -12
v 15 13 -12
v 15 17 -12
v 17 0 -12
v 17 5 -12
v 18 9 -12
v 18 13 -12
v 22 9 -12
v 22 13 -12
v 23 17 -12
v 23 23 -12
v 27 2 -12
v 27 5 -12
v 27 23 -12
v 38 0 -12
v 38 2 -12
v -16 0 -16
v -16 5 -16
v -9 0 -16
v -9 5 -16
v 10 0 -16
v 10 5 -16
v 17 0 -16
v 17 5 -16
v -16 0 14
v -9 0 14
v 10 0 14
v 17 0 14
v -20 0 10
v -16 0 10
v -9 0 10
v 10 0 10
v 17 0 10
v 38 0 10
v -9 0 9
v 10 0 9
v 17 0 9
v 26 0 9
v 26 0 8
v 37 0 8
v -40 0 4
v -20 0 4
v -16 0 4
v -21 0 3
v -20 0 3
v -21 0 -5
v -19 0 -5
v -40 0 -6
v -20 0 -6
v -19 0 -11
v -16 0 -11
v -9 0 -11
v 10 0 -11
v 17 0 -11
v 37 0 -11
v -20 0 -12
v -16 0 -12
v -9 0 -12
v 10 0 -12
v 17 0 -12
v 38 0 -12
v -16 0 -16
v -9 0 -16
v 10 0 -16
v 17 0 -16
v 23 3 8
v 26 3 8
v 27 3 8
v 26 3 5
v 27 3 5
v 26 3 -7
v 27 3 -7
v 23 3 -10
v 26 3 -10
v 27 3 -10
v 25 16 5
v 26 16 5
v 27 16 5
v 25 16 -7
v 26 16 -7
v 27 16 -7
v 27 18 7
v 29 18 7
v 27 18 3
v 29 18 3
v 27 18 -5
v 29 18 -5
v 27 18 -9
v 29 18 -9
v 27 2 10
v 38 2 10
v 23 2 8
v 27 2 8
v 29 2 8
v 31 2 8
v 33 2 8
v 35 2 8
v 37 2 8
v 27 2 5
v 29 2 5
v 31 2 5
v 33 2 5
v 35 2 5
v 36 2 5
v 37 2 5
v 27 2 -7
v 29 2 -7
v 31 2 -7
v 33 2 -7
v 35 2 -7
v 36 2 -7
v 37 2 -7
v 23 2 -10
v 27 2 -10
v 29 2 -10
v 31 2 -10
v 33 2 -10
v 35 2 -10
v 37 2 -10
v 27 2 -12
v 38 2 -12
v -16 5 14
v -9 5 14
v 10 5 14
v 17 5 14
v -16 5 10
v -9 5 10
v 10 5 10
v 17 5 10
v 27 5 8
v 29 5 8
v 31 5 8
v 33 5 8
v 35 5 8
v 37 5 8
v 27 5 5
v 29 5 5
v 31 5 5
v 33 5 5
v 35 5 5
v 36 5 5
v 37 5 5
v -40 5 4
v -30 5 4
v -40 5 -6
v -30 5 -6
v 27 5 -7
v 29 5 -7
v 31 5 -7
v 33 5 -7
v 35 5 -7
v 36 5 -7
v 37 5 -7
v 27 5 -10
v 29 5 -10
v 31 5 -10
v 33 5 -10
v 35 5 -10
v 37 5 -10
v -16 5 -12
v -9 5 -12
v 10 5 -12
v 17 5 -12
v -16 5 -16
v -9 5 -16
v 10 5 -16
v 17 5 -16
v 25 6 5
v 26 6 5
v 27 6 5
v 36 6 5
v 25 6 -7
v 26 6 -7
v 27 6 -7
v 36 6 -7
v -30 9 4
v -20 9 4
v -30 9 -6
v -20 9 -6
v -20 13 10
v -14 13 10
v -4 13 10
v 1 13 10
v 11 13 10
v 15 13 10
v -14 13 7
v -4 13 7
v 1 13 7
v 11 13 7
v 15 13 7
v 23 13 7
v -14 13 -9
v -4 13 -9
v 1 13 -9
v 11 13 -9
v 15 13 -9
v 23 13 -9
v -20 13 -12
v -14 13 -12
v -4 13 -12
v 1 13 -12
v 11 13 -12
v 15 13 -12
v -14 17 10
v -4 17 10
v 1 17 10
v 11 17 10
v 15 17 10
v 23 17 10
v -14 17 7
v -4 17 7
v 1 17 7
v 11 17 7
v 15 17 7
v 23 17 7
v -14 17 -9
v -4 17 -9
v 1 17 -9
v 11 17 -9
v 15 17 -9
v 23 17 -9
v -14 17 -12
v -4 17 -12
v 1 17 -12
v 11 17 -12
v 15 17 -12
v 23 17 -12
v 27 22 7
v 29 22 7
v 27 22 3
v 29 22 3
v 27 22 -5
v 29 22 -5
v 27 22 -9
v 29 22 -9
v 23 23 10
v 27 23 10
v 23 23 -12
v 27 23 -12

# faces
f 3/2/1 2/2/1 1/2/1
f 4/2/1 2/2/1 3/2/1
f 5/4/1 4/4/1 3/4/1
f 6/4/1 4/4/1 5/4/1
f 9/4/1 8/4/1 7/4/1
f 10/4/1 8/4/1 9/4/1
f 15/2/1 12/2/1 11/2/1
f 16/2/1 12/2/1 15/2/1
f 17/2/1 14/2/1 13/2/1
f 18/2/1 14/2/1 17/2/1
f 19/4/1 16/4/1 15/4/1
f 20/4/1 18/4/1 17/4/1
f 21/4/1 19/4/1 15/4/1
f 21/4/1 20/4/1 19/4/1
f 22/4/1 18/4/1 20/4/1
f 22/4/1 20/4/1 21/4/1
f 27/4/1 24/4/1 23/4/1
f 28/4/1 26/4/1 25/4/1
f 29/4/1 27/4/1 23/4/1
f 30/4/1 27/4/1 29/4/1
f 31/4/1 26/4/1 28/4/1
f 32/4/1 26/4/1 31/4/1
f 37/4/1 34/4/1 33/4/1
f 38/4/1 34/4/1 37/4/1
f 39/4/1 36/4/1 35/4/1
f 40/4/1 36/4/1 39/4/1
f 45/4/1 42/4/1 41/4/1
f 46/4/1 42/4/1 45/4/1
f 47/4/1 44/4/1 43/4/1
f 48/4/1 44/4/1 47/4/1
f 53/4/1 50/4/1 49/4/1
f 54/4/1 52/4/1 51/4/1
f 55/4/1 53/4/1 49/4/1
f 56/4/1 53/4/1 55/4/1
f 57/4/1 52/4/1 54/4/1
f 58/4/1 52/4/1 57/4/1
f 63/4/1 60/4/1 59/4/1
f 64/4/1 60/4/1 63/4/1
f 65/4/1 62/4/1 61/4/1
f 66/4/1 62/4/1 65/4/1
f 70/4/1 68/4/1 67/4/1
f 71/4/1 68/4/1 70/4/1
f 73/4/1 70/4/1 69/4/1
f 73/4/1 72/4/1 71/4/1
f 73/4/1 71/4/1 70/4/1
f 74/4/1 72/4/1 73/4/1
f 79/1/1 76/1/1 75/1/1
f 80/3/1 77/3/1 76/3/1
f 80/1/1 76/1/1 79/1/1
f 81/1/1 78/1/1 77/1/1
f 81/3/1 77/3/1 80/3/1
f 82/1/1 78/1/1 81/1/1
f 87/1/1 84/1/1 83/1/1
f 88/1/1 84/1/1 87/1/1
f 89/1/1 86/1/1 85/1/1
f 90/1/1 86/1/1 89/1/1
f 95/1/1 92/1/1 91/1/1
f 96/1/1 92/1/1 95/1/1
f 97/1/1 94/1/1 93/1/1
f 98/1/1 94/1/1 97/1/1
f 99/4/2 100/4/2 103/4/2
f 101/4/2 102/4/2 104/4/2
f 99/4/2 103/4/2 105/4/2
f 105/4/2 103/4/2 106/4/2
f 104/4/2 102/4/2 107/4/2
f 107/4/2 102/4/2 108/4/2
f 109/4/2 110/4/2 113/4/2
f 113/4/2 110/4/2 114/4/2
f 111/4/2 112/4/2 115/4/2
f 115/4/2 112/4/2 116/4/2
f 117/4/2 118/4/2 121/4/2
f 121/4/2 118/4/2 122/4/2
f 119/4/2 120/4/2 123/4/2
f 123/4/2 120/4/2 124/4/2
f 125/4/2 126/4/2 129/4/2
f 129/4/2 126/4/2 130/4/2
f 127/4/2 128/4/2 131/4/2
f 131/4/2 128/4/2 132/4/2
f 133/4/2 134/4/2 135/4/2
f 135/4/2 134/4/2 136/4/2
f 137/5/2 138/5/2 139/5/2
f 139/5/2 138/5/2 140/5/2
f 141/2/2 142/2/2 145/2/2
f 145/2/2 142/2/2 146/2/2
f 143/2/2 144/2/2 149/2/2
f 149/2/2 144/2/2 150/2/2
f 146/4/2 147/4/2 151/4/2
f 145/4/2 146/4/2 151/4/2
f 149/4/2 150/4/2 152/4/2
f 148/4/2 149/4/2 152/4/2
f 145/4/2 151/4/2 153/4/2
f 152/4/2 150/4/2 154/4/2
f 145/4/2 153/4/2 155/4/2
f 153/4/2 154/4/2 155/4/2
f 155/4/2 154/4/2 156/4/2
f 156/4/2 154/4/2 157/4/2
f 154/4/2 150/4/2 158/4/2
f 157/4/2 154/4/2 158/4/2
f 145/4/2 155/4/2 159/4/2
f 156/4/2 157/4/2 160/4/2
f 160/4/2 157/4/2 161/4/2
f 158/4/2 150/4/2 162/4/2
f 145/4/2 159/4/2 163/4/2
f 161/4/2 162/4/2 163/4/2
f 160/4/2 161/4/2 163/4/2
f 159/4/2 160/4/2 163/4/2
f 162/4/2 150/4/2 164/4/2
f 163/4/2 162/4/2 164/4/2
f 165/1/2 166/1/2 169/1/2
f 169/1/2 166/1/2 170/1/2
f 167/1/2 168/1/2 171/1/2
f 171/1/2 168/1/2 172/1/2
f 173/1/2 174/1/2 177/1/2
f 177/1/2 174/1/2 178/1/2
f 175/1/2 176/1/2 179/1/2
f 179/1/2 176/1/2 180/1/2
f 181/1/2 182/1/2 185/1/2
f 185/1/2 182/1/2 186/1/2
f 183/1/2 184/1/2 187/1/2
f 187/1/2 184/1/2 188/1/2
f 189/3/2 190/3/2 191/3/2
f 191/3/2 190/3/2 192/3/2
f 191/3/2 192/3/2 193/3/2
f 193/3/2 192/3/2 194/3/2
f 195/1/2 196/1/2 199/1/2
f 199/1/2 196/1/2 200/1/2
f 197/1/2 198/1/2 201/1/2
f 201/1/2 198/1/2 202/1/2
f 203/2/2 204/2/2 205/2/2
f 205/2/2 204/2/2 206/2/2
f 209/4/3 208/4/3 207/4/3
f 210/4/3 208/4/3 209/4/3
f 213/4/3 212/4/3 211/4/3
f 214/4/3 212/4/3 213/4/3
f 218/2/3 216/2/3 215/2/3
f 219/4/3 217/4/3 216/4/3
f 219/2/3 216/2/3 218/2/3
f 220/4/3 217/4/3 219/4/3
f 221/4/3 217/4/3 220/4/3
f 225/4/3 221/4/3 220/4/3
f 225/4/3 222/4/3 221/4/3
f 226/4/3 222/4/3 225/4/3
f 226/4/3 225/4/3 224/4/3
f 227/4/3 222/4/3 226/4/3
f 228/4/3 226/4/3 224/4/3
f 230/2/3 224/2/3 223/2/3
f 231/4/3 229/4/3 228/4/3
f 231/2/3 224/2/3 230/2/3
f 231/4/3 228/4/3 224/4/3
f 232/4/3 229/4/3 231/4/3
f 233/4/3 229/4/3 232/4/3
f 234/4/3 229/4/3 233/4/3
f 235/4/3 233/4/3 232/4/3
f 238/4/3 235/4/3 232/4/3
f 238/4/3 236/4/3 235/4/3
f 239/4/3 236/4/3 238/4/3
f 240/4/3 236/4/3 239/4/3
f 241/4/3 239/4/3 238/4/3
f 241/5/3 240/5/3 239/5/3
f 242/4/3 236/4/3 240/4/3
f 242/5/3 240/5/3 241/5/3
f 243/4/3 242/4/3 241/4/3
f 243/4/3 236/4/3 242/4/3
f 245/2/3 238/2/3 237/2/3
f 246/4/3 243/4/3 241/4/3
f 246/2/3 238/2/3 245/2/3
f 246/4/3 241/4/3 238/4/3
f 246/4/3 244/4/3 243/4/3
f 247/4/3 244/4/3 246/4/3
f 248/2/3 245/2/3 237/2/3
f 249/2/3 245/2/3 248/2/3
f 252/1/3 251/1/3 250/1/3
f 253/1/3 251/1/3 252/1/3
f 256/1/3 255/1/3 254/1/3
f 257/1/3 255/1/3 256/1/3
f 260/1/3 259/1/3 258/1/3
f 261/1/3 259/1/3 260/1/3
f 264/1/3 263/1/3 262/1/3
f 265/1/3 263/1/3 264/1/3
f 269/3/3 267/3/3 266/3/3
f 270/3/3 269/3/3 268/3/3
f 271/3/3 267/3/3 269/3/3
f 271/3/3 269/3/3 270/3/3
f 273/3/3 267/3/3 271/3/3
f 274/3/3 273/3/3 272/3/3
f 275/3/3 267/3/3 273/3/3
f 275/3/3 273/3/3 274/3/3
f 276/3/3 267/3/3 275/3/3
f 277/3/3 267/3/3 276/3/3
f 281/4/3 280/4/3 279/4/3
f 283/2/3 279/2/3 278/2/3
f 284/4/3 282/4/3 281/4/3
f 284/2/3 279/2/3 283/2/3
f 284/4/3 281/4/3 279/4/3
f 285/4/3 282/4/3 284/4/3
f 288/1/3 287/1/3 286/1/3
f 289/1/3 287/1/3 288/1/3
f 292/5/3 291/5/3 290/5/3
f 293/5/3 291/5/3 292/5/3
f 294/4/3 293/4/3 292/4/3
f 295/4/3 293/4/3 294/4/3
f 298/1/3 297/1/3 296/1/3
f 299/1/3 297/1/3 298/1/3
f 302/4/3 301/4/3 300/4/3
f 303/4/3 301/4/3 302/4/3
f 306/4/3 305/4/3 304/4/3
f 307/4/3 305/4/3 306/4/3
f 310/4/3 309/4/3 308/4/3
f 311/4/3 309/4/3 310/4/3
f 314/2/3 313/2/3 312/2/3
f 315/2/3 314/2/3 312/2/3
f 316/2/3 314/2/3 315/2/3
f 317/2/4 318/2/4 319/2/4
f 317/2/4 319/2/4 320/2/4
f 320/2/4 319/2/4 321/2/4
f 322/4/4 323/4/4 324/4/4
f 324/4/4 323/4/4 325/4/4
f 326/4/4 327/4/4 328/4/4
f 328/4/4 327/4/4 329/4/4
f 330/4/4 331/4/4 332/4/4
f 332/4/4 331/4/4 333/4/4
f 334/5/4 335/5/4 336/5/4
f 336/5/4 335/5/4 337/5/4
f 336/4/4 337/4/4 338/4/4
f 338/4/4 337/4/4 339/4/4
f 340/1/4 341/1/4 342/1/4
f 342/1/4 341/1/4 343/1/4
f 344/1/4 345/1/4 346/1/4
f 346/1/4 345/1/4 347/1/4
f 349/4/4 350/4/4 351/4/4
f 348/2/4 349/2/4 353/2/4
f 351/4/4 352/4/4 354/4/4
f 353/2/4 349/2/4 354/2/4
f 349/4/4 351/4/4 354/4/4
f 354/4/4 352/4/4 355/4/4
f 356/3/4 357/3/4 359/3/4
f 358/3/4 359/3/4 360/3/4
f 359/3/4 357/3/4 361/3/4
f 360/3/4 359/3/4 361/3/4
f 361/3/4 357/3/4 363/3/4
f 362/3/4 363/3/4 364/3/4
f 363/3/4 357/3/4 365/3/4
f 364/3/4 363/3/4 365/3/4
f 365/3/4 357/3/4 366/3/4
f 366/3/4 357/3/4 367/3/4
f 368/1/4 369/1/4 370/1/4
f 370/1/4 369/1/4 371/1/4
f 372/1/4 373/1/4 374/1/4
f 374/1/4 373/1/4 375/1/4
f 376/1/4 377/1/4 378/1/4
f 378/1/4 377/1/4 379/1/4
f 380/1/4 381/1/4 382/1/4
f 382/1/4 381/1/4 383/1/4
f 384/2/4 385/2/4 387/2/4
f 385/4/4 386/4/4 388/4/4
f 387/2/4 385/2/4 388/2/4
f 388/4/4 386/4/4 389/4/4
f 389/4/4 386/4/4 390/4/4
f 389/4/4 390/4/4 394/4/4
f 390/4/4 391/4/4 394/4/4
f 394/4/4 391/4/4 395/4/4
f 393/4/4 394/4/4 395/4/4
f 395/4/4 391/4/4 396/4/4
f 393/4/4 395/4/4 397/4/4
f 392/2/4 393/2/4 399/2/4
f 397/4/4 398/4/4 400/4/4
f 399/2/4 393/2/4 400/2/4
f 393/4/4 397/4/4 400/4/4
f 400/4/4 398/4/4 401/4/4
f 401/4/4 398/4/4 402/4/4
f 402/4/4 398/4/4 403/4/4
f 401/4/4 402/4/4 404/4/4
f 401/4/4 404/4/4 407/4/4
f 404/4/4 405/4/4 407/4/4
f 407/4/4 405/4/4 408/4/4
f 408/4/4 405/4/4 409/4/4
f 407/4/4 408/4/4 410/4/4
f 408/5/4 409/5/4 410/5/4
f 409/4/4 405/4/4 411/4/4
f 410/5/4 409/5/4 411/5/4
f 410/4/4 411/4/4 412/4/4
f 411/4/4 405/4/4 412/4/4
f 406/2/4 407/2/4 414/2/4
f 410/4/4 412/4/4 415/4/4
f 414/2/4 407/2/4 415/2/4
f 407/4/4 410/4/4 415/4/4
f 412/4/4 413/4/4 415/4/4
f 415/4/4 413/4/4 416/4/4
f 406/2/4 414/2/4 417/2/4
f 417/2/4 414/2/4 418/2/4
f 419/4/4 420/4/4 421/4/4
f 421/4/4 420/4/4 422/4/4
f 423/4/4 424/4/4 425/4/4
f 425/4/4 424/4/4 426/4/4
f 432/4/5 428/4/5 427/4/5
f 433/4/5 428/4/5 432/4/5
f 434/4/5 430/4/5 429/4/5
f 435/4/5 430/4/5 434/4/5
f 437/4/5 433/4/5 432/4/5
f 437/2/5 434/2/5 433/2/5
f 438/4/5 435/4/5 434/4/5
f 438/2/5 434/2/5 437/2/5
f 439/2/5 436/2/5 435/2/5
f 439/4/5 435/4/5 438/4/5
f 440/2/5 436/2/5 439/2/5
f 441/4/5 438/4/5 437/4/5
f 441/2/5 436/2/5 440/2/5
f 441/4/5 440/4/5 439/4/5
f 441/4/5 439/4/5 438/4/5
f 442/2/5 436/2/5 441/2/5
f 444/2/5 432/2/5 431/2/5
f 445/4/5 437/4/5 432/4/5
f 445/4/5 441/4/5 437/4/5
f 445/2/5 432/2/5 444/2/5
f 445/4/5 442/4/5 441/4/5
f 446/2/5 444/2/5 443/2/5
f 447/4/5 445/4/5 444/4/5
f 447/2/5 444/2/5 446/2/5
f 448/2/5 446/2/5 443/2/5
f 448/4/5 447/4/5 446/4/5
f 449/4/5 445/4/5 447/4/5
f 449/4/5 447/4/5 448/4/5
f 450/2/5 448/2/5 443/2/5
f 450/2/5 449/2/5 448/2/5
f 451/2/5 449/2/5 450/2/5
f 452/4/5 445/4/5 449/4/5
f 452/2/5 449/2/5 451/2/5
f 453/4/5 442/4/5 445/4/5
f 453/4/5 445/4/5 452/4/5
f 454/4/5 442/4/5 453/4/5
f 455/4/5 442/4/5 454/4/5
f 456/4/5 442/4/5 455/4/5
f 457/2/5 436/2/5 442/2/5
f 457/4/5 442/4/5 456/4/5
f 458/2/5 452/2/5 451/2/5
f 458/2/5 453/2/5 452/2/5
f 459/4/5 454/4/5 453/4/5
f 459/2/5 453/2/5 458/2/5
f 460/2/5 455/2/5 454/2/5
f 460/4/5 454/4/5 459/4/5
f 461/4/5 456/4/5 455/4/5
f 461/2/5 455/2/5 460/2/5
f 462/2/5 457/2/5 456/2/5
f 462/4/5 456/4/5 461/4/5
f 463/2/5 436/2/5 457/2/5
f 463/2/5 457/2/5 462/2/5
f 464/4/5 460/4/5 459/4/5
f 465/4/5 460/4/5 464/4/5
f 466/4/5 462/4/5 461/4/5
f 467/4/5 462/4/5 466/4/5
f 471/4/5 469/4/5 468/4/5
f 471/1/5 470/1/5 469/1/5
f 472/1/5 470/1/5 471/1/5
f 473/4/5 471/4/5 468/4/5
f 473/3/5 472/3/5 471/3/5
f 474/3/5 472/3/5 473/3/5
f 475/4/5 473/4/5 468/4/5
f 476/1/5 474/1/5 473/1/5
f 476/4/5 473/4/5 475/4/5
f 477/1/5 474/1/5 476/1/5
f 481/4/5 479/4/5 478/4/5
f 481/4/5 480/4/5 479/4/5
f 482/4/5 480/4/5 481/4/5
f 483/4/5 480/4/5 482/4/5
f 486/1/5 485/1/5 484/1/5
f 487/1/5 485/1/5 486/1/5
f 490/1/5 489/1/5 488/1/5
f 491/1/5 489/1/5 490/1/5
f 492/2/6 493/2/6 495/2/6
f 495/2/6 493/2/6 496/2/6
f 496/2/6 493/2/6 497/2/6
f 497/2/6 493/2/6 498/2/6
f 498/2/6 493/2/6 499/2/6
f 499/2/6 493/2/6 500/2/6
f 494/4/6 495/4/6 501/4/6
f 496/2/6 497/2/6 502/2/6
f 502/2/6 497/2/6 503/2/6
f 498/2/6 499/2/6 504/2/6
f 504/2/6 499/2/6 505/2/6
f 500/2/6 493/2/6 507/2/6
f 494/4/6 501/4/6 508/4/6
f 506/2/6 507/2/6 513/2/6
f 507/2/6 493/2/6 514/2/6
f 513/2/6 507/2/6 514/2/6
f 494/4/6 508/4/6 515/4/6
f 515/4/6 508/4/6 516/4/6
f 509/2/6 510/2/6 517/2/6
f 517/2/6 510/2/6 518/2/6
f 511/2/6 512/2/6 519/2/6
f 519/2/6 512/2/6 520/2/6
f 514/2/6 493/2/6 521/2/6
f 517/2/6 518/2/6 522/2/6
f 520/2/6 521/2/6 522/2/6
f 519/2/6 520/2/6 522/2/6
f 518/2/6 519/2/6 522/2/6
f 516/2/6 517/2/6 522/2/6
f 521/2/6 493/2/6 523/2/6
f 522/2/6 521/2/6 523/2/6
f 524/4/6 525/4/6 528/4/6
f 528/4/6 525/4/6 529/4/6
f 526/4/6 527/4/6 530/4/6
f 530/4/6 527/4/6 531/4/6
f 532/1/6 533/1/6 538/1/6
f 538/1/6 533/1/6 539/1/6
f 534/1/6 535/1/6 540/1/6
f 540/1/6 535/1/6 541/1/6
f 536/1/6 537/1/6 542/1/6
f 542/1/6 537/1/6 543/1/6
f 543/1/6 537/1/6 544/1/6
f 545/4/6 546/4/6 547/4/6
f 547/4/6 546/4/6 548/4/6
f 549/1/6 550/1/6 556/1/6
f 556/1/6 550/1/6 557/1/6
f 551/1/6 552/1/6 558/1/6
f 558/1/6 552/1/6 559/1/6
f 554/1/6 555/1/6 560/1/6
f 553/1/6 554/1/6 560/1/6
f 560/1/6 555/1/6 561/1/6
f 562/4/6 563/4/6 566/4/6
f 566/4/6 563/4/6 567/4/6
f 564/4/6 565/4/6 568/4/6
f 568/4/6 565/4/6 569/4/6
f 570/5/6 571/5/6 574/5/6
f 572/3/6 573/3/6 575/3/6
f 574/5/6 571/5/6 575/5/6
f 571/3/6 572/3/6 575/3/6
f 575/3/6 573/3/6 576/3/6
f 576/3/6 573/3/6 577/3/6
f 578/4/6 579/4/6 580/4/6
f 580/4/6 579/4/6 581/4/6
f 582/4/6 583/4/6 588/4/6
f 584/4/6 585/4/6 589/4/6
f 589/4/6 585/4/6 590/4/6
f 586/4/6 587/4/6 591/4/6
f 591/4/6 587/4/6 592/4/6
f 589/4/6 590/4/6 594/4/6
f 592/4/6 593/4/6 594/4/6
f 591/4/6 592/4/6 594/4/6
f 590/4/6 591/4/6 594/4/6
f 582/4/6 588/4/6 594/4/6
f 588/4/6 589/4/6 594/4/6
f 594/4/6 593/4/6 595/4/6
f 595/4/6 593/4/6 596/4/6
f 596/4/6 593/4/6 597/4/6
f 597/4/6 593/4/6 598/4/6
f 598/4/6 593/4/6 599/4/6
f 582/4/6 594/4/6 600/4/6
f 600/4/6 594/4/6 601/4/6
f 595/4/6 596/4/6 602/4/6
f 602/4/6 596/4/6 603/4/6
f 597/4/6 598/4/6 604/4/6
f 604/4/6 598/4/6 605/4/6
f 606/4/6 607/4/6 612/4/6
f 612/4/6 607/4/6 613/4/6
f 608/4/6 609/4/6 614/4/6
f 614/4/6 609/4/6 615/4/6
f 610/4/6 611/4/6 616/4/6
f 616/4/6 611/4/6 617/4/6
f 618/4/6 619/4/6 624/4/6
f 624/4/6 619/4/6 625/4/6
f 620/4/6 621/4/6 626/4/6
f 626/4/6 621/4/6 627/4/6
f 622/4/6 623/4/6 628/4/6
f 628/4/6 623/4/6 629/4/6
f 630/1/6 631/1/6 632/1/6
f 632/1/6 631/1/6 633/1/6
f 634/1/6 635/1/6 636/1/6
f 636/1/6 635/1/6 637/1/6
f 638/4/6 639/4/6 640/4/6
f 640/4/6 639/4/6 641/4/6
