# MagicaVoxel @ Ephtracy

# material
mtllib cubierta_2.mtl
usemtl palette

# normals
vn -1 0 0
vn 1 0 0
vn 0 0 1
vn 0 0 -1
vn 0 -1 0
vn 0 1 0

# texcoords
vt 0.181641 0.5
vt 0.216797 0.5
vt 0.306641 0.5
vt 0.966797 0.5
vt 0.994141 0.5

# verts
v -1 0 1
v -1 0 -16
v -1 0 -18
v -1 1 1
v -1 1 -16
v -1 2 1
v -1 2 -16
v -1 3 -16
v -1 3 -18
v 2 1 -0
v 2 1 -2
v 2 1 -4
v 2 1 -6
v 2 1 -8
v 2 1 -10
v 2 1 -12
v 2 1 -14
v 2 2 -0
v 2 2 -2
v 2 2 -4
v 2 2 -6
v 2 2 -8
v 2 2 -10
v 2 2 -12
v 2 2 -14
v 6 1 -0
v 6 1 -2
v 6 1 -4
v 6 1 -6
v 6 1 -8
v 6 1 -10
v 6 1 -12
v 6 1 -14
v 6 2 -0
v 6 2 -2
v 6 2 -4
v 6 2 -6
v 6 2 -8
v 6 2 -10
v 6 2 -12
v 6 2 -14
v 10 1 -0
v 10 1 -2
v 10 1 -4
v 10 1 -6
v 10 1 -8
v 10 1 -10
v 10 1 -12
v 10 1 -14
v 10 2 -0
v 10 2 -2
v 10 2 -4
v 10 2 -6
v 10 2 -8
v 10 2 -10
v 10 2 -12
v 10 2 -14
v 14 1 -0
v 14 1 -2
v 14 1 -4
v 14 1 -6
v 14 1 -8
v 14 1 -10
v 14 1 -12
v 14 1 -14
v 14 2 -0
v 14 2 -2
v 14 2 -4
v 14 2 -6
v 14 2 -8
v 14 2 -10
v 14 2 -12
v 14 2 -14
v 16 2 1
v 16 2 -16
v 16 3 1
v 16 3 -16
v 17 3 1
v 17 3 -0
v 17 4 1
v 17 4 -0
v 0 1 -0
v 0 1 -2
v 0 1 -4
v 0 1 -6
v 0 1 -8
v 0 1 -10
v 0 1 -12
v 0 1 -14
v 0 2 -0
v 0 2 -2
v 0 2 -4
v 0 2 -6
v 0 2 -8
v 0 2 -10
v 0 2 -12
v 0 2 -14
v 4 1 -0
v 4 1 -2
v 4 1 -4
v 4 1 -6
v 4 1 -8
v 4 1 -10
v 4 1 -12
v 4 1 -14
v 4 2 -0
v 4 2 -2
v 4 2 -4
v 4 2 -6
v 4 2 -8
v 4 2 -10
v 4 2 -12
v 4 2 -14
v 8 1 -0
v 8 1 -2
v 8 1 -4
v 8 1 -6
v 8 1 -8
v 8 1 -10
v 8 1 -12
v 8 1 -14
v 8 2 -0
v 8 2 -2
v 8 2 -4
v 8 2 -6
v 8 2 -8
v 8 2 -10
v 8 2 -12
v 8 2 -14
v 12 1 -0
v 12 1 -2
v 12 1 -4
v 12 1 -6
v 12 1 -8
v 12 1 -10
v 12 1 -12
v 12 1 -14
v 12 2 -0
v 12 2 -2
v 12 2 -4
v 12 2 -6
v 12 2 -8
v 12 2 -10
v 12 2 -12
v 12 2 -14
v 18 0 1
v 18 0 -18
v 18 3 1
v 18 3 -0
v 18 3 -18
v 18 4 1
v 18 4 -0
v -1 0 1
v -1 1 1
v -1 2 1
v 15 0 1
v 15 1 1
v 16 0 1
v 16 1 1
v 16 2 1
v 16 3 1
v 17 3 1
v 17 4 1
v 18 0 1
v 18 3 1
v 18 4 1
v 0 1 -2
v 0 2 -2
v 2 1 -2
v 2 2 -2
v 4 1 -2
v 4 2 -2
v 6 1 -2
v 6 2 -2
v 8 1 -2
v 8 2 -2
v 10 1 -2
v 10 2 -2
v 12 1 -2
v 12 2 -2
v 14 1 -2
v 14 2 -2
v 0 1 -6
v 0 2 -6
v 2 1 -6
v 2 2 -6
v 4 1 -6
v 4 2 -6
v 6 1 -6
v 6 2 -6
v 8 1 -6
v 8 2 -6
v 10 1 -6
v 10 2 -6
v 12 1 -6
v 12 2 -6
v 14 1 -6
v 14 2 -6
v 0 1 -10
v 0 2 -10
v 2 1 -10
v 2 2 -10
v 4 1 -10
v 4 2 -10
v 6 1 -10
v 6 2 -10
v 8 1 -10
v 8 2 -10
v 10 1 -10
v 10 2 -10
v 12 1 -10
v 12 2 -10
v 14 1 -10
v 14 2 -10
v 0 1 -14
v 0 2 -14
v 2 1 -14
v 2 2 -14
v 4 1 -14
v 4 2 -14
v 6 1 -14
v 6 2 -14
v 8 1 -14
v 8 2 -14
v 10 1 -14
v 10 2 -14
v 12 1 -14
v 12 2 -14
v 14 1 -14
v 14 2 -14
v -1 2 -16
v -1 3 -16
v 16 2 -16
v 16 3 -16
v 0 1 -0
v 0 2 -0
v 2 1 -0
v 2 2 -0
v 4 1 -0
v 4 2 -0
v 6 1 -0
v 6 2 -0
v 8 1 -0
v 8 2 -0
v 10 1 -0
v 10 2 -0
v 12 1 -0
v 12 2 -0
v 14 1 -0
v 14 2 -0
v 17 3 -0
v 17 4 -0
v 18 3 -0
v 18 4 -0
v 0 1 -4
v 0 2 -4
v 2 1 -4
v 2 2 -4
v 4 1 -4
v 4 2 -4
v 6 1 -4
v 6 2 -4
v 8 1 -4
v 8 2 -4
v 10 1 -4
v 10 2 -4
v 12 1 -4
v 12 2 -4
v 14 1 -4
v 14 2 -4
v 0 1 -8
v 0 2 -8
v 2 1 -8
v 2 2 -8
v 4 1 -8
v 4 2 -8
v 6 1 -8
v 6 2 -8
v 8 1 -8
v 8 2 -8
v 10 1 -8
v 10 2 -8
v 12 1 -8
v 12 2 -8
v 14 1 -8
v 14 2 -8
v 0 1 -12
v 0 2 -12
v 2 1 -12
v 2 2 -12
v 4 1 -12
v 4 2 -12
v 6 1 -12
v 6 2 -12
v 8 1 -12
v 8 2 -12
v 10 1 -12
v 10 2 -12
v 12 1 -12
v 12 2 -12
v 14 1 -12
v 14 2 -12
v -1 0 -18
v -1 3 -18
v 18 0 -18
v 18 3 -18
v -1 0 1
v 15 0 1
v 16 0 1
v 18 0 1
v 0 0 -0
v 2 0 -0
v 4 0 -0
v 6 0 -0
v 8 0 -0
v 10 0 -0
v 12 0 -0
v 14 0 -0
v 0 0 -2
v 2 0 -2
v 4 0 -2
v 6 0 -2
v 8 0 -2
v 10 0 -2
v 12 0 -2
v 14 0 -2
v 0 0 -4
v 2 0 -4
v 4 0 -4
v 6 0 -4
v 8 0 -4
v 10 0 -4
v 12 0 -4
v 14 0 -4
v 0 0 -6
v 2 0 -6
v 4 0 -6
v 6 0 -6
v 8 0 -6
v 10 0 -6
v 12 0 -6
v 14 0 -6
v 0 0 -8
v 2 0 -8
v 4 0 -8
v 6 0 -8
v 8 0 -8
v 10 0 -8
v 12 0 -8
v 14 0 -8
v 0 0 -10
v 2 0 -10
v 4 0 -10
v 6 0 -10
v 8 0 -10
v 10 0 -10
v 12 0 -10
v 14 0 -10
v 0 0 -12
v 2 0 -12
v 4 0 -12
v 6 0 -12
v 8 0 -12
v 10 0 -12
v 12 0 -12
v 14 0 -12
v 0 0 -14
v 2 0 -14
v 4 0 -14
v 6 0 -14
v 8 0 -14
v 10 0 -14
v 12 0 -14
v 14 0 -14
v -1 0 -16
v 15 0 -16
v 16 0 -16
v -1 0 -18
v 18 0 -18
v 0 1 -0
v 2 1 -0
v 4 1 -0
v 6 1 -0
v 8 1 -0
v 10 1 -0
v 12 1 -0
v 14 1 -0
v 0 1 -2
v 2 1 -2
v 4 1 -2
v 6 1 -2
v 8 1 -2
v 10 1 -2
v 12 1 -2
v 14 1 -2
v 0 1 -4
v 2 1 -4
v 4 1 -4
v 6 1 -4
v 8 1 -4
v 10 1 -4
v 12 1 -4
v 14 1 -4
v 0 1 -6
v 2 1 -6
v 4 1 -6
v 6 1 -6
v 8 1 -6
v 10 1 -6
v 12 1 -6
v 14 1 -6
v 0 1 -8
v 2 1 -8
v 4 1 -8
v 6 1 -8
v 8 1 -8
v 10 1 -8
v 12 1 -8
v 14 1 -8
v 0 1 -10
v 2 1 -10
v 4 1 -10
v 6 1 -10
v 8 1 -10
v 10 1 -10
v 12 1 -10
v 14 1 -10
v 0 1 -12
v 2 1 -12
v 4 1 -12
v 6 1 -12
v 8 1 -12
v 10 1 -12
v 12 1 -12
v 14 1 -12
v 0 1 -14
v 2 1 -14
v 4 1 -14
v 6 1 -14
v 8 1 -14
v 10 1 -14
v 12 1 -14
v 14 1 -14
v -1 2 1
v 16 2 1
v 0 2 -0
v 2 2 -0
v 4 2 -0
v 6 2 -0
v 8 2 -0
v 10 2 -0
v 12 2 -0
v 14 2 -0
v 0 2 -2
v 2 2 -2
v 4 2 -2
v 6 2 -2
v 8 2 -2
v 10 2 -2
v 12 2 -2
v 14 2 -2
v 0 2 -4
v 2 2 -4
v 4 2 -4
v 6 2 -4
v 8 2 -4
v 10 2 -4
v 12 2 -4
v 14 2 -4
v 0 2 -6
v 2 2 -6
v 4 2 -6
v 6 2 -6
v 8 2 -6
v 10 2 -6
v 12 2 -6
v 14 2 -6
v 0 2 -8
v 2 2 -8
v 4 2 -8
v 6 2 -8
v 8 2 -8
v 10 2 -8
v 12 2 -8
v 14 2 -8
v 0 2 -10
v 2 2 -10
v 4 2 -10
v 6 2 -10
v 8 2 -10
v 10 2 -10
v 12 2 -10
v 14 2 -10
v 0 2 -12
v 2 2 -12
v 4 2 -12
v 6 2 -12
v 8 2 -12
v 10 2 -12
v 12 2 -12
v 14 2 -12
v 0 2 -14
v 2 2 -14
v 4 2 -14
v 6 2 -14
v 8 2 -14
v 10 2 -14
v 12 2 -14
v 14 2 -14
v -1 2 -16
v 16 2 -16
v 16 3 1
v 17 3 1
v 17 3 -0
v 18 3 -0
v -1 3 -16
v 16 3 -16
v -1 3 -18
v 18 3 -18
v 17 4 1
v 18 4 1
v 17 4 -0
v 18 4 -0

# faces
f 4/3/1 2/3/1 1/3/1
f 5/1/1 3/1/1 2/1/1
f 5/3/1 2/3/1 4/3/1
f 6/4/1 5/4/1 4/4/1
f 7/1/1 3/1/1 5/1/1
f 7/4/1 5/4/1 6/4/1
f 8/1/1 3/1/1 7/1/1
f 9/1/1 3/1/1 8/1/1
f 18/4/1 11/4/1 10/4/1
f 19/4/1 11/4/1 18/4/1
f 20/4/1 13/4/1 12/4/1
f 21/4/1 13/4/1 20/4/1
f 22/4/1 15/4/1 14/4/1
f 23/4/1 15/4/1 22/4/1
f 24/4/1 17/4/1 16/4/1
f 25/4/1 17/4/1 24/4/1
f 34/4/1 27/4/1 26/4/1
f 35/4/1 27/4/1 34/4/1
f 36/4/1 29/4/1 28/4/1
f 37/4/1 29/4/1 36/4/1
f 38/4/1 31/4/1 30/4/1
f 39/4/1 31/4/1 38/4/1
f 40/4/1 33/4/1 32/4/1
f 41/4/1 33/4/1 40/4/1
f 50/4/1 43/4/1 42/4/1
f 51/4/1 43/4/1 50/4/1
f 52/4/1 45/4/1 44/4/1
f 53/4/1 45/4/1 52/4/1
f 54/4/1 47/4/1 46/4/1
f 55/4/1 47/4/1 54/4/1
f 56/4/1 49/4/1 48/4/1
f 57/4/1 49/4/1 56/4/1
f 66/4/1 59/4/1 58/4/1
f 67/4/1 59/4/1 66/4/1
f 68/4/1 61/4/1 60/4/1
f 69/4/1 61/4/1 68/4/1
f 70/4/1 63/4/1 62/4/1
f 71/4/1 63/4/1 70/4/1
f 72/4/1 65/4/1 64/4/1
f 73/4/1 65/4/1 72/4/1
f 76/1/1 75/1/1 74/1/1
f 77/1/1 75/1/1 76/1/1
f 80/3/1 79/3/1 78/3/1
f 81/3/1 79/3/1 80/3/1
f 82/4/2 83/4/2 90/4/2
f 90/4/2 83/4/2 91/4/2
f 84/4/2 85/4/2 92/4/2
f 92/4/2 85/4/2 93/4/2
f 86/4/2 87/4/2 94/4/2
f 94/4/2 87/4/2 95/4/2
f 88/4/2 89/4/2 96/4/2
f 96/4/2 89/4/2 97/4/2
f 98/4/2 99/4/2 106/4/2
f 106/4/2 99/4/2 107/4/2
f 100/4/2 101/4/2 108/4/2
f 108/4/2 101/4/2 109/4/2
f 102/4/2 103/4/2 110/4/2
f 110/4/2 103/4/2 111/4/2
f 104/4/2 105/4/2 112/4/2
f 112/4/2 105/4/2 113/4/2
f 114/4/2 115/4/2 122/4/2
f 122/4/2 115/4/2 123/4/2
f 116/4/2 117/4/2 124/4/2
f 124/4/2 117/4/2 125/4/2
f 118/4/2 119/4/2 126/4/2
f 126/4/2 119/4/2 127/4/2
f 120/4/2 121/4/2 128/4/2
f 128/4/2 121/4/2 129/4/2
f 130/4/2 131/4/2 138/4/2
f 138/4/2 131/4/2 139/4/2
f 132/4/2 133/4/2 140/4/2
f 140/4/2 133/4/2 141/4/2
f 134/4/2 135/4/2 142/4/2
f 142/4/2 135/4/2 143/4/2
f 136/4/2 137/4/2 144/4/2
f 144/4/2 137/4/2 145/4/2
f 146/1/2 147/1/2 148/1/2
f 148/1/2 147/1/2 149/1/2
f 149/1/2 147/1/2 150/1/2
f 148/3/2 149/3/2 151/3/2
f 151/3/2 149/3/2 152/3/2
f 156/3/3 154/3/3 153/3/3
f 157/4/3 155/4/3 154/4/3
f 157/3/3 154/3/3 156/3/3
f 158/2/3 157/2/3 156/2/3
f 159/4/3 155/4/3 157/4/3
f 159/2/3 157/2/3 158/2/3
f 160/4/3 155/4/3 159/4/3
f 162/1/3 159/1/3 158/1/3
f 162/1/3 161/1/3 160/1/3
f 162/1/3 160/1/3 159/1/3
f 164/1/3 162/1/3 158/1/3
f 165/3/3 163/3/3 162/3/3
f 165/1/3 162/1/3 164/1/3
f 166/3/3 163/3/3 165/3/3
f 169/4/3 168/4/3 167/4/3
f 170/4/3 168/4/3 169/4/3
f 173/4/3 172/4/3 171/4/3
f 174/4/3 172/4/3 173/4/3
f 177/4/3 176/4/3 175/4/3
f 178/4/3 176/4/3 177/4/3
f 181/4/3 180/4/3 179/4/3
f 182/4/3 180/4/3 181/4/3
f 185/4/3 184/4/3 183/4/3
f 186/4/3 184/4/3 185/4/3
f 189/4/3 188/4/3 187/4/3
f 190/4/3 188/4/3 189/4/3
f 193/4/3 192/4/3 191/4/3
f 194/4/3 192/4/3 193/4/3
f 197/4/3 196/4/3 195/4/3
f 198/4/3 196/4/3 197/4/3
f 201/4/3 200/4/3 199/4/3
f 202/4/3 200/4/3 201/4/3
f 205/4/3 204/4/3 203/4/3
f 206/4/3 204/4/3 205/4/3
f 209/4/3 208/4/3 207/4/3
f 210/4/3 208/4/3 209/4/3
f 213/4/3 212/4/3 211/4/3
f 214/4/3 212/4/3 213/4/3
f 217/4/3 216/4/3 215/4/3
f 218/4/3 216/4/3 217/4/3
f 221/4/3 220/4/3 219/4/3
f 222/4/3 220/4/3 221/4/3
f 225/4/3 224/4/3 223/4/3
f 226/4/3 224/4/3 225/4/3
f 229/4/3 228/4/3 227/4/3
f 230/4/3 228/4/3 229/4/3
f 233/1/3 232/1/3 231/1/3
f 234/1/3 232/1/3 233/1/3
f 235/4/4 236/4/4 237/4/4
f 237/4/4 236/4/4 238/4/4
f 239/4/4 240/4/4 241/4/4
f 241/4/4 240/4/4 242/4/4
f 243/4/4 244/4/4 245/4/4
f 245/4/4 244/4/4 246/4/4
f 247/4/4 248/4/4 249/4/4
f 249/4/4 248/4/4 250/4/4
f 251/3/4 252/3/4 253/3/4
f 253/3/4 252/3/4 254/3/4
f 255/4/4 256/4/4 257/4/4
f 257/4/4 256/4/4 258/4/4
f 259/4/4 260/4/4 261/4/4
f 261/4/4 260/4/4 262/4/4
f 263/4/4 264/4/4 265/4/4
f 265/4/4 264/4/4 266/4/4
f 267/4/4 268/4/4 269/4/4
f 269/4/4 268/4/4 270/4/4
f 271/4/4 272/4/4 273/4/4
f 273/4/4 272/4/4 274/4/4
f 275/4/4 276/4/4 277/4/4
f 277/4/4 276/4/4 278/4/4
f 279/4/4 280/4/4 281/4/4
f 281/4/4 280/4/4 282/4/4
f 283/4/4 284/4/4 285/4/4
f 285/4/4 284/4/4 286/4/4
f 287/4/4 288/4/4 289/4/4
f 289/4/4 288/4/4 290/4/4
f 291/4/4 292/4/4 293/4/4
f 293/4/4 292/4/4 294/4/4
f 295/4/4 296/4/4 297/4/4
f 297/4/4 296/4/4 298/4/4
f 299/4/4 300/4/4 301/4/4
f 301/4/4 300/4/4 302/4/4
f 303/1/4 304/1/4 305/1/4
f 305/1/4 304/1/4 306/1/4
f 311/3/5 308/3/5 307/3/5
f 312/3/5 308/3/5 311/3/5
f 313/3/5 308/3/5 312/3/5
f 314/3/5 308/3/5 313/3/5
f 315/3/5 308/3/5 314/3/5
f 316/3/5 308/3/5 315/3/5
f 317/3/5 308/3/5 316/3/5
f 318/3/5 308/3/5 317/3/5
f 319/3/5 311/3/5 307/3/5
f 319/5/5 312/5/5 311/5/5
f 320/3/5 313/3/5 312/3/5
f 320/5/5 312/5/5 319/5/5
f 321/5/5 314/5/5 313/5/5
f 321/3/5 313/3/5 320/3/5
f 322/3/5 315/3/5 314/3/5
f 322/5/5 314/5/5 321/5/5
f 323/5/5 316/5/5 315/5/5
f 323/3/5 315/3/5 322/3/5
f 324/3/5 317/3/5 316/3/5
f 324/5/5 316/5/5 323/5/5
f 325/5/5 318/5/5 317/5/5
f 325/3/5 317/3/5 324/3/5
f 326/3/5 308/3/5 318/3/5
f 326/5/5 318/5/5 325/5/5
f 327/3/5 325/3/5 324/3/5
f 327/3/5 324/3/5 323/3/5
f 327/3/5 326/3/5 325/3/5
f 327/3/5 323/3/5 322/3/5
f 327/3/5 322/3/5 321/3/5
f 327/3/5 321/3/5 320/3/5
f 327/3/5 320/3/5 319/3/5
f 327/3/5 319/3/5 307/3/5
f 328/3/5 326/3/5 327/3/5
f 329/3/5 326/3/5 328/3/5
f 330/3/5 326/3/5 329/3/5
f 331/3/5 326/3/5 330/3/5
f 332/3/5 326/3/5 331/3/5
f 333/3/5 326/3/5 332/3/5
f 334/3/5 308/3/5 326/3/5
f 334/3/5 326/3/5 333/3/5
f 335/3/5 327/3/5 307/3/5
f 335/5/5 328/5/5 327/5/5
f 336/3/5 329/3/5 328/3/5
f 336/5/5 328/5/5 335/5/5
f 337/5/5 330/5/5 329/5/5
f 337/3/5 329/3/5 336/3/5
f 338/3/5 331/3/5 330/3/5
f 338/5/5 330/5/5 337/5/5
f 339/5/5 332/5/5 331/5/5
f 339/3/5 331/3/5 338/3/5
f 340/3/5 333/3/5 332/3/5
f 340/5/5 332/5/5 339/5/5
f 341/5/5 334/5/5 333/5/5
f 341/3/5 333/3/5 340/3/5
f 342/3/5 308/3/5 334/3/5
f 342/5/5 334/5/5 341/5/5
f 343/3/5 339/3/5 338/3/5
f 343/3/5 341/3/5 340/3/5
f 343/3/5 342/3/5 341/3/5
f 343/3/5 338/3/5 337/3/5
f 343/3/5 337/3/5 336/3/5
f 343/3/5 336/3/5 335/3/5
f 343/3/5 335/3/5 307/3/5
f 343/3/5 340/3/5 339/3/5
f 344/3/5 342/3/5 343/3/5
f 345/3/5 342/3/5 344/3/5
f 346/3/5 342/3/5 345/3/5
f 347/3/5 342/3/5 346/3/5
f 348/3/5 342/3/5 347/3/5
f 349/3/5 342/3/5 348/3/5
f 350/3/5 308/3/5 342/3/5
f 350/3/5 342/3/5 349/3/5
f 351/3/5 343/3/5 307/3/5
f 351/5/5 344/5/5 343/5/5
f 352/3/5 345/3/5 344/3/5
f 352/5/5 344/5/5 351/5/5
f 353/5/5 346/5/5 345/5/5
f 353/3/5 345/3/5 352/3/5
f 354/3/5 347/3/5 346/3/5
f 354/5/5 346/5/5 353/5/5
f 355/5/5 348/5/5 347/5/5
f 355/3/5 347/3/5 354/3/5
f 356/3/5 349/3/5 348/3/5
f 356/5/5 348/5/5 355/5/5
f 357/5/5 350/5/5 349/5/5
f 357/3/5 349/3/5 356/3/5
f 358/3/5 308/3/5 350/3/5
f 358/5/5 350/5/5 357/5/5
f 359/3/5 355/3/5 354/3/5
f 359/3/5 357/3/5 356/3/5
f 359/3/5 358/3/5 357/3/5
f 359/3/5 354/3/5 353/3/5
f 359/3/5 353/3/5 352/3/5
f 359/3/5 352/3/5 351/3/5
f 359/3/5 351/3/5 307/3/5
f 359/3/5 356/3/5 355/3/5
f 360/3/5 358/3/5 359/3/5
f 361/3/5 358/3/5 360/3/5
f 362/3/5 358/3/5 361/3/5
f 363/3/5 358/3/5 362/3/5
f 364/3/5 358/3/5 363/3/5
f 365/3/5 358/3/5 364/3/5
f 366/3/5 308/3/5 358/3/5
f 366/3/5 358/3/5 365/3/5
f 367/3/5 359/3/5 307/3/5
f 367/5/5 360/5/5 359/5/5
f 368/3/5 361/3/5 360/3/5
f 368/5/5 360/5/5 367/5/5
f 369/5/5 362/5/5 361/5/5
f 369/3/5 361/3/5 368/3/5
f 370/3/5 363/3/5 362/3/5
f 370/5/5 362/5/5 369/5/5
f 371/5/5 364/5/5 363/5/5
f 371/3/5 363/3/5 370/3/5
f 372/3/5 365/3/5 364/3/5
f 372/5/5 364/5/5 371/5/5
f 373/5/5 366/5/5 365/5/5
f 373/3/5 365/3/5 372/3/5
f 374/3/5 308/3/5 366/3/5
f 374/5/5 366/5/5 373/5/5
f 375/3/5 371/3/5 370/3/5
f 375/3/5 373/3/5 372/3/5
f 375/3/5 374/3/5 373/3/5
f 375/3/5 370/3/5 369/3/5
f 375/3/5 369/3/5 368/3/5
f 375/3/5 368/3/5 367/3/5
f 375/3/5 367/3/5 307/3/5
f 375/3/5 372/3/5 371/3/5
f 376/2/5 309/2/5 308/2/5
f 376/3/5 374/3/5 375/3/5
f 376/3/5 308/3/5 374/3/5
f 377/1/5 310/1/5 309/1/5
f 377/2/5 309/2/5 376/2/5
f 378/1/5 376/1/5 375/1/5
f 378/1/5 377/1/5 376/1/5
f 379/1/5 310/1/5 377/1/5
f 379/1/5 377/1/5 378/1/5
f 380/5/6 381/5/6 388/5/6
f 388/5/6 381/5/6 389/5/6
f 382/5/6 383/5/6 390/5/6
f 390/5/6 383/5/6 391/5/6
f 384/5/6 385/5/6 392/5/6
f 392/5/6 385/5/6 393/5/6
f 386/5/6 387/5/6 394/5/6
f 394/5/6 387/5/6 395/5/6
f 396/5/6 397/5/6 404/5/6
f 404/5/6 397/5/6 405/5/6
f 398/5/6 399/5/6 406/5/6
f 406/5/6 399/5/6 407/5/6
f 400/5/6 401/5/6 408/5/6
f 408/5/6 401/5/6 409/5/6
f 402/5/6 403/5/6 410/5/6
f 410/5/6 403/5/6 411/5/6
f 412/5/6 413/5/6 420/5/6
f 420/5/6 413/5/6 421/5/6
f 414/5/6 415/5/6 422/5/6
f 422/5/6 415/5/6 423/5/6
f 416/5/6 417/5/6 424/5/6
f 424/5/6 417/5/6 425/5/6
f 418/5/6 419/5/6 426/5/6
f 426/5/6 419/5/6 427/5/6
f 428/5/6 429/5/6 436/5/6
f 436/5/6 429/5/6 437/5/6
f 430/5/6 431/5/6 438/5/6
f 438/5/6 431/5/6 439/5/6
f 432/5/6 433/5/6 440/5/6
f 440/5/6 433/5/6 441/5/6
f 434/5/6 435/5/6 442/5/6
f 442/5/6 435/5/6 443/5/6
f 444/4/6 445/4/6 446/4/6
f 446/4/6 445/4/6 447/4/6
f 447/4/6 445/4/6 448/4/6
f 448/4/6 445/4/6 449/4/6
f 449/4/6 445/4/6 450/4/6
f 450/4/6 445/4/6 451/4/6
f 451/4/6 445/4/6 452/4/6
f 452/4/6 445/4/6 453/4/6
f 444/4/6 446/4/6 454/4/6
f 447/4/6 448/4/6 455/4/6
f 455/4/6 448/4/6 456/4/6
f 449/4/6 450/4/6 457/4/6
f 457/4/6 450/4/6 458/4/6
f 451/4/6 452/4/6 459/4/6
f 459/4/6 452/4/6 460/4/6
f 453/4/6 445/4/6 461/4/6
f 459/4/6 460/4/6 462/4/6
f 460/4/6 461/4/6 462/4/6
f 457/4/6 458/4/6 462/4/6
f 444/4/6 454/4/6 462/4/6
f 458/4/6 459/4/6 462/4/6
f 455/4/6 456/4/6 462/4/6
f 456/4/6 457/4/6 462/4/6
f 454/4/6 455/4/6 462/4/6
f 462/4/6 461/4/6 463/4/6
f 463/4/6 461/4/6 464/4/6
f 464/4/6 461/4/6 465/4/6
f 465/4/6 461/4/6 466/4/6
f 466/4/6 461/4/6 467/4/6
f 467/4/6 461/4/6 468/4/6
f 461/4/6 445/4/6 469/4/6
f 468/4/6 461/4/6 469/4/6
f 444/4/6 462/4/6 470/4/6
f 463/4/6 464/4/6 471/4/6
f 471/4/6 464/4/6 472/4/6
f 465/4/6 466/4/6 473/4/6
f 473/4/6 466/4/6 474/4/6
f 467/4/6 468/4/6 475/4/6
f 475/4/6 468/4/6 476/4/6
f 469/4/6 445/4/6 477/4/6
f 473/4/6 474/4/6 478/4/6
f 476/4/6 477/4/6 478/4/6
f 475/4/6 476/4/6 478/4/6
f 471/4/6 472/4/6 478/4/6
f 474/4/6 475/4/6 478/4/6
f 444/4/6 470/4/6 478/4/6
f 472/4/6 473/4/6 478/4/6
f 470/4/6 471/4/6 478/4/6
f 478/4/6 477/4/6 479/4/6
f 479/4/6 477/4/6 480/4/6
f 480/4/6 477/4/6 481/4/6
f 481/4/6 477/4/6 482/4/6
f 482/4/6 477/4/6 483/4/6
f 483/4/6 477/4/6 484/4/6
f 477/4/6 445/4/6 485/4/6
f 484/4/6 477/4/6 485/4/6
f 444/4/6 478/4/6 486/4/6
f 479/4/6 480/4/6 487/4/6
f 487/4/6 480/4/6 488/4/6
f 481/4/6 482/4/6 489/4/6
f 489/4/6 482/4/6 490/4/6
f 483/4/6 484/4/6 491/4/6
f 491/4/6 484/4/6 492/4/6
f 485/4/6 445/4/6 493/4/6
f 489/4/6 490/4/6 494/4/6
f 492/4/6 493/4/6 494/4/6
f 491/4/6 492/4/6 494/4/6
f 487/4/6 488/4/6 494/4/6
f 490/4/6 491/4/6 494/4/6
f 444/4/6 486/4/6 494/4/6
f 488/4/6 489/4/6 494/4/6
f 486/4/6 487/4/6 494/4/6
f 494/4/6 493/4/6 495/4/6
f 495/4/6 493/4/6 496/4/6
f 496/4/6 493/4/6 497/4/6
f 497/4/6 493/4/6 498/4/6
f 498/4/6 493/4/6 499/4/6
f 499/4/6 493/4/6 500/4/6
f 493/4/6 445/4/6 501/4/6
f 500/4/6 493/4/6 501/4/6
f 444/4/6 494/4/6 502/4/6
f 495/4/6 496/4/6 503/4/6
f 503/4/6 496/4/6 504/4/6
f 497/4/6 498/4/6 505/4/6
f 505/4/6 498/4/6 506/4/6
f 499/4/6 500/4/6 507/4/6
f 507/4/6 500/4/6 508/4/6
f 501/4/6 445/4/6 509/4/6
f 505/4/6 506/4/6 510/4/6
f 508/4/6 509/4/6 510/4/6
f 507/4/6 508/4/6 510/4/6
f 503/4/6 504/4/6 510/4/6
f 506/4/6 507/4/6 510/4/6
f 444/4/6 502/4/6 510/4/6
f 504/4/6 505/4/6 510/4/6
f 502/4/6 503/4/6 510/4/6
f 509/4/6 445/4/6 511/4/6
f 510/4/6 509/4/6 511/4/6
f 512/1/6 513/1/6 514/1/6
f 512/1/6 514/1/6 517/1/6
f 514/1/6 515/1/6 517/1/6
f 516/1/6 517/1/6 518/1/6
f 517/1/6 515/1/6 519/1/6
f 518/1/6 517/1/6 519/1/6
f 520/3/6 521/3/6 522/3/6
f 522/3/6 521/3/6 523/3/6
