# MagicaVoxel @ Ephtracy

# material
mtllib cubierta_2_open.mtl
usemtl palette

# normals
vn -1 0 0
vn 1 0 0
vn 0 0 1
vn 0 0 -1
vn 0 -1 0
vn 0 1 0

# texcoords
vt 0.0644531 0.5
vt 0.306641 0.5
vt 0.396484 0.5
vt 0.994141 0.5

# verts
v -19 1 18
v -19 1 -20
v -19 4 18
v -19 4 -20
v -17 2 -18
v -17 2 -19
v -17 3 -18
v -17 3 -19
v 17 2 16
v 17 2 -18
v 17 4 16
v 17 4 -18
v 18 4 1
v 18 4 -2
v 18 5 1
v 18 5 -2
v -18 2 -18
v -18 2 -19
v -18 3 -18
v -18 3 -19
v -17 2 16
v -17 2 -18
v -17 4 16
v -17 4 -18
v 19 1 18
v 19 1 -20
v 19 4 18
v 19 4 1
v 19 4 -2
v 19 4 -20
v 19 5 1
v 19 5 -2
v -19 1 18
v -19 4 18
v 19 1 18
v 19 4 18
v 18 4 1
v 18 5 1
v 19 4 1
v 19 5 1
v -17 2 -18
v -17 4 -18
v 17 2 -18
v 17 4 -18
v -18 2 -19
v -18 3 -19
v -17 2 -19
v -17 3 -19
v -17 2 16
v -17 4 16
v 17 2 16
v 17 4 16
v 18 4 -2
v 18 5 -2
v 19 4 -2
v 19 5 -2
v -18 2 -18
v -18 3 -18
v -17 2 -18
v -17 3 -18
v -19 1 -20
v -19 4 -20
v 19 1 -20
v 19 4 -20
v -19 1 18
v 19 1 18
v -17 1 16
v 17 1 16
v -17 1 -18
v 17 1 -18
v -19 1 -20
v 19 1 -20
v -18 3 -18
v -17 3 -18
v -18 3 -19
v -17 3 -19
v -17 2 16
v 17 2 16
v -18 2 -18
v -17 2 -18
v 17 2 -18
v -18 2 -19
v -17 2 -19
v -19 4 18
v 19 4 18
v -17 4 16
v 17 4 16
v 18 4 1
v 19 4 1
v 18 4 -2
v 19 4 -2
v -17 4 -18
v 17 4 -18
v -19 4 -20
v 19 4 -20
v 18 5 1
v 19 5 1
v 18 5 -2
v 19 5 -2

# faces
f 3/3/1 2/3/1 1/3/1
f 4/3/1 2/3/1 3/3/1
f 7/3/1 6/3/1 5/3/1
f 8/3/1 6/3/1 7/3/1
f 11/3/1 10/3/1 9/3/1
f 12/3/1 10/3/1 11/3/1
f 15/1/1 14/1/1 13/1/1
f 16/1/1 14/1/1 15/1/1
f 17/3/2 18/3/2 19/3/2
f 19/3/2 18/3/2 20/3/2
f 21/3/2 22/3/2 23/3/2
f 23/3/2 22/3/2 24/3/2
f 25/3/2 26/3/2 27/3/2
f 27/3/2 26/3/2 28/3/2
f 28/3/2 26/3/2 29/3/2
f 29/3/2 26/3/2 30/3/2
f 28/1/2 29/1/2 31/1/2
f 31/1/2 29/1/2 32/1/2
f 35/3/3 34/3/3 33/3/3
f 36/3/3 34/3/3 35/3/3
f 39/1/3 38/1/3 37/1/3
f 40/1/3 38/1/3 39/1/3
f 43/3/3 42/3/3 41/3/3
f 44/3/3 42/3/3 43/3/3
f 47/3/3 46/3/3 45/3/3
f 48/3/3 46/3/3 47/3/3
f 49/3/4 50/3/4 51/3/4
f 51/3/4 50/3/4 52/3/4
f 53/1/4 54/1/4 55/1/4
f 55/1/4 54/1/4 56/1/4
f 57/3/4 58/3/4 59/3/4
f 59/3/4 58/3/4 60/3/4
f 61/3/4 62/3/4 63/3/4
f 63/3/4 62/3/4 64/3/4
f 67/3/5 66/3/5 65/3/5
f 68/3/5 66/3/5 67/3/5
f 69/3/5 67/3/5 65/3/5
f 69/4/5 68/4/5 67/4/5
f 70/3/5 66/3/5 68/3/5
f 70/4/5 68/4/5 69/4/5
f 71/3/5 69/3/5 65/3/5
f 71/3/5 70/3/5 69/3/5
f 72/3/5 66/3/5 70/3/5
f 72/3/5 70/3/5 71/3/5
f 75/3/5 74/3/5 73/3/5
f 76/3/5 74/3/5 75/3/5
f 77/4/6 78/4/6 80/4/6
f 80/4/6 78/4/6 81/4/6
f 79/3/6 80/3/6 82/3/6
f 82/3/6 80/3/6 83/3/6
f 84/3/6 85/3/6 86/3/6
f 86/3/6 85/3/6 87/3/6
f 87/3/6 85/3/6 88/3/6
f 88/3/6 85/3/6 89/3/6
f 87/3/6 88/3/6 90/3/6
f 84/3/6 86/3/6 92/3/6
f 90/3/6 91/3/6 93/3/6
f 87/3/6 90/3/6 93/3/6
f 84/3/6 92/3/6 94/3/6
f 92/3/6 93/3/6 94/3/6
f 93/3/6 91/3/6 95/3/6
f 94/3/6 93/3/6 95/3/6
f 96/1/6 97/1/6 98/1/6
f 98/1/6 97/1/6 99/1/6
