# MagicaVoxel @ Ephtracy

# material
mtllib floor_4.mtl
usemtl palette

# normals
vn -1 0 0
vn 1 0 0
vn 0 0 1
vn 0 0 -1
vn 0 -1 0
vn 0 1 0

# texcoords
vt 0.294922 0.5
vt 0.298828 0.5
vt 0.302734 0.5
vt 0.310547 0.5

# verts
v -20 39 20
v -20 39 -20
v -20 40 20
v -20 40 -20
v 20 39 20
v 20 39 -20
v 20 40 20
v 20 40 -20
v -20 39 20
v -20 40 20
v 20 39 20
v 20 40 20
v -20 39 -20
v -20 40 -20
v 20 39 -20
v 20 40 -20
v -20 39 20
v 20 39 20
v -16 39 16
v -15 39 16
v -16 39 15
v -15 39 15
v 4 39 15
v 6 39 15
v 12 39 15
v 14 39 15
v 4 39 12
v 6 39 12
v -3 39 11
v -1 39 11
v -11 39 10
v -8 39 10
v 12 39 7
v 14 39 7
v -3 39 6
v -1 39 6
v -11 39 1
v -8 39 1
v 3 39 -4
v 5 39 -4
v 14 39 -7
v 16 39 -7
v -15 39 -10
v -12 39 -10
v 3 39 -12
v 5 39 -12
v -15 39 -14
v -12 39 -14
v 14 39 -15
v 16 39 -15
v -20 39 -20
v 20 39 -20
v -20 40 20
v 20 40 20
v -16 40 16
v -15 40 16
v -16 40 15
v -15 40 15
v 4 40 15
v 6 40 15
v 12 40 15
v 14 40 15
v 4 40 12
v 6 40 12
v -3 40 11
v -1 40 11
v -11 40 10
v -8 40 10
v 12 40 7
v 14 40 7
v -3 40 6
v -1 40 6
v -11 40 1
v -8 40 1
v 3 40 -4
v 5 40 -4
v 14 40 -7
v 16 40 -7
v -15 40 -10
v -12 40 -10
v 3 40 -12
v 5 40 -12
v -15 40 -14
v -12 40 -14
v 14 40 -15
v 16 40 -15
v -20 40 -20
v 20 40 -20

# faces
f 3/4/1 2/4/1 1/4/1
f 4/4/1 2/4/1 3/4/1
f 5/4/2 6/4/2 7/4/2
f 7/4/2 6/4/2 8/4/2
f 11/4/3 10/4/3 9/4/3
f 12/4/3 10/4/3 11/4/3
f 13/4/4 14/4/4 15/4/4
f 15/4/4 14/4/4 16/4/4
f 19/4/5 18/4/5 17/4/5
f 20/4/5 18/4/5 19/4/5
f 21/4/5 19/4/5 17/4/5
f 21/1/5 20/1/5 19/1/5
f 22/4/5 18/4/5 20/4/5
f 22/1/5 20/1/5 21/1/5
f 23/4/5 18/4/5 22/4/5
f 24/4/5 18/4/5 23/4/5
f 25/4/5 18/4/5 24/4/5
f 26/4/5 18/4/5 25/4/5
f 27/4/5 22/4/5 21/4/5
f 27/4/5 23/4/5 22/4/5
f 27/3/5 24/3/5 23/3/5
f 28/4/5 25/4/5 24/4/5
f 28/3/5 24/3/5 27/3/5
f 29/4/5 27/4/5 21/4/5
f 29/4/5 28/4/5 27/4/5
f 30/4/5 28/4/5 29/4/5
f 31/4/5 29/4/5 21/4/5
f 32/4/5 29/4/5 31/4/5
f 33/3/5 26/3/5 25/3/5
f 33/4/5 25/4/5 28/4/5
f 33/4/5 28/4/5 30/4/5
f 34/4/5 18/4/5 26/4/5
f 34/3/5 26/3/5 33/3/5
f 35/4/5 29/4/5 32/4/5
f 35/2/5 30/2/5 29/2/5
f 36/4/5 33/4/5 30/4/5
f 36/2/5 30/2/5 35/2/5
f 36/4/5 34/4/5 33/4/5
f 37/3/5 32/3/5 31/3/5
f 37/4/5 31/4/5 21/4/5
f 38/4/5 35/4/5 32/4/5
f 38/3/5 32/3/5 37/3/5
f 38/4/5 36/4/5 35/4/5
f 39/4/5 34/4/5 36/4/5
f 39/4/5 36/4/5 38/4/5
f 39/4/5 38/4/5 37/4/5
f 40/4/5 34/4/5 39/4/5
f 41/4/5 18/4/5 34/4/5
f 41/4/5 34/4/5 40/4/5
f 42/4/5 18/4/5 41/4/5
f 43/4/5 37/4/5 21/4/5
f 43/4/5 39/4/5 37/4/5
f 44/4/5 39/4/5 43/4/5
f 45/3/5 40/3/5 39/3/5
f 45/4/5 39/4/5 44/4/5
f 46/4/5 41/4/5 40/4/5
f 46/3/5 40/3/5 45/3/5
f 47/3/5 44/3/5 43/3/5
f 47/4/5 43/4/5 21/4/5
f 48/4/5 45/4/5 44/4/5
f 48/3/5 44/3/5 47/3/5
f 48/4/5 46/4/5 45/4/5
f 49/4/5 41/4/5 46/4/5
f 49/4/5 46/4/5 48/4/5
f 49/4/5 48/4/5 47/4/5
f 49/1/5 42/1/5 41/1/5
f 50/4/5 18/4/5 42/4/5
f 50/1/5 42/1/5 49/1/5
f 51/4/5 21/4/5 17/4/5
f 51/4/5 49/4/5 47/4/5
f 51/4/5 50/4/5 49/4/5
f 51/4/5 47/4/5 21/4/5
f 52/4/5 18/4/5 50/4/5
f 52/4/5 50/4/5 51/4/5
f 53/4/6 54/4/6 55/4/6
f 55/4/6 54/4/6 56/4/6
f 53/4/6 55/4/6 57/4/6
f 55/1/6 56/1/6 57/1/6
f 56/4/6 54/4/6 58/4/6
f 57/1/6 56/1/6 58/1/6
f 58/4/6 54/4/6 59/4/6
f 59/4/6 54/4/6 60/4/6
f 60/4/6 54/4/6 61/4/6
f 61/4/6 54/4/6 62/4/6
f 57/4/6 58/4/6 63/4/6
f 58/4/6 59/4/6 63/4/6
f 59/3/6 60/3/6 63/3/6
f 60/4/6 61/4/6 64/4/6
f 63/3/6 60/3/6 64/3/6
f 57/4/6 63/4/6 65/4/6
f 63/4/6 64/4/6 65/4/6
f 65/4/6 64/4/6 66/4/6
f 57/4/6 65/4/6 67/4/6
f 67/4/6 65/4/6 68/4/6
f 61/3/6 62/3/6 69/3/6
f 64/4/6 61/4/6 69/4/6
f 66/4/6 64/4/6 69/4/6
f 62/4/6 54/4/6 70/4/6
f 69/3/6 62/3/6 70/3/6
f 68/4/6 65/4/6 71/4/6
f 65/2/6 66/2/6 71/2/6
f 66/4/6 69/4/6 72/4/6
f 71/2/6 66/2/6 72/2/6
f 69/4/6 70/4/6 72/4/6
f 67/3/6 68/3/6 73/3/6
f 57/4/6 67/4/6 73/4/6
f 68/4/6 71/4/6 74/4/6
f 73/3/6 68/3/6 74/3/6
f 71/4/6 72/4/6 74/4/6
f 72/4/6 70/4/6 75/4/6
f 74/4/6 72/4/6 75/4/6
f 73/4/6 74/4/6 75/4/6
f 75/4/6 70/4/6 76/4/6
f 70/4/6 54/4/6 77/4/6
f 76/4/6 70/4/6 77/4/6
f 77/4/6 54/4/6 78/4/6
f 57/4/6 73/4/6 79/4/6
f 73/4/6 75/4/6 79/4/6
f 79/4/6 75/4/6 80/4/6
f 75/3/6 76/3/6 81/3/6
f 80/4/6 75/4/6 81/4/6
f 76/4/6 77/4/6 82/4/6
f 81/3/6 76/3/6 82/3/6
f 79/3/6 80/3/6 83/3/6
f 57/4/6 79/4/6 83/4/6
f 80/4/6 81/4/6 84/4/6
f 83/3/6 80/3/6 84/3/6
f 81/4/6 82/4/6 84/4/6
f 82/4/6 77/4/6 85/4/6
f 84/4/6 82/4/6 85/4/6
f 83/4/6 84/4/6 85/4/6
f 77/1/6 78/1/6 85/1/6
f 78/4/6 54/4/6 86/4/6
f 85/1/6 78/1/6 86/1/6
f 53/4/6 57/4/6 87/4/6
f 83/4/6 85/4/6 87/4/6
f 85/4/6 86/4/6 87/4/6
f 57/4/6 83/4/6 87/4/6
f 86/4/6 54/4/6 88/4/6
f 87/4/6 86/4/6 88/4/6
