# MagicaVoxel @ Ephtracy

# material
mtllib monkey_sitting.mtl
usemtl palette

# normals
vn -1 0 0
vn 1 0 0
vn 0 0 1
vn 0 0 -1
vn 0 -1 0
vn 0 1 0

# texcoords
vt 0.0449219 0.5
vt 0.365234 0.5
vt 0.369141 0.5
vt 0.994141 0.5

# verts
v 6 4 17
v 6 4 16
v 6 5 19
v 6 5 18
v 6 5 17
v 6 5 16
v 6 6 18
v 6 6 17
v 6 7 19
v 6 7 18
v 6 7 17
v 6 8 18
v 6 8 17
v 6 8 16
v 6 9 17
v 6 9 16
v 7 2 11
v 7 2 9
v 7 4 11
v 7 4 9
v 9 0 17
v 9 0 16
v 9 0 12
v 9 0 11
v 9 1 17
v 9 1 16
v 9 1 12
v 9 1 11
v 9 6 16
v 9 6 12
v 9 8 16
v 9 8 12
v 9 9 16
v 9 9 12
v 9 10 16
v 9 10 12
v 10 1 17
v 10 1 16
v 10 1 12
v 10 1 11
v 10 3 17
v 10 3 16
v 10 3 12
v 10 3 11
v 10 8 16
v 10 8 15
v 10 8 13
v 10 8 12
v 10 9 16
v 10 9 15
v 10 9 13
v 10 9 12
v 10 10 15
v 10 10 13
v 10 11 15
v 10 11 13
v 11 0 16
v 11 0 12
v 11 1 15
v 11 1 13
v 11 2 16
v 11 2 15
v 11 2 13
v 11 2 12
v 11 3 17
v 11 3 16
v 11 3 12
v 11 3 11
v 11 3 10
v 11 3 9
v 11 4 17
v 11 4 16
v 11 4 15
v 11 4 13
v 11 4 12
v 11 4 11
v 11 4 10
v 11 4 9
v 11 5 18
v 11 5 16
v 11 5 15
v 11 5 13
v 11 5 12
v 11 5 10
v 11 6 18
v 11 6 16
v 11 6 12
v 11 7 18
v 11 7 16
v 11 7 12
v 11 7 10
v 12 1 17
v 12 1 16
v 12 1 12
v 12 1 11
v 12 2 17
v 12 2 16
v 12 2 12
v 12 2 11
v 12 4 10
v 12 4 9
v 12 5 10
v 12 6 10
v 12 6 9
v 12 7 17
v 12 7 16
v 12 7 12
v 12 7 11
v 12 8 18
v 12 8 17
v 12 8 11
v 12 8 10
v 12 10 18
v 12 10 16
v 12 10 12
v 12 10 10
v 13 0 17
v 13 0 16
v 13 0 12
v 13 0 11
v 13 1 17
v 13 1 16
v 13 1 12
v 13 1 11
v 18 0 13
v 18 0 9
v 18 1 13
v 18 1 9
v 7 4 17
v 7 4 16
v 7 5 17
v 7 5 16
v 7 7 18
v 7 7 17
v 7 8 18
v 7 8 17
v 7 8 16
v 7 9 17
v 7 9 16
v 8 5 18
v 8 5 17
v 8 6 19
v 8 6 18
v 8 7 19
v 8 7 17
v 9 2 11
v 9 2 10
v 9 3 10
v 9 3 9
v 9 4 11
v 9 4 9
v 11 0 17
v 11 0 16
v 11 0 12
v 11 0 11
v 11 2 17
v 11 2 16
v 11 2 12
v 11 2 11
v 12 2 10
v 12 2 9
v 12 3 10
v 12 3 9
v 13 3 10
v 13 3 9
v 13 5 19
v 13 5 16
v 13 5 12
v 13 5 10
v 13 6 19
v 13 6 18
v 13 6 10
v 13 6 9
v 13 7 18
v 13 7 17
v 13 7 16
v 13 7 11
v 13 7 10
v 13 8 18
v 13 8 17
v 13 8 16
v 13 8 11
v 13 8 10
v 13 10 18
v 13 10 16
v 13 10 12
v 13 10 10
v 14 7 17
v 14 7 16
v 14 8 17
v 14 8 16
v 14 9 16
v 14 9 12
v 14 10 16
v 14 10 15
v 14 10 13
v 14 10 12
v 14 11 15
v 14 11 13
v 15 0 17
v 15 0 16
v 15 0 12
v 15 0 11
v 15 4 17
v 15 4 16
v 15 4 12
v 15 4 11
v 15 8 16
v 15 8 12
v 15 9 16
v 15 9 12
v 16 0 16
v 16 0 14
v 16 0 13
v 16 0 12
v 16 1 16
v 16 1 14
v 16 1 13
v 16 1 12
v 16 6 16
v 16 6 12
v 16 8 16
v 16 8 12
v 17 1 16
v 17 1 14
v 17 1 13
v 17 1 12
v 17 6 16
v 17 6 12
v 19 0 14
v 19 0 9
v 19 1 14
v 19 1 9
v 6 5 19
v 6 7 19
v 8 5 19
v 8 6 19
v 8 7 19
v 13 5 19
v 13 6 19
v 6 7 18
v 6 8 18
v 7 7 18
v 7 8 18
v 11 6 18
v 11 7 18
v 12 8 18
v 12 10 18
v 13 6 18
v 13 7 18
v 13 8 18
v 13 10 18
v 6 4 17
v 6 5 17
v 6 8 17
v 6 9 17
v 7 4 17
v 7 5 17
v 7 8 17
v 7 9 17
v 9 0 17
v 9 1 17
v 10 1 17
v 10 3 17
v 11 0 17
v 11 2 17
v 11 3 17
v 11 4 17
v 12 1 17
v 12 2 17
v 12 7 17
v 12 8 17
v 13 0 17
v 13 1 17
v 13 7 17
v 13 8 17
v 14 7 17
v 14 8 17
v 15 0 17
v 15 4 17
v 9 6 16
v 9 8 16
v 9 9 16
v 9 10 16
v 10 8 16
v 10 9 16
v 11 0 16
v 11 2 16
v 11 4 16
v 11 5 16
v 11 6 16
v 11 7 16
v 11 8 16
v 11 9 16
v 12 1 16
v 12 2 16
v 12 7 16
v 12 10 16
v 13 0 16
v 13 1 16
v 13 5 16
v 13 7 16
v 13 8 16
v 13 10 16
v 14 7 16
v 14 8 16
v 14 9 16
v 14 10 16
v 15 0 16
v 15 4 16
v 15 8 16
v 15 9 16
v 16 0 16
v 16 1 16
v 16 6 16
v 16 8 16
v 17 1 16
v 17 6 16
v 10 10 15
v 10 11 15
v 14 10 15
v 14 11 15
v 16 0 14
v 16 1 14
v 17 1 14
v 19 0 14
v 19 1 14
v 9 0 12
v 9 1 12
v 10 1 12
v 10 3 12
v 11 0 12
v 11 2 12
v 11 3 12
v 7 2 11
v 7 4 11
v 9 2 11
v 9 4 11
v 9 2 10
v 9 3 10
v 11 3 10
v 11 4 10
v 12 2 10
v 12 3 10
v 12 4 10
v 12 5 10
v 13 3 10
v 13 5 10
v 8 5 18
v 8 6 18
v 11 5 18
v 11 6 18
v 6 5 17
v 6 6 17
v 6 7 17
v 6 8 17
v 7 5 17
v 7 6 17
v 7 7 17
v 7 8 17
v 8 5 17
v 8 7 17
v 6 4 16
v 6 5 16
v 6 8 16
v 6 9 16
v 7 4 16
v 7 5 16
v 7 8 16
v 7 9 16
v 9 0 16
v 9 1 16
v 10 1 16
v 10 3 16
v 11 0 16
v 11 2 16
v 11 3 16
v 10 10 13
v 10 11 13
v 14 10 13
v 14 11 13
v 16 0 13
v 16 1 13
v 17 1 13
v 18 0 13
v 18 1 13
v 9 6 12
v 9 8 12
v 9 9 12
v 9 10 12
v 10 8 12
v 10 9 12
v 11 0 12
v 11 2 12
v 11 4 12
v 11 5 12
v 11 6 12
v 11 7 12
v 11 8 12
v 11 9 12
v 12 1 12
v 12 2 12
v 12 7 12
v 12 10 12
v 13 0 12
v 13 1 12
v 13 5 12
v 13 10 12
v 14 9 12
v 14 10 12
v 15 0 12
v 15 4 12
v 15 8 12
v 15 9 12
v 16 0 12
v 16 1 12
v 16 6 12
v 16 8 12
v 17 1 12
v 17 6 12
v 9 0 11
v 9 1 11
v 10 1 11
v 10 3 11
v 11 0 11
v 11 2 11
v 11 3 11
v 11 4 11
v 12 1 11
v 12 2 11
v 12 7 11
v 12 8 11
v 13 0 11
v 13 1 11
v 13 7 11
v 13 8 11
v 15 0 11
v 15 4 11
v 11 5 10
v 11 7 10
v 12 5 10
v 12 6 10
v 12 8 10
v 12 10 10
v 13 6 10
v 13 7 10
v 13 8 10
v 13 10 10
v 7 2 9
v 7 4 9
v 9 2 9
v 9 3 9
v 9 4 9
v 11 3 9
v 11 4 9
v 12 2 9
v 12 3 9
v 12 4 9
v 12 6 9
v 13 3 9
v 13 6 9
v 18 0 9
v 18 1 9
v 19 0 9
v 19 1 9
v 9 0 17
v 11 0 17
v 13 0 17
v 15 0 17
v 9 0 16
v 11 0 16
v 13 0 16
v 15 0 16
v 16 0 16
v 16 0 14
v 19 0 14
v 16 0 13
v 18 0 13
v 9 0 12
v 11 0 12
v 13 0 12
v 15 0 12
v 16 0 12
v 9 0 11
v 11 0 11
v 13 0 11
v 15 0 11
v 18 0 9
v 19 0 9
v 12 1 17
v 13 1 17
v 12 1 16
v 13 1 16
v 16 1 16
v 17 1 16
v 16 1 14
v 17 1 14
v 16 1 13
v 17 1 13
v 12 1 12
v 13 1 12
v 16 1 12
v 17 1 12
v 12 1 11
v 13 1 11
v 11 2 17
v 12 2 17
v 11 2 16
v 12 2 16
v 11 2 12
v 12 2 12
v 7 2 11
v 9 2 11
v 11 2 11
v 12 2 11
v 9 2 10
v 12 2 10
v 7 2 9
v 9 2 9
v 12 2 9
v 12 3 10
v 13 3 10
v 12 3 9
v 13 3 9
v 6 4 17
v 7 4 17
v 6 4 16
v 7 4 16
v 6 5 19
v 8 5 19
v 13 5 19
v 6 5 18
v 7 5 18
v 8 5 18
v 11 5 18
v 6 5 17
v 7 5 17
v 8 5 17
v 11 5 16
v 13 5 16
v 11 5 12
v 13 5 12
v 11 5 10
v 12 5 10
v 13 5 10
v 9 6 16
v 11 6 16
v 9 6 12
v 11 6 12
v 13 7 17
v 14 7 17
v 13 7 16
v 14 7 16
v 12 8 18
v 13 8 18
v 6 8 17
v 7 8 17
v 12 8 17
v 13 8 17
v 6 8 16
v 7 8 16
v 12 8 11
v 13 8 11
v 12 8 10
v 13 8 10
v 9 9 16
v 10 9 16
v 10 9 15
v 10 9 13
v 9 9 12
v 10 9 12
v 9 1 17
v 10 1 17
v 9 1 16
v 10 1 16
v 17 1 14
v 19 1 14
v 17 1 13
v 18 1 13
v 9 1 12
v 10 1 12
v 9 1 11
v 10 1 11
v 18 1 9
v 19 1 9
v 10 3 17
v 11 3 17
v 10 3 16
v 11 3 16
v 10 3 12
v 11 3 12
v 10 3 11
v 11 3 11
v 9 3 10
v 11 3 10
v 9 3 9
v 11 3 9
v 11 4 17
v 15 4 17
v 11 4 16
v 15 4 16
v 11 4 12
v 15 4 12
v 7 4 11
v 9 4 11
v 11 4 11
v 15 4 11
v 11 4 10
v 12 4 10
v 7 4 9
v 9 4 9
v 11 4 9
v 12 4 9
v 6 5 17
v 7 5 17
v 6 5 16
v 7 5 16
v 8 6 19
v 13 6 19
v 8 6 18
v 11 6 18
v 13 6 18
v 16 6 16
v 17 6 16
v 16 6 12
v 17 6 12
v 12 6 10
v 13 6 10
v 12 6 9
v 13 6 9
v 6 7 19
v 8 7 19
v 6 7 18
v 7 7 18
v 11 7 18
v 13 7 18
v 7 7 17
v 8 7 17
v 12 7 17
v 13 7 17
v 11 7 16
v 12 7 16
v 11 7 12
v 12 7 12
v 12 7 11
v 13 7 11
v 11 7 10
v 13 7 10
v 6 8 18
v 7 8 18
v 6 8 17
v 7 8 17
v 13 8 17
v 14 8 17
v 9 8 16
v 10 8 16
v 13 8 16
v 14 8 16
v 15 8 16
v 16 8 16
v 10 8 15
v 10 8 13
v 9 8 12
v 10 8 12
v 15 8 12
v 16 8 12
v 6 9 17
v 7 9 17
v 6 9 16
v 7 9 16
v 14 9 16
v 15 9 16
v 14 9 12
v 15 9 12
v 12 10 18
v 13 10 18
v 9 10 16
v 12 10 16
v 13 10 16
v 14 10 16
v 10 10 15
v 14 10 15
v 10 10 13
v 14 10 13
v 9 10 12
v 12 10 12
v 13 10 12
v 14 10 12
v 12 10 10
v 13 10 10
v 10 11 15
v 14 11 15
v 10 11 13
v 14 11 13

# faces
f 5/1/1 2/1/1 1/1/1
f 6/1/1 2/1/1 5/1/1
f 7/2/1 4/2/1 3/2/1
f 7/1/1 5/1/1 4/1/1
f 8/1/1 5/1/1 7/1/1
f 9/2/1 7/2/1 3/2/1
f 9/2/1 8/2/1 7/2/1
f 10/2/1 8/2/1 9/2/1
f 11/2/1 8/2/1 10/2/1
f 12/1/1 11/1/1 10/1/1
f 13/1/1 11/1/1 12/1/1
f 15/1/1 14/1/1 13/1/1
f 16/1/1 14/1/1 15/1/1
f 19/2/1 18/2/1 17/2/1
f 20/2/1 18/2/1 19/2/1
f 25/2/1 22/2/1 21/2/1
f 26/2/1 22/2/1 25/2/1
f 27/2/1 24/2/1 23/2/1
f 28/2/1 24/2/1 27/2/1
f 31/2/1 30/2/1 29/2/1
f 32/2/1 30/2/1 31/2/1
f 35/3/1 34/3/1 33/3/1
f 36/3/1 34/3/1 35/3/1
f 41/2/1 38/2/1 37/2/1
f 42/2/1 38/2/1 41/2/1
f 43/2/1 40/2/1 39/2/1
f 44/2/1 40/2/1 43/2/1
f 49/4/1 46/4/1 45/4/1
f 50/3/1 47/3/1 46/3/1
f 50/4/1 46/4/1 49/4/1
f 51/4/1 48/4/1 47/4/1
f 51/3/1 47/3/1 50/3/1
f 52/4/1 48/4/1 51/4/1
f 55/3/1 54/3/1 53/3/1
f 56/3/1 54/3/1 55/3/1
f 59/3/1 58/3/1 57/3/1
f 60/3/1 58/3/1 59/3/1
f 61/3/1 59/3/1 57/3/1
f 62/2/1 60/2/1 59/2/1
f 62/3/1 59/3/1 61/3/1
f 63/3/1 58/3/1 60/3/1
f 63/2/1 60/2/1 62/2/1
f 64/3/1 58/3/1 63/3/1
f 66/2/1 62/2/1 61/2/1
f 66/2/1 63/2/1 62/2/1
f 66/2/1 64/2/1 63/2/1
f 67/2/1 64/2/1 66/2/1
f 71/3/1 66/3/1 65/3/1
f 72/2/1 67/2/1 66/2/1
f 72/3/1 66/3/1 71/3/1
f 73/2/1 67/2/1 72/2/1
f 74/2/1 67/2/1 73/2/1
f 75/3/1 68/3/1 67/3/1
f 75/2/1 67/2/1 74/2/1
f 76/3/1 68/3/1 75/3/1
f 77/3/1 70/3/1 69/3/1
f 78/3/1 70/3/1 77/3/1
f 80/3/1 73/3/1 72/3/1
f 81/2/1 74/2/1 73/2/1
f 81/3/1 73/3/1 80/3/1
f 82/3/1 75/3/1 74/3/1
f 82/2/1 74/2/1 81/2/1
f 83/3/1 75/3/1 82/3/1
f 85/3/1 80/3/1 79/3/1
f 85/3/1 84/3/1 83/3/1
f 85/3/1 83/3/1 82/3/1
f 85/3/1 82/3/1 81/3/1
f 85/3/1 81/3/1 80/3/1
f 86/3/1 84/3/1 85/3/1
f 87/3/1 84/3/1 86/3/1
f 88/3/1 86/3/1 85/3/1
f 89/3/1 86/3/1 88/3/1
f 90/3/1 84/3/1 87/3/1
f 91/3/1 84/3/1 90/3/1
f 96/3/1 93/3/1 92/3/1
f 97/3/1 93/3/1 96/3/1
f 98/3/1 95/3/1 94/3/1
f 99/3/1 95/3/1 98/3/1
f 102/3/1 101/3/1 100/3/1
f 103/3/1 101/3/1 102/3/1
f 104/3/1 101/3/1 103/3/1
f 110/3/1 106/3/1 105/3/1
f 111/3/1 108/3/1 107/3/1
f 113/3/1 110/3/1 109/3/1
f 114/3/1 106/3/1 110/3/1
f 114/3/1 110/3/1 113/3/1
f 115/3/1 112/3/1 111/3/1
f 115/3/1 111/3/1 107/3/1
f 116/3/1 112/3/1 115/3/1
f 121/3/1 118/3/1 117/3/1
f 122/3/1 118/3/1 121/3/1
f 123/3/1 120/3/1 119/3/1
f 124/3/1 120/3/1 123/3/1
f 127/3/1 126/3/1 125/3/1
f 128/3/1 126/3/1 127/3/1
f 129/1/2 130/1/2 131/1/2
f 131/1/2 130/1/2 132/1/2
f 133/1/2 134/1/2 135/1/2
f 135/1/2 134/1/2 136/1/2
f 136/1/2 137/1/2 138/1/2
f 138/1/2 137/1/2 139/1/2
f 140/2/2 141/2/2 143/2/2
f 142/2/2 143/2/2 144/2/2
f 143/2/2 141/2/2 145/2/2
f 144/2/2 143/2/2 145/2/2
f 146/2/2 147/2/2 148/2/2
f 146/2/2 148/2/2 150/2/2
f 148/2/2 149/2/2 150/2/2
f 150/2/2 149/2/2 151/2/2
f 152/2/2 153/2/2 156/2/2
f 156/2/2 153/2/2 157/2/2
f 154/2/2 155/2/2 158/2/2
f 158/2/2 155/2/2 159/2/2
f 160/3/2 161/3/2 162/3/2
f 162/3/2 161/3/2 163/3/2
f 164/3/2 165/3/2 169/3/2
f 166/3/2 167/3/2 170/3/2
f 170/3/2 167/3/2 171/3/2
f 168/3/2 169/3/2 172/3/2
f 169/3/2 165/3/2 172/3/2
f 172/3/2 165/3/2 173/3/2
f 171/3/2 167/3/2 174/3/2
f 174/3/2 167/3/2 175/3/2
f 175/3/2 167/3/2 176/3/2
f 168/3/2 172/3/2 177/3/2
f 177/3/2 172/3/2 178/3/2
f 168/3/2 177/3/2 182/3/2
f 180/3/2 181/3/2 184/3/2
f 179/3/2 180/3/2 184/3/2
f 184/3/2 181/3/2 185/3/2
f 182/3/2 183/3/2 186/3/2
f 168/3/2 182/3/2 186/3/2
f 186/3/2 183/3/2 187/3/2
f 188/3/2 189/3/2 190/3/2
f 190/3/2 189/3/2 191/3/2
f 192/3/2 193/3/2 194/3/2
f 194/3/2 193/3/2 195/3/2
f 195/3/2 193/3/2 196/3/2
f 196/3/2 193/3/2 197/3/2
f 195/3/2 196/3/2 198/3/2
f 198/3/2 196/3/2 199/3/2
f 200/3/2 201/3/2 204/3/2
f 204/3/2 201/3/2 205/3/2
f 202/3/2 203/3/2 206/3/2
f 206/3/2 203/3/2 207/3/2
f 208/3/2 209/3/2 210/3/2
f 210/3/2 209/3/2 211/3/2
f 212/3/2 213/3/2 216/3/2
f 216/3/2 213/3/2 217/3/2
f 214/3/2 215/3/2 218/3/2
f 218/3/2 215/3/2 219/3/2
f 220/3/2 221/3/2 222/3/2
f 222/3/2 221/3/2 223/3/2
f 224/3/2 225/3/2 228/3/2
f 226/3/2 227/3/2 228/3/2
f 225/3/2 226/3/2 228/3/2
f 228/3/2 227/3/2 229/3/2
f 230/3/2 231/3/2 232/3/2
f 232/3/2 231/3/2 233/3/2
f 236/2/3 235/2/3 234/2/3
f 237/2/3 235/2/3 236/2/3
f 238/2/3 235/2/3 237/2/3
f 239/3/3 237/3/3 236/3/3
f 240/3/3 237/3/3 239/3/3
f 243/1/3 242/1/3 241/1/3
f 244/1/3 242/1/3 243/1/3
f 249/3/3 246/3/3 245/3/3
f 250/3/3 246/3/3 249/3/3
f 251/3/3 248/3/3 247/3/3
f 252/3/3 248/3/3 251/3/3
f 257/1/3 254/1/3 253/1/3
f 258/1/3 254/1/3 257/1/3
f 259/1/3 256/1/3 255/1/3
f 260/1/3 256/1/3 259/1/3
f 263/2/3 262/2/3 261/2/3
f 265/2/3 263/2/3 261/2/3
f 265/2/3 264/2/3 263/2/3
f 266/2/3 264/2/3 265/2/3
f 267/2/3 264/2/3 266/2/3
f 270/3/3 268/3/3 267/3/3
f 270/3/3 267/3/3 266/3/3
f 274/3/3 270/3/3 269/3/3
f 275/3/3 272/3/3 271/3/3
f 276/3/3 272/3/3 275/3/3
f 277/3/3 276/3/3 275/3/3
f 278/3/3 276/3/3 277/3/3
f 279/3/3 274/3/3 273/3/3
f 280/3/3 268/3/3 270/3/3
f 280/3/3 274/3/3 279/3/3
f 280/3/3 270/3/3 274/3/3
f 285/2/3 282/2/3 281/2/3
f 286/3/3 284/3/3 283/3/3
f 291/2/3 285/2/3 281/2/3
f 292/2/3 285/2/3 291/2/3
f 293/4/3 286/4/3 285/4/3
f 293/2/3 285/2/3 292/2/3
f 294/3/3 284/3/3 286/3/3
f 294/4/3 286/4/3 293/4/3
f 295/3/3 288/3/3 287/3/3
f 296/3/3 288/3/3 295/3/3
f 297/3/3 293/3/3 292/3/3
f 297/3/3 294/3/3 293/3/3
f 298/3/3 284/3/3 294/3/3
f 298/3/3 294/3/3 297/3/3
f 299/3/3 295/3/3 287/3/3
f 300/3/3 295/3/3 299/3/3
f 301/3/3 290/3/3 289/3/3
f 305/3/3 302/3/3 301/3/3
f 306/3/3 304/3/3 303/3/3
f 307/3/3 304/3/3 306/3/3
f 308/3/3 304/3/3 307/3/3
f 310/3/3 305/3/3 301/3/3
f 310/3/3 301/3/3 289/3/3
f 310/3/3 307/3/3 306/3/3
f 310/3/3 306/3/3 305/3/3
f 311/3/3 307/3/3 310/3/3
f 312/3/3 307/3/3 311/3/3
f 313/3/3 310/3/3 309/3/3
f 313/3/3 311/3/3 310/3/3
f 314/3/3 311/3/3 313/3/3
f 315/3/3 311/3/3 314/3/3
f 316/3/3 311/3/3 315/3/3
f 317/3/3 315/3/3 314/3/3
f 318/3/3 315/3/3 317/3/3
f 321/3/3 320/3/3 319/3/3
f 322/3/3 320/3/3 321/3/3
f 325/3/3 324/3/3 323/3/3
f 326/3/3 325/3/3 323/3/3
f 327/3/3 325/3/3 326/3/3
f 330/2/3 329/2/3 328/2/3
f 332/2/3 330/2/3 328/2/3
f 332/2/3 331/2/3 330/2/3
f 333/2/3 331/2/3 332/2/3
f 334/2/3 331/2/3 333/2/3
f 337/2/3 336/2/3 335/2/3
f 338/2/3 336/2/3 337/2/3
f 341/3/3 340/3/3 339/3/3
f 343/3/3 341/3/3 339/3/3
f 343/3/3 342/3/3 341/3/3
f 344/3/3 342/3/3 343/3/3
f 345/3/3 342/3/3 344/3/3
f 347/3/3 346/3/3 345/3/3
f 347/3/3 345/3/3 344/3/3
f 348/3/3 346/3/3 347/3/3
f 349/3/4 350/3/4 351/3/4
f 351/3/4 350/3/4 352/3/4
f 353/1/4 354/1/4 357/1/4
f 354/2/4 355/2/4 358/2/4
f 357/1/4 354/1/4 358/1/4
f 355/1/4 356/1/4 359/1/4
f 358/2/4 355/2/4 359/2/4
f 359/1/4 356/1/4 360/1/4
f 357/2/4 358/2/4 361/2/4
f 358/2/4 359/2/4 361/2/4
f 361/2/4 359/2/4 362/2/4
f 363/1/4 364/1/4 367/1/4
f 367/1/4 364/1/4 368/1/4
f 365/1/4 366/1/4 369/1/4
f 369/1/4 366/1/4 370/1/4
f 371/2/4 372/2/4 373/2/4
f 371/2/4 373/2/4 375/2/4
f 373/2/4 374/2/4 375/2/4
f 375/2/4 374/2/4 376/2/4
f 376/2/4 374/2/4 377/2/4
f 378/3/4 379/3/4 380/3/4
f 380/3/4 379/3/4 381/3/4
f 382/3/4 383/3/4 384/3/4
f 382/3/4 384/3/4 385/3/4
f 385/3/4 384/3/4 386/3/4
f 387/2/4 388/2/4 391/2/4
f 389/3/4 390/3/4 392/3/4
f 387/2/4 391/2/4 397/2/4
f 397/2/4 391/2/4 398/2/4
f 391/4/4 392/4/4 399/4/4
f 398/2/4 391/2/4 399/2/4
f 392/3/4 390/3/4 400/3/4
f 399/4/4 392/4/4 400/4/4
f 393/3/4 394/3/4 401/3/4
f 401/3/4 394/3/4 402/3/4
f 398/3/4 399/3/4 403/3/4
f 399/3/4 400/3/4 403/3/4
f 400/3/4 390/3/4 404/3/4
f 403/3/4 400/3/4 404/3/4
f 393/3/4 401/3/4 405/3/4
f 405/3/4 401/3/4 406/3/4
f 395/3/4 396/3/4 407/3/4
f 407/3/4 408/3/4 409/3/4
f 409/3/4 408/3/4 410/3/4
f 395/3/4 407/3/4 412/3/4
f 407/3/4 409/3/4 412/3/4
f 412/3/4 409/3/4 413/3/4
f 413/3/4 409/3/4 414/3/4
f 411/3/4 412/3/4 415/3/4
f 412/3/4 413/3/4 415/3/4
f 415/3/4 413/3/4 416/3/4
f 416/3/4 413/3/4 417/3/4
f 417/3/4 413/3/4 418/3/4
f 416/3/4 417/3/4 419/3/4
f 419/3/4 417/3/4 420/3/4
f 421/2/4 422/2/4 423/2/4
f 421/2/4 423/2/4 425/2/4
f 423/2/4 424/2/4 425/2/4
f 425/2/4 424/2/4 426/2/4
f 426/2/4 424/2/4 427/2/4
f 427/3/4 428/3/4 430/3/4
f 426/3/4 427/3/4 430/3/4
f 429/3/4 430/3/4 434/3/4
f 431/3/4 432/3/4 435/3/4
f 435/3/4 432/3/4 436/3/4
f 433/3/4 434/3/4 437/3/4
f 430/3/4 428/3/4 438/3/4
f 437/3/4 434/3/4 438/3/4
f 434/3/4 430/3/4 438/3/4
f 439/3/4 440/3/4 441/3/4
f 441/3/4 440/3/4 442/3/4
f 442/3/4 440/3/4 445/3/4
f 445/3/4 440/3/4 446/3/4
f 443/3/4 444/3/4 447/3/4
f 447/3/4 444/3/4 448/3/4
f 449/2/4 450/2/4 451/2/4
f 451/2/4 450/2/4 452/2/4
f 452/2/4 450/2/4 453/2/4
f 451/3/4 452/3/4 454/3/4
f 451/3/4 454/3/4 456/3/4
f 454/3/4 455/3/4 456/3/4
f 456/3/4 455/3/4 457/3/4
f 457/3/4 455/3/4 458/3/4
f 457/3/4 458/3/4 460/3/4
f 458/3/4 459/3/4 460/3/4
f 460/3/4 459/3/4 461/3/4
f 462/3/4 463/3/4 464/3/4
f 464/3/4 463/3/4 465/3/4
f 470/2/5 467/2/5 466/2/5
f 471/2/5 467/2/5 470/2/5
f 472/3/5 469/3/5 468/3/5
f 473/3/5 469/3/5 472/3/5
f 475/3/5 474/3/5 473/3/5
f 475/3/5 473/3/5 472/3/5
f 475/3/5 472/3/5 471/3/5
f 477/3/5 475/3/5 471/3/5
f 477/3/5 476/3/5 475/3/5
f 478/3/5 476/3/5 477/3/5
f 480/3/5 477/3/5 471/3/5
f 481/3/5 477/3/5 480/3/5
f 482/3/5 477/3/5 481/3/5
f 483/3/5 477/3/5 482/3/5
f 484/2/5 480/2/5 479/2/5
f 485/2/5 480/2/5 484/2/5
f 486/3/5 482/3/5 481/3/5
f 487/3/5 482/3/5 486/3/5
f 488/3/5 476/3/5 478/3/5
f 489/3/5 476/3/5 488/3/5
f 492/3/5 491/3/5 490/3/5
f 493/3/5 491/3/5 492/3/5
f 496/3/5 495/3/5 494/3/5
f 497/3/5 495/3/5 496/3/5
f 502/3/5 499/3/5 498/3/5
f 503/3/5 499/3/5 502/3/5
f 504/3/5 501/3/5 500/3/5
f 505/3/5 501/3/5 504/3/5
f 508/3/5 507/3/5 506/3/5
f 509/3/5 507/3/5 508/3/5
f 514/3/5 511/3/5 510/3/5
f 515/3/5 511/3/5 514/3/5
f 516/2/5 513/2/5 512/2/5
f 518/2/5 516/2/5 512/2/5
f 519/3/5 517/3/5 516/3/5
f 519/2/5 516/2/5 518/2/5
f 520/3/5 517/3/5 519/3/5
f 523/3/5 522/3/5 521/3/5
f 524/3/5 522/3/5 523/3/5
f 527/1/5 526/1/5 525/1/5
f 528/1/5 526/1/5 527/1/5
f 532/2/5 530/2/5 529/2/5
f 533/2/5 530/2/5 532/2/5
f 534/3/5 531/3/5 530/3/5
f 534/2/5 530/2/5 533/2/5
f 535/3/5 531/3/5 534/3/5
f 536/1/5 533/1/5 532/1/5
f 537/2/5 534/2/5 533/2/5
f 537/1/5 533/1/5 536/1/5
f 538/2/5 534/2/5 537/2/5
f 539/3/5 531/3/5 535/3/5
f 540/3/5 531/3/5 539/3/5
f 543/3/5 542/3/5 541/3/5
f 544/3/5 542/3/5 543/3/5
f 545/3/5 542/3/5 544/3/5
f 548/2/5 547/2/5 546/2/5
f 549/2/5 547/2/5 548/2/5
f 552/3/5 551/3/5 550/3/5
f 553/3/5 551/3/5 552/3/5
f 558/3/5 555/3/5 554/3/5
f 559/3/5 555/3/5 558/3/5
f 560/1/5 557/1/5 556/1/5
f 561/1/5 557/1/5 560/1/5
f 564/3/5 563/3/5 562/3/5
f 565/3/5 563/3/5 564/3/5
f 568/3/5 567/3/5 566/3/5
f 569/3/5 568/3/5 566/3/5
f 570/3/5 569/3/5 566/3/5
f 571/3/5 569/3/5 570/3/5
f 572/2/6 573/2/6 574/2/6
f 574/2/6 573/2/6 575/2/6
f 576/3/6 577/3/6 578/3/6
f 578/3/6 577/3/6 579/3/6
f 580/2/6 581/2/6 582/2/6
f 582/2/6 581/2/6 583/2/6
f 579/3/6 577/3/6 584/3/6
f 584/3/6 577/3/6 585/3/6
f 586/2/6 587/2/6 588/2/6
f 588/2/6 587/2/6 589/2/6
f 590/2/6 591/2/6 592/2/6
f 592/2/6 591/2/6 593/2/6
f 594/3/6 595/3/6 596/3/6
f 596/3/6 595/3/6 597/3/6
f 598/3/6 599/3/6 600/3/6
f 600/3/6 599/3/6 601/3/6
f 602/3/6 603/3/6 606/3/6
f 606/3/6 603/3/6 607/3/6
f 604/2/6 605/2/6 610/2/6
f 610/2/6 605/2/6 611/2/6
f 608/3/6 609/3/6 612/3/6
f 612/3/6 609/3/6 613/3/6
f 614/1/6 615/1/6 616/1/6
f 616/1/6 615/1/6 617/1/6
f 618/3/6 619/3/6 620/3/6
f 620/3/6 619/3/6 621/3/6
f 621/3/6 619/3/6 622/3/6
f 623/3/6 624/3/6 625/3/6
f 625/3/6 624/3/6 626/3/6
f 627/3/6 628/3/6 629/3/6
f 629/3/6 628/3/6 630/3/6
f 631/2/6 632/2/6 633/2/6
f 633/2/6 632/2/6 634/2/6
f 634/2/6 632/2/6 637/2/6
f 637/2/6 632/2/6 638/2/6
f 635/3/6 636/3/6 639/3/6
f 639/3/6 636/3/6 640/3/6
f 635/3/6 639/3/6 641/3/6
f 641/3/6 639/3/6 642/3/6
f 643/3/6 644/3/6 645/3/6
f 643/3/6 645/3/6 647/3/6
f 645/3/6 646/3/6 647/3/6
f 647/3/6 646/3/6 648/3/6
f 649/1/6 650/1/6 651/1/6
f 651/1/6 650/1/6 652/1/6
f 653/3/6 654/3/6 657/3/6
f 657/3/6 654/3/6 658/3/6
f 655/2/6 656/2/6 661/2/6
f 655/2/6 661/2/6 662/2/6
f 655/2/6 662/2/6 663/2/6
f 663/2/6 662/2/6 664/2/6
f 659/3/6 660/3/6 665/3/6
f 665/3/6 660/3/6 666/3/6
f 667/1/6 668/1/6 669/1/6
f 669/1/6 668/1/6 670/1/6
f 671/3/6 672/3/6 673/3/6
f 673/3/6 672/3/6 674/3/6
f 675/3/6 676/3/6 678/3/6
f 678/3/6 676/3/6 679/3/6
f 677/3/6 678/3/6 681/3/6
f 679/3/6 680/3/6 681/3/6
f 678/3/6 679/3/6 681/3/6
f 681/3/6 680/3/6 682/3/6
f 677/3/6 681/3/6 683/3/6
f 677/3/6 683/3/6 685/3/6
f 683/3/6 684/3/6 685/3/6
f 685/3/6 684/3/6 686/3/6
f 686/3/6 684/3/6 687/3/6
f 687/3/6 684/3/6 688/3/6
f 686/3/6 687/3/6 689/3/6
f 689/3/6 687/3/6 690/3/6
f 691/3/6 692/3/6 693/3/6
f 693/3/6 692/3/6 694/3/6
