# MagicaVoxel @ Ephtracy

# material
mtllib room.mtl
usemtl palette

# normals
vn -1 0 0
vn 1 0 0
vn 0 0 1
vn 0 0 -1
vn 0 -1 0
vn 0 1 0

# texcoords
vt 0.0605469 0.5

# verts
v -20 0 20
v -20 0 -20
v -20 39 20
v -20 39 -20
v -9 10 12
v -9 10 9
v -9 14 13
v -9 14 12
v -9 15 13
v -9 15 9
v -6 23 -0
v -6 23 -4
v -6 27 -0
v -6 27 -4
v -6 28 -1
v -6 28 -4
v -6 29 -0
v -6 29 -1
v -6 32 -4
v -6 33 -0
v -6 33 -4
v -5 23 -4
v -5 23 -5
v -5 32 -4
v -5 32 -5
v -1 2 7
v -1 2 -0
v -1 7 7
v -1 7 -0
v 1 22 -5
v 1 22 -8
v 1 23 -0
v 1 23 -5
v 1 27 -0
v 1 27 -4
v 1 28 -1
v 1 28 -4
v 1 29 -0
v 1 29 -1
v 1 32 -4
v 1 32 -8
v 1 33 -0
v 1 33 -4
v 15 7 7
v 15 7 -0
v 15 9 7
v 15 9 -0
v 18 2 20
v 18 2 7
v 18 9 7
v 18 9 -0
v 18 39 20
v 18 39 -0
v -13 2 20
v -13 2 18
v -13 5 19
v -13 5 18
v -13 7 19
v -13 7 18
v -13 10 18
v -13 10 -0
v -13 39 20
v -13 39 -0
v -11 22 -5
v -11 22 -8
v -11 23 -0
v -11 23 -5
v -11 27 -0
v -11 27 -4
v -11 28 -1
v -11 28 -4
v -11 29 -0
v -11 29 -1
v -11 32 -3
v -11 32 -8
v -11 33 -0
v -11 33 -3
v -9 32 -3
v -9 32 -4
v -9 33 -3
v -9 33 -4
v -7 10 12
v -7 10 9
v -7 14 13
v -7 14 12
v -7 15 13
v -7 15 9
v -4 23 -0
v -4 23 -5
v -4 27 -0
v -4 27 -4
v -4 28 -1
v -4 28 -4
v -4 29 -0
v -4 29 -1
v -4 32 -4
v -4 32 -5
v -4 33 -0
v -4 33 -4
v -2 2 18
v -2 2 -0
v -2 4 18
v -2 4 8
v -2 9 18
v -2 9 8
v -2 10 18
v -2 10 -0
v -1 4 18
v -1 4 8
v -1 5 18
v -1 5 9
v -1 7 18
v -1 7 9
v -1 9 18
v -1 9 8
v 0 5 19
v 0 5 9
v 0 7 19
v 0 7 9
v 20 0 20
v 20 0 -20
v 20 39 20
v 20 39 -20
v -20 0 20
v -20 39 20
v -13 2 20
v -13 39 20
v 18 2 20
v 18 39 20
v 20 0 20
v 20 39 20
v -13 5 19
v -13 7 19
v 0 5 19
v 0 7 19
v -13 2 18
v -13 5 18
v -13 7 18
v -13 10 18
v -2 2 18
v -2 4 18
v -2 9 18
v -2 10 18
v -1 4 18
v -1 5 18
v -1 7 18
v -1 9 18
v -9 14 13
v -9 15 13
v -7 14 13
v -7 15 13
v -9 10 12
v -9 14 12
v -7 10 12
v -7 14 12
v -1 2 7
v -1 7 7
v 15 7 7
v 15 9 7
v 18 2 7
v 18 9 7
v -13 10 -0
v -13 39 -0
v -11 23 -0
v -11 27 -0
v -11 29 -0
v -11 33 -0
v -6 23 -0
v -6 27 -0
v -6 29 -0
v -6 33 -0
v -4 23 -0
v -4 27 -0
v -4 29 -0
v -4 33 -0
v -2 2 -0
v -2 10 -0
v -1 2 -0
v -1 7 -0
v 1 23 -0
v 1 27 -0
v 1 29 -0
v 1 33 -0
v 15 7 -0
v 15 9 -0
v 18 9 -0
v 18 39 -0
v -11 32 -3
v -11 33 -3
v -9 32 -3
v -9 33 -3
v -9 32 -4
v -9 33 -4
v -6 32 -4
v -6 33 -4
v -4 32 -4
v -4 33 -4
v 1 32 -4
v 1 33 -4
v -11 22 -8
v -11 32 -8
v 1 22 -8
v 1 32 -8
v -9 10 9
v -9 15 9
v -7 10 9
v -7 15 9
v -1 5 9
v -1 7 9
v 0 5 9
v 0 7 9
v -2 4 8
v -2 9 8
v -1 4 8
v -1 9 8
v -11 28 -1
v -11 29 -1
v -6 28 -1
v -6 29 -1
v -4 28 -1
v -4 29 -1
v 1 28 -1
v 1 29 -1
v -11 27 -4
v -11 28 -4
v -6 23 -4
v -6 27 -4
v -6 28 -4
v -6 32 -4
v -5 23 -4
v -5 32 -4
v -4 27 -4
v -4 28 -4
v 1 27 -4
v 1 28 -4
v -11 22 -5
v -11 23 -5
v -5 23 -5
v -5 32 -5
v -4 23 -5
v -4 32 -5
v 1 22 -5
v 1 23 -5
v -20 0 -20
v -20 39 -20
v 20 0 -20
v 20 39 -20
v -20 0 20
v 20 0 20
v -20 0 -20
v 20 0 -20
v -2 4 18
v -1 4 18
v -2 4 8
v -1 4 8
v -13 5 19
v 0 5 19
v -13 5 18
v -1 5 18
v -1 5 9
v 0 5 9
v -9 14 13
v -7 14 13
v -9 14 12
v -7 14 12
v -11 27 -0
v -6 27 -0
v -4 27 -0
v 1 27 -0
v -11 27 -4
v -6 27 -4
v -4 27 -4
v 1 27 -4
v -11 32 -3
v -9 32 -3
v -9 32 -4
v -6 32 -4
v -5 32 -4
v -4 32 -4
v 1 32 -4
v -5 32 -5
v -4 32 -5
v -11 32 -8
v 1 32 -8
v -11 33 -0
v -6 33 -0
v -4 33 -0
v 1 33 -0
v -11 33 -3
v -9 33 -3
v -9 33 -4
v -6 33 -4
v -4 33 -4
v 1 33 -4
v -13 2 20
v 18 2 20
v -13 2 18
v -2 2 18
v -1 2 7
v 18 2 7
v -2 2 -0
v -1 2 -0
v -13 7 19
v 0 7 19
v -13 7 18
v -1 7 18
v -1 7 9
v 0 7 9
v -1 7 7
v 15 7 7
v -1 7 -0
v 15 7 -0
v -2 9 18
v -1 9 18
v -2 9 8
v -1 9 8
v 15 9 7
v 18 9 7
v 15 9 -0
v 18 9 -0
v -13 10 18
v -2 10 18
v -9 10 12
v -7 10 12
v -9 10 9
v -7 10 9
v -13 10 -0
v -2 10 -0
v -9 15 13
v -7 15 13
v -9 15 9
v -7 15 9
v -11 22 -5
v 1 22 -5
v -11 22 -8
v 1 22 -8
v -11 23 -0
v -6 23 -0
v -4 23 -0
v 1 23 -0
v -6 23 -4
v -5 23 -4
v -11 23 -5
v -5 23 -5
v -4 23 -5
v 1 23 -5
v -11 28 -1
v -6 28 -1
v -4 28 -1
v 1 28 -1
v -11 28 -4
v -6 28 -4
v -4 28 -4
v 1 28 -4
v -11 29 -0
v -6 29 -0
v -4 29 -0
v 1 29 -0
v -11 29 -1
v -6 29 -1
v -4 29 -1
v 1 29 -1
v -20 39 20
v -13 39 20
v 18 39 20
v 20 39 20
v -13 39 -0
v 18 39 -0
v -20 39 -20
v 20 39 -20

# faces
f 3/1/1 2/1/1 1/1/1
f 4/1/1 2/1/1 3/1/1
f 8/1/1 6/1/1 5/1/1
f 9/1/1 8/1/1 7/1/1
f 10/1/1 6/1/1 8/1/1
f 10/1/1 8/1/1 9/1/1
f 13/1/1 12/1/1 11/1/1
f 14/1/1 12/1/1 13/1/1
f 18/1/1 16/1/1 15/1/1
f 19/1/1 16/1/1 18/1/1
f 19/1/1 18/1/1 17/1/1
f 20/1/1 19/1/1 17/1/1
f 21/1/1 19/1/1 20/1/1
f 24/1/1 23/1/1 22/1/1
f 25/1/1 23/1/1 24/1/1
f 28/1/1 27/1/1 26/1/1
f 29/1/1 27/1/1 28/1/1
f 33/1/1 31/1/1 30/1/1
f 34/1/1 33/1/1 32/1/1
f 35/1/1 33/1/1 34/1/1
f 37/1/1 33/1/1 35/1/1
f 39/1/1 37/1/1 36/1/1
f 40/1/1 33/1/1 37/1/1
f 40/1/1 39/1/1 38/1/1
f 40/1/1 37/1/1 39/1/1
f 41/1/1 31/1/1 33/1/1
f 41/1/1 33/1/1 40/1/1
f 42/1/1 40/1/1 38/1/1
f 43/1/1 40/1/1 42/1/1
f 46/1/1 45/1/1 44/1/1
f 47/1/1 45/1/1 46/1/1
f 50/1/1 49/1/1 48/1/1
f 52/1/1 50/1/1 48/1/1
f 52/1/1 51/1/1 50/1/1
f 53/1/1 51/1/1 52/1/1
f 54/1/2 55/1/2 56/1/2
f 56/1/2 55/1/2 57/1/2
f 54/1/2 56/1/2 58/1/2
f 58/1/2 59/1/2 60/1/2
f 58/1/2 60/1/2 62/1/2
f 60/1/2 61/1/2 62/1/2
f 54/1/2 58/1/2 62/1/2
f 62/1/2 61/1/2 63/1/2
f 64/1/2 65/1/2 67/1/2
f 66/1/2 67/1/2 68/1/2
f 68/1/2 67/1/2 69/1/2
f 69/1/2 67/1/2 71/1/2
f 70/1/2 71/1/2 73/1/2
f 73/1/2 71/1/2 74/1/2
f 72/1/2 73/1/2 74/1/2
f 67/1/2 65/1/2 75/1/2
f 74/1/2 71/1/2 75/1/2
f 71/1/2 67/1/2 75/1/2
f 72/1/2 74/1/2 76/1/2
f 76/1/2 74/1/2 77/1/2
f 78/1/2 79/1/2 80/1/2
f 80/1/2 79/1/2 81/1/2
f 82/1/2 83/1/2 85/1/2
f 84/1/2 85/1/2 86/1/2
f 85/1/2 83/1/2 87/1/2
f 86/1/2 85/1/2 87/1/2
f 88/1/2 89/1/2 90/1/2
f 90/1/2 89/1/2 91/1/2
f 91/1/2 89/1/2 93/1/2
f 92/1/2 93/1/2 95/1/2
f 93/1/2 89/1/2 96/1/2
f 94/1/2 95/1/2 96/1/2
f 95/1/2 93/1/2 96/1/2
f 96/1/2 89/1/2 97/1/2
f 94/1/2 96/1/2 98/1/2
f 98/1/2 96/1/2 99/1/2
f 100/1/2 101/1/2 102/1/2
f 102/1/2 101/1/2 103/1/2
f 103/1/2 101/1/2 105/1/2
f 104/1/2 105/1/2 106/1/2
f 105/1/2 101/1/2 107/1/2
f 106/1/2 105/1/2 107/1/2
f 108/1/2 109/1/2 110/1/2
f 110/1/2 109/1/2 111/1/2
f 111/1/2 109/1/2 113/1/2
f 112/1/2 113/1/2 114/1/2
f 113/1/2 109/1/2 115/1/2
f 114/1/2 113/1/2 115/1/2
f 116/1/2 117/1/2 118/1/2
f 118/1/2 117/1/2 119/1/2
f 120/1/2 121/1/2 122/1/2
f 122/1/2 121/1/2 123/1/2
f 126/1/3 125/1/3 124/1/3
f 127/1/3 125/1/3 126/1/3
f 128/1/3 126/1/3 124/1/3
f 130/1/3 128/1/3 124/1/3
f 130/1/3 129/1/3 128/1/3
f 131/1/3 129/1/3 130/1/3
f 134/1/3 133/1/3 132/1/3
f 135/1/3 133/1/3 134/1/3
f 140/1/3 137/1/3 136/1/3
f 141/1/3 137/1/3 140/1/3
f 142/1/3 139/1/3 138/1/3
f 143/1/3 139/1/3 142/1/3
f 144/1/3 137/1/3 141/1/3
f 145/1/3 137/1/3 144/1/3
f 146/1/3 142/1/3 138/1/3
f 147/1/3 142/1/3 146/1/3
f 150/1/3 149/1/3 148/1/3
f 151/1/3 149/1/3 150/1/3
f 154/1/3 153/1/3 152/1/3
f 155/1/3 153/1/3 154/1/3
f 158/1/3 157/1/3 156/1/3
f 160/1/3 158/1/3 156/1/3
f 160/1/3 159/1/3 158/1/3
f 161/1/3 159/1/3 160/1/3
f 164/1/3 163/1/3 162/1/3
f 165/1/3 163/1/3 164/1/3
f 166/1/3 163/1/3 165/1/3
f 167/1/3 163/1/3 166/1/3
f 168/1/3 164/1/3 162/1/3
f 169/1/3 166/1/3 165/1/3
f 170/1/3 166/1/3 169/1/3
f 171/1/3 163/1/3 167/1/3
f 172/1/3 170/1/3 169/1/3
f 172/1/3 171/1/3 170/1/3
f 172/1/3 168/1/3 162/1/3
f 172/1/3 169/1/3 168/1/3
f 173/1/3 171/1/3 172/1/3
f 174/1/3 171/1/3 173/1/3
f 175/1/3 163/1/3 171/1/3
f 175/1/3 171/1/3 174/1/3
f 177/1/3 172/1/3 162/1/3
f 178/1/3 177/1/3 176/1/3
f 179/1/3 177/1/3 178/1/3
f 180/1/3 172/1/3 177/1/3
f 180/1/3 177/1/3 179/1/3
f 181/1/3 174/1/3 173/1/3
f 182/1/3 174/1/3 181/1/3
f 183/1/3 163/1/3 175/1/3
f 184/1/3 180/1/3 179/1/3
f 184/1/3 183/1/3 182/1/3
f 184/1/3 182/1/3 181/1/3
f 184/1/3 181/1/3 180/1/3
f 185/1/3 183/1/3 184/1/3
f 186/1/3 183/1/3 185/1/3
f 187/1/3 163/1/3 183/1/3
f 187/1/3 183/1/3 186/1/3
f 190/1/3 189/1/3 188/1/3
f 191/1/3 189/1/3 190/1/3
f 194/1/3 193/1/3 192/1/3
f 195/1/3 193/1/3 194/1/3
f 198/1/3 197/1/3 196/1/3
f 199/1/3 197/1/3 198/1/3
f 202/1/3 201/1/3 200/1/3
f 203/1/3 201/1/3 202/1/3
f 204/1/4 205/1/4 206/1/4
f 206/1/4 205/1/4 207/1/4
f 208/1/4 209/1/4 210/1/4
f 210/1/4 209/1/4 211/1/4
f 212/1/4 213/1/4 214/1/4
f 214/1/4 213/1/4 215/1/4
f 216/1/4 217/1/4 218/1/4
f 218/1/4 217/1/4 219/1/4
f 220/1/4 221/1/4 222/1/4
f 222/1/4 221/1/4 223/1/4
f 224/1/4 225/1/4 227/1/4
f 227/1/4 225/1/4 228/1/4
f 226/1/4 227/1/4 230/1/4
f 228/1/4 229/1/4 230/1/4
f 227/1/4 228/1/4 230/1/4
f 230/1/4 229/1/4 231/1/4
f 232/1/4 233/1/4 234/1/4
f 234/1/4 233/1/4 235/1/4
f 236/1/4 237/1/4 238/1/4
f 236/1/4 238/1/4 240/1/4
f 238/1/4 239/1/4 240/1/4
f 240/1/4 239/1/4 241/1/4
f 236/1/4 240/1/4 242/1/4
f 242/1/4 240/1/4 243/1/4
f 244/1/4 245/1/4 246/1/4
f 246/1/4 245/1/4 247/1/4
f 250/1/5 249/1/5 248/1/5
f 251/1/5 249/1/5 250/1/5
f 254/1/5 253/1/5 252/1/5
f 255/1/5 253/1/5 254/1/5
f 258/1/5 257/1/5 256/1/5
f 259/1/5 257/1/5 258/1/5
f 260/1/5 257/1/5 259/1/5
f 261/1/5 257/1/5 260/1/5
f 264/1/5 263/1/5 262/1/5
f 265/1/5 263/1/5 264/1/5
f 270/1/5 267/1/5 266/1/5
f 271/1/5 267/1/5 270/1/5
f 272/1/5 269/1/5 268/1/5
f 273/1/5 269/1/5 272/1/5
f 276/1/5 275/1/5 274/1/5
f 281/1/5 277/1/5 276/1/5
f 281/1/5 278/1/5 277/1/5
f 282/1/5 280/1/5 279/1/5
f 283/1/5 276/1/5 274/1/5
f 283/1/5 282/1/5 281/1/5
f 283/1/5 281/1/5 276/1/5
f 284/1/5 280/1/5 282/1/5
f 284/1/5 282/1/5 283/1/5
f 289/1/5 286/1/5 285/1/5
f 290/1/5 286/1/5 289/1/5
f 291/1/5 286/1/5 290/1/5
f 292/1/5 286/1/5 291/1/5
f 293/1/5 288/1/5 287/1/5
f 294/1/5 288/1/5 293/1/5
f 295/1/6 296/1/6 297/1/6
f 297/1/6 296/1/6 298/1/6
f 298/1/6 296/1/6 299/1/6
f 299/1/6 296/1/6 300/1/6
f 298/1/6 299/1/6 301/1/6
f 301/1/6 299/1/6 302/1/6
f 303/1/6 304/1/6 305/1/6
f 305/1/6 304/1/6 306/1/6
f 306/1/6 304/1/6 307/1/6
f 307/1/6 304/1/6 308/1/6
f 309/1/6 310/1/6 311/1/6
f 311/1/6 310/1/6 312/1/6
f 313/1/6 314/1/6 315/1/6
f 315/1/6 314/1/6 316/1/6
f 317/1/6 318/1/6 319/1/6
f 319/1/6 318/1/6 320/1/6
f 321/1/6 322/1/6 323/1/6
f 323/1/6 322/1/6 324/1/6
f 321/1/6 323/1/6 325/1/6
f 324/1/6 322/1/6 326/1/6
f 321/1/6 325/1/6 327/1/6
f 325/1/6 326/1/6 327/1/6
f 326/1/6 322/1/6 328/1/6
f 327/1/6 326/1/6 328/1/6
f 329/1/6 330/1/6 331/1/6
f 331/1/6 330/1/6 332/1/6
f 333/1/6 334/1/6 335/1/6
f 335/1/6 334/1/6 336/1/6
f 337/1/6 338/1/6 341/1/6
f 337/1/6 341/1/6 343/1/6
f 341/1/6 342/1/6 343/1/6
f 343/1/6 342/1/6 344/1/6
f 339/1/6 340/1/6 345/1/6
f 345/1/6 340/1/6 346/1/6
f 347/1/6 348/1/6 351/1/6
f 351/1/6 348/1/6 352/1/6
f 349/1/6 350/1/6 353/1/6
f 353/1/6 350/1/6 354/1/6
f 355/1/6 356/1/6 359/1/6
f 359/1/6 356/1/6 360/1/6
f 357/1/6 358/1/6 361/1/6
f 361/1/6 358/1/6 362/1/6
f 363/1/6 364/1/6 367/1/6
f 365/1/6 366/1/6 368/1/6
f 363/1/6 367/1/6 369/1/6
f 367/1/6 368/1/6 369/1/6
f 368/1/6 366/1/6 370/1/6
f 369/1/6 368/1/6 370/1/6
