# MagicaVoxel @ Ephtracy

# material
mtllib floor_3.mtl
usemtl palette

# normals
vn -1 0 0
vn 1 0 0
vn 0 0 1
vn 0 0 -1
vn 0 -1 0
vn 0 1 0

# texcoords
vt 0.251953 0.5
vt 0.283203 0.5

# verts
v -20 39 20
v -20 39 -20
v -20 40 20
v -20 40 -20
v 20 39 20
v 20 39 -20
v 20 40 20
v 20 40 -20
v -20 39 20
v -20 40 20
v 20 39 20
v 20 40 20
v -20 39 -20
v -20 40 -20
v 20 39 -20
v 20 40 -20
v -20 39 20
v 20 39 20
v 13 39 16
v 16 39 16
v -14 39 14
v -12 39 14
v 0 39 11
v 3 39 11
v -14 39 9
v -12 39 9
v 13 39 7
v 16 39 7
v 0 39 -2
v 3 39 -2
v -12 39 -5
v -9 39 -5
v 12 39 -7
v 15 39 -7
v 1 39 -10
v 3 39 -10
v 1 39 -12
v 3 39 -12
v -12 39 -16
v -9 39 -16
v 12 39 -16
v 15 39 -16
v -20 39 -20
v 20 39 -20
v -20 40 20
v 20 40 20
v 13 40 16
v 16 40 16
v -14 40 14
v -12 40 14
v 0 40 11
v 3 40 11
v -14 40 9
v -12 40 9
v 13 40 7
v 16 40 7
v 0 40 -2
v 3 40 -2
v -12 40 -5
v -9 40 -5
v 12 40 -7
v 15 40 -7
v 1 40 -10
v 3 40 -10
v 1 40 -12
v 3 40 -12
v -12 40 -16
v -9 40 -16
v 12 40 -16
v 15 40 -16
v -20 40 -20
v 20 40 -20

# faces
f 3/1/1 2/1/1 1/1/1
f 4/1/1 2/1/1 3/1/1
f 5/1/2 6/1/2 7/1/2
f 7/1/2 6/1/2 8/1/2
f 11/1/3 10/1/3 9/1/3
f 12/1/3 10/1/3 11/1/3
f 13/1/4 14/1/4 15/1/4
f 15/1/4 14/1/4 16/1/4
f 19/1/5 18/1/5 17/1/5
f 20/1/5 18/1/5 19/1/5
f 21/1/5 19/1/5 17/1/5
f 22/1/5 19/1/5 21/1/5
f 23/1/5 19/1/5 22/1/5
f 24/1/5 19/1/5 23/1/5
f 25/1/5 21/1/5 17/1/5
f 25/2/5 22/2/5 21/2/5
f 26/1/5 23/1/5 22/1/5
f 26/2/5 22/2/5 25/2/5
f 27/2/5 20/2/5 19/2/5
f 27/1/5 19/1/5 24/1/5
f 28/1/5 18/1/5 20/1/5
f 28/2/5 20/2/5 27/2/5
f 29/1/5 23/1/5 26/1/5
f 29/1/5 26/1/5 25/1/5
f 29/2/5 24/2/5 23/2/5
f 30/1/5 27/1/5 24/1/5
f 30/2/5 24/2/5 29/2/5
f 30/1/5 28/1/5 27/1/5
f 31/1/5 29/1/5 25/1/5
f 31/1/5 30/1/5 29/1/5
f 32/1/5 30/1/5 31/1/5
f 33/1/5 28/1/5 30/1/5
f 33/1/5 30/1/5 32/1/5
f 34/1/5 28/1/5 33/1/5
f 35/1/5 33/1/5 32/1/5
f 36/1/5 33/1/5 35/1/5
f 37/1/5 35/1/5 32/1/5
f 37/2/5 36/2/5 35/2/5
f 38/1/5 33/1/5 36/1/5
f 38/2/5 36/2/5 37/2/5
f 39/2/5 32/2/5 31/2/5
f 39/1/5 31/1/5 25/1/5
f 40/1/5 38/1/5 37/1/5
f 40/2/5 32/2/5 39/2/5
f 40/1/5 37/1/5 32/1/5
f 41/1/5 33/1/5 38/1/5
f 41/1/5 38/1/5 40/1/5
f 41/2/5 34/2/5 33/2/5
f 42/1/5 28/1/5 34/1/5
f 42/2/5 34/2/5 41/2/5
f 43/1/5 40/1/5 39/1/5
f 43/1/5 25/1/5 17/1/5
f 43/1/5 42/1/5 41/1/5
f 43/1/5 41/1/5 40/1/5
f 43/1/5 39/1/5 25/1/5
f 44/1/5 28/1/5 42/1/5
f 44/1/5 42/1/5 43/1/5
f 44/1/5 18/1/5 28/1/5
f 45/1/6 46/1/6 47/1/6
f 47/1/6 46/1/6 48/1/6
f 45/1/6 47/1/6 49/1/6
f 49/1/6 47/1/6 50/1/6
f 50/1/6 47/1/6 51/1/6
f 51/1/6 47/1/6 52/1/6
f 45/1/6 49/1/6 53/1/6
f 49/2/6 50/2/6 53/2/6
f 50/1/6 51/1/6 54/1/6
f 53/2/6 50/2/6 54/2/6
f 47/2/6 48/2/6 55/2/6
f 52/1/6 47/1/6 55/1/6
f 48/1/6 46/1/6 56/1/6
f 55/2/6 48/2/6 56/2/6
f 54/1/6 51/1/6 57/1/6
f 53/1/6 54/1/6 57/1/6
f 51/2/6 52/2/6 57/2/6
f 52/1/6 55/1/6 58/1/6
f 57/2/6 52/2/6 58/2/6
f 55/1/6 56/1/6 58/1/6
f 53/1/6 57/1/6 59/1/6
f 57/1/6 58/1/6 59/1/6
f 59/1/6 58/1/6 60/1/6
f 58/1/6 56/1/6 61/1/6
f 60/1/6 58/1/6 61/1/6
f 61/1/6 56/1/6 62/1/6
f 60/1/6 61/1/6 63/1/6
f 63/1/6 61/1/6 64/1/6
f 60/1/6 63/1/6 65/1/6
f 63/2/6 64/2/6 65/2/6
f 64/1/6 61/1/6 66/1/6
f 65/2/6 64/2/6 66/2/6
f 59/2/6 60/2/6 67/2/6
f 53/1/6 59/1/6 67/1/6
f 65/1/6 66/1/6 68/1/6
f 67/2/6 60/2/6 68/2/6
f 60/1/6 65/1/6 68/1/6
f 66/1/6 61/1/6 69/1/6
f 68/1/6 66/1/6 69/1/6
f 61/2/6 62/2/6 69/2/6
f 62/1/6 56/1/6 70/1/6
f 69/2/6 62/2/6 70/2/6
f 67/1/6 68/1/6 71/1/6
f 45/1/6 53/1/6 71/1/6
f 69/1/6 70/1/6 71/1/6
f 68/1/6 69/1/6 71/1/6
f 53/1/6 67/1/6 71/1/6
f 70/1/6 56/1/6 72/1/6
f 71/1/6 70/1/6 72/1/6
f 56/1/6 46/1/6 72/1/6
