# MagicaVoxel @ Ephtracy

# material
mtllib floor_7.mtl
usemtl palette

# normals
vn -1 0 0
vn 1 0 0
vn 0 0 1
vn 0 0 -1
vn 0 -1 0
vn 0 1 0

# texcoords
vt 0.294922 0.5
vt 0.298828 0.5
vt 0.302734 0.5

# verts
v -20 39 20
v -20 39 -20
v -20 40 20
v -20 40 -20
v 20 39 20
v 20 39 -20
v 20 40 20
v 20 40 -20
v -20 39 20
v -20 40 20
v 20 39 20
v 20 40 20
v -20 39 -20
v -20 40 -20
v 20 39 -20
v 20 40 -20
v -20 39 20
v 20 39 20
v 14 39 18
v 17 39 18
v 1 39 16
v 3 39 16
v 1 39 14
v 3 39 14
v 14 39 12
v 17 39 12
v -10 39 11
v -8 39 11
v -10 39 9
v -8 39 9
v 0 39 4
v 2 39 4
v 14 39 2
v 16 39 2
v 0 39 -0
v 2 39 -0
v -12 39 -1
v -11 39 -1
v -12 39 -2
v -11 39 -2
v 14 39 -6
v 16 39 -6
v -12 39 -11
v -11 39 -11
v -12 39 -12
v -11 39 -12
v 2 39 -13
v 3 39 -13
v 2 39 -14
v 3 39 -14
v -20 39 -20
v 20 39 -20
v -20 40 20
v 20 40 20
v 14 40 18
v 17 40 18
v 1 40 16
v 3 40 16
v 1 40 14
v 3 40 14
v 14 40 12
v 17 40 12
v -10 40 11
v -8 40 11
v -10 40 9
v -8 40 9
v 0 40 4
v 2 40 4
v 14 40 2
v 16 40 2
v 0 40 -0
v 2 40 -0
v -12 40 -1
v -11 40 -1
v -12 40 -2
v -11 40 -2
v 14 40 -6
v 16 40 -6
v -12 40 -11
v -11 40 -11
v -12 40 -12
v -11 40 -12
v 2 40 -13
v 3 40 -13
v 2 40 -14
v 3 40 -14
v -20 40 -20
v 20 40 -20

# faces
f 3/1/1 2/1/1 1/1/1
f 4/1/1 2/1/1 3/1/1
f 5/1/2 6/1/2 7/1/2
f 7/1/2 6/1/2 8/1/2
f 11/1/3 10/1/3 9/1/3
f 12/1/3 10/1/3 11/1/3
f 13/1/4 14/1/4 15/1/4
f 15/1/4 14/1/4 16/1/4
f 19/1/5 18/1/5 17/1/5
f 20/1/5 18/1/5 19/1/5
f 21/1/5 19/1/5 17/1/5
f 22/1/5 19/1/5 21/1/5
f 23/1/5 21/1/5 17/1/5
f 23/3/5 22/3/5 21/3/5
f 24/1/5 19/1/5 22/1/5
f 24/3/5 22/3/5 23/3/5
f 25/2/5 20/2/5 19/2/5
f 25/1/5 19/1/5 24/1/5
f 25/1/5 24/1/5 23/1/5
f 26/1/5 18/1/5 20/1/5
f 26/2/5 20/2/5 25/2/5
f 27/1/5 25/1/5 23/1/5
f 27/1/5 23/1/5 17/1/5
f 27/1/5 26/1/5 25/1/5
f 28/1/5 26/1/5 27/1/5
f 29/1/5 27/1/5 17/1/5
f 29/2/5 28/2/5 27/2/5
f 30/1/5 26/1/5 28/1/5
f 30/2/5 28/2/5 29/2/5
f 31/1/5 30/1/5 29/1/5
f 31/1/5 26/1/5 30/1/5
f 32/1/5 26/1/5 31/1/5
f 33/1/5 26/1/5 32/1/5
f 34/1/5 26/1/5 33/1/5
f 35/1/5 31/1/5 29/1/5
f 35/3/5 32/3/5 31/3/5
f 36/1/5 33/1/5 32/1/5
f 36/3/5 32/3/5 35/3/5
f 37/1/5 29/1/5 17/1/5
f 37/1/5 35/1/5 29/1/5
f 37/1/5 36/1/5 35/1/5
f 38/1/5 36/1/5 37/1/5
f 39/1/5 37/1/5 17/1/5
f 39/3/5 38/3/5 37/3/5
f 40/1/5 36/1/5 38/1/5
f 40/3/5 38/3/5 39/3/5
f 41/1/5 33/1/5 36/1/5
f 41/1/5 36/1/5 40/1/5
f 41/1/5 40/1/5 39/1/5
f 41/2/5 34/2/5 33/2/5
f 42/1/5 26/1/5 34/1/5
f 42/2/5 34/2/5 41/2/5
f 43/1/5 39/1/5 17/1/5
f 43/1/5 41/1/5 39/1/5
f 43/1/5 42/1/5 41/1/5
f 44/1/5 42/1/5 43/1/5
f 45/1/5 43/1/5 17/1/5
f 45/3/5 44/3/5 43/3/5
f 46/1/5 42/1/5 44/1/5
f 46/3/5 44/3/5 45/3/5
f 47/1/5 46/1/5 45/1/5
f 47/1/5 42/1/5 46/1/5
f 48/1/5 42/1/5 47/1/5
f 49/1/5 47/1/5 45/1/5
f 49/3/5 48/3/5 47/3/5
f 50/1/5 42/1/5 48/1/5
f 50/3/5 48/3/5 49/3/5
f 51/1/5 45/1/5 17/1/5
f 51/1/5 49/1/5 45/1/5
f 51/1/5 50/1/5 49/1/5
f 52/1/5 18/1/5 26/1/5
f 52/1/5 50/1/5 51/1/5
f 52/1/5 26/1/5 42/1/5
f 52/1/5 42/1/5 50/1/5
f 53/1/6 54/1/6 55/1/6
f 55/1/6 54/1/6 56/1/6
f 53/1/6 55/1/6 57/1/6
f 57/1/6 55/1/6 58/1/6
f 53/1/6 57/1/6 59/1/6
f 57/3/6 58/3/6 59/3/6
f 58/1/6 55/1/6 60/1/6
f 59/3/6 58/3/6 60/3/6
f 55/2/6 56/2/6 61/2/6
f 60/1/6 55/1/6 61/1/6
f 59/1/6 60/1/6 61/1/6
f 56/1/6 54/1/6 62/1/6
f 61/2/6 56/2/6 62/2/6
f 59/1/6 61/1/6 63/1/6
f 53/1/6 59/1/6 63/1/6
f 61/1/6 62/1/6 63/1/6
f 63/1/6 62/1/6 64/1/6
f 53/1/6 63/1/6 65/1/6
f 63/2/6 64/2/6 65/2/6
f 64/1/6 62/1/6 66/1/6
f 65/2/6 64/2/6 66/2/6
f 65/1/6 66/1/6 67/1/6
f 66/1/6 62/1/6 67/1/6
f 67/1/6 62/1/6 68/1/6
f 68/1/6 62/1/6 69/1/6
f 69/1/6 62/1/6 70/1/6
f 65/1/6 67/1/6 71/1/6
f 67/3/6 68/3/6 71/3/6
f 68/1/6 69/1/6 72/1/6
f 71/3/6 68/3/6 72/3/6
f 53/1/6 65/1/6 73/1/6
f 65/1/6 71/1/6 73/1/6
f 71/1/6 72/1/6 73/1/6
f 73/1/6 72/1/6 74/1/6
f 53/1/6 73/1/6 75/1/6
f 73/3/6 74/3/6 75/3/6
f 74/1/6 72/1/6 76/1/6
f 75/3/6 74/3/6 76/3/6
f 72/1/6 69/1/6 77/1/6
f 76/1/6 72/1/6 77/1/6
f 75/1/6 76/1/6 77/1/6
f 69/2/6 70/2/6 77/2/6
f 70/1/6 62/1/6 78/1/6
f 77/2/6 70/2/6 78/2/6
f 53/1/6 75/1/6 79/1/6
f 75/1/6 77/1/6 79/1/6
f 77/1/6 78/1/6 79/1/6
f 79/1/6 78/1/6 80/1/6
f 53/1/6 79/1/6 81/1/6
f 79/3/6 80/3/6 81/3/6
f 80/1/6 78/1/6 82/1/6
f 81/3/6 80/3/6 82/3/6
f 81/1/6 82/1/6 83/1/6
f 82/1/6 78/1/6 83/1/6
f 83/1/6 78/1/6 84/1/6
f 81/1/6 83/1/6 85/1/6
f 83/3/6 84/3/6 85/3/6
f 84/1/6 78/1/6 86/1/6
f 85/3/6 84/3/6 86/3/6
f 53/1/6 81/1/6 87/1/6
f 81/1/6 85/1/6 87/1/6
f 85/1/6 86/1/6 87/1/6
f 62/1/6 54/1/6 88/1/6
f 87/1/6 86/1/6 88/1/6
f 78/1/6 62/1/6 88/1/6
f 86/1/6 78/1/6 88/1/6
